%TF.GenerationSoftware,KiCad,Pcbnew,(5.1.6)-1*%
%TF.CreationDate,2021-02-06T11:25:37-03:00*%
%TF.ProjectId,GaroaRelogio,4761726f-6152-4656-9c6f-67696f2e6b69,rev?*%
%TF.SameCoordinates,Original*%
%TF.FileFunction,Legend,Top*%
%TF.FilePolarity,Positive*%
%FSLAX46Y46*%
G04 Gerber Fmt 4.6, Leading zero omitted, Abs format (unit mm)*
G04 Created by KiCad (PCBNEW (5.1.6)-1) date 2021-02-06 11:25:37*
%MOMM*%
%LPD*%
G01*
G04 APERTURE LIST*
%ADD10C,0.150000*%
%ADD11C,0.149860*%
%ADD12C,0.300000*%
%ADD13C,0.120000*%
%ADD14C,0.100000*%
%ADD15C,0.127000*%
%ADD16C,0.317500*%
%ADD17C,0.002540*%
%ADD18C,0.304800*%
%ADD19C,0.152400*%
%ADD20C,0.406400*%
%ADD21C,0.066040*%
%ADD22C,0.203200*%
G04 APERTURE END LIST*
D10*
X157669523Y-57732380D02*
X157193333Y-57732380D01*
X157145714Y-58208571D01*
X157193333Y-58160952D01*
X157288571Y-58113333D01*
X157526666Y-58113333D01*
X157621904Y-58160952D01*
X157669523Y-58208571D01*
X157717142Y-58303809D01*
X157717142Y-58541904D01*
X157669523Y-58637142D01*
X157621904Y-58684761D01*
X157526666Y-58732380D01*
X157288571Y-58732380D01*
X157193333Y-58684761D01*
X157145714Y-58637142D01*
X158002857Y-57732380D02*
X158336190Y-58732380D01*
X158669523Y-57732380D01*
X152985714Y-63372380D02*
X152414285Y-63372380D01*
X152700000Y-63372380D02*
X152700000Y-62372380D01*
X152604761Y-62515238D01*
X152509523Y-62610476D01*
X152414285Y-62658095D01*
X151988095Y-57870000D02*
X151892857Y-57822380D01*
X151750000Y-57822380D01*
X151607142Y-57870000D01*
X151511904Y-57965238D01*
X151464285Y-58060476D01*
X151416666Y-58250952D01*
X151416666Y-58393809D01*
X151464285Y-58584285D01*
X151511904Y-58679523D01*
X151607142Y-58774761D01*
X151750000Y-58822380D01*
X151845238Y-58822380D01*
X151988095Y-58774761D01*
X152035714Y-58727142D01*
X152035714Y-58393809D01*
X151845238Y-58393809D01*
X152464285Y-58822380D02*
X152464285Y-57822380D01*
X153035714Y-58822380D01*
X153035714Y-57822380D01*
X153511904Y-58822380D02*
X153511904Y-57822380D01*
X153750000Y-57822380D01*
X153892857Y-57870000D01*
X153988095Y-57965238D01*
X154035714Y-58060476D01*
X154083333Y-58250952D01*
X154083333Y-58393809D01*
X154035714Y-58584285D01*
X153988095Y-58679523D01*
X153892857Y-58774761D01*
X153750000Y-58822380D01*
X153511904Y-58822380D01*
X148248809Y-61206071D02*
X147915476Y-61206071D01*
X147915476Y-61729880D02*
X147915476Y-60729880D01*
X148391666Y-60729880D01*
X148629761Y-60729880D02*
X149201190Y-60729880D01*
X148915476Y-61729880D02*
X148915476Y-60729880D01*
X149534523Y-61729880D02*
X149534523Y-60729880D01*
X149772619Y-60729880D01*
X149915476Y-60777500D01*
X150010714Y-60872738D01*
X150058333Y-60967976D01*
X150105952Y-61158452D01*
X150105952Y-61301309D01*
X150058333Y-61491785D01*
X150010714Y-61587023D01*
X149915476Y-61682261D01*
X149772619Y-61729880D01*
X149534523Y-61729880D01*
X150534523Y-61729880D02*
X150534523Y-60729880D01*
D11*
X148415828Y-81905323D02*
X148957695Y-81750504D01*
X148570647Y-81595685D01*
X148957695Y-81440866D01*
X148415828Y-81286047D01*
X148415828Y-81053819D02*
X148957695Y-80899000D01*
X148570647Y-80744180D01*
X148957695Y-80589361D01*
X148415828Y-80434542D01*
X148415828Y-80202314D02*
X148957695Y-80047495D01*
X148570647Y-79892676D01*
X148957695Y-79737857D01*
X148415828Y-79583038D01*
X148880285Y-79273400D02*
X148918990Y-79234695D01*
X148957695Y-79273400D01*
X148918990Y-79312104D01*
X148880285Y-79273400D01*
X148957695Y-79273400D01*
X148183600Y-78460600D02*
X148144895Y-78538009D01*
X148144895Y-78654123D01*
X148183600Y-78770238D01*
X148261009Y-78847647D01*
X148338419Y-78886352D01*
X148493238Y-78925057D01*
X148609352Y-78925057D01*
X148764171Y-78886352D01*
X148841580Y-78847647D01*
X148918990Y-78770238D01*
X148957695Y-78654123D01*
X148957695Y-78576714D01*
X148918990Y-78460600D01*
X148880285Y-78421895D01*
X148609352Y-78421895D01*
X148609352Y-78576714D01*
X148957695Y-77725209D02*
X148531942Y-77725209D01*
X148454533Y-77763914D01*
X148415828Y-77841323D01*
X148415828Y-77996142D01*
X148454533Y-78073552D01*
X148918990Y-77725209D02*
X148957695Y-77802619D01*
X148957695Y-77996142D01*
X148918990Y-78073552D01*
X148841580Y-78112257D01*
X148764171Y-78112257D01*
X148686761Y-78073552D01*
X148648057Y-77996142D01*
X148648057Y-77802619D01*
X148609352Y-77725209D01*
X148957695Y-77338161D02*
X148415828Y-77338161D01*
X148570647Y-77338161D02*
X148493238Y-77299457D01*
X148454533Y-77260752D01*
X148415828Y-77183342D01*
X148415828Y-77105933D01*
X148957695Y-76718885D02*
X148918990Y-76796295D01*
X148880285Y-76835000D01*
X148802876Y-76873704D01*
X148570647Y-76873704D01*
X148493238Y-76835000D01*
X148454533Y-76796295D01*
X148415828Y-76718885D01*
X148415828Y-76602771D01*
X148454533Y-76525361D01*
X148493238Y-76486657D01*
X148570647Y-76447952D01*
X148802876Y-76447952D01*
X148880285Y-76486657D01*
X148918990Y-76525361D01*
X148957695Y-76602771D01*
X148957695Y-76718885D01*
X148957695Y-75751266D02*
X148531942Y-75751266D01*
X148454533Y-75789971D01*
X148415828Y-75867380D01*
X148415828Y-76022200D01*
X148454533Y-76099609D01*
X148918990Y-75751266D02*
X148957695Y-75828676D01*
X148957695Y-76022200D01*
X148918990Y-76099609D01*
X148841580Y-76138314D01*
X148764171Y-76138314D01*
X148686761Y-76099609D01*
X148648057Y-76022200D01*
X148648057Y-75828676D01*
X148609352Y-75751266D01*
X148880285Y-75364219D02*
X148918990Y-75325514D01*
X148957695Y-75364219D01*
X148918990Y-75402923D01*
X148880285Y-75364219D01*
X148957695Y-75364219D01*
X148415828Y-74977171D02*
X148957695Y-74977171D01*
X148493238Y-74977171D02*
X148454533Y-74938466D01*
X148415828Y-74861057D01*
X148415828Y-74744942D01*
X148454533Y-74667533D01*
X148531942Y-74628828D01*
X148957695Y-74628828D01*
X148918990Y-73932142D02*
X148957695Y-74009552D01*
X148957695Y-74164371D01*
X148918990Y-74241780D01*
X148841580Y-74280485D01*
X148531942Y-74280485D01*
X148454533Y-74241780D01*
X148415828Y-74164371D01*
X148415828Y-74009552D01*
X148454533Y-73932142D01*
X148531942Y-73893438D01*
X148609352Y-73893438D01*
X148686761Y-74280485D01*
X148415828Y-73661209D02*
X148415828Y-73351571D01*
X148144895Y-73545095D02*
X148841580Y-73545095D01*
X148918990Y-73506390D01*
X148957695Y-73428980D01*
X148957695Y-73351571D01*
X148880285Y-73080638D02*
X148918990Y-73041933D01*
X148957695Y-73080638D01*
X148918990Y-73119342D01*
X148880285Y-73080638D01*
X148957695Y-73080638D01*
X148957695Y-72693590D02*
X148144895Y-72693590D01*
X148454533Y-72693590D02*
X148415828Y-72616180D01*
X148415828Y-72461361D01*
X148454533Y-72383952D01*
X148493238Y-72345247D01*
X148570647Y-72306542D01*
X148802876Y-72306542D01*
X148880285Y-72345247D01*
X148918990Y-72383952D01*
X148957695Y-72461361D01*
X148957695Y-72616180D01*
X148918990Y-72693590D01*
X148957695Y-71958200D02*
X148415828Y-71958200D01*
X148570647Y-71958200D02*
X148493238Y-71919495D01*
X148454533Y-71880790D01*
X148415828Y-71803380D01*
X148415828Y-71725971D01*
D10*
X104981547Y-106751428D02*
X105743452Y-106751428D01*
X105362500Y-107132380D02*
X105362500Y-106370476D01*
X106981547Y-106751428D02*
X107743452Y-106751428D01*
X174998214Y-102687380D02*
X174998214Y-101687380D01*
X175236309Y-101687380D01*
X175379166Y-101735000D01*
X175474404Y-101830238D01*
X175522023Y-101925476D01*
X175569642Y-102115952D01*
X175569642Y-102258809D01*
X175522023Y-102449285D01*
X175474404Y-102544523D01*
X175379166Y-102639761D01*
X175236309Y-102687380D01*
X174998214Y-102687380D01*
X176522023Y-102687380D02*
X175950595Y-102687380D01*
X176236309Y-102687380D02*
X176236309Y-101687380D01*
X176141071Y-101830238D01*
X176045833Y-101925476D01*
X175950595Y-101973095D01*
X176855357Y-101687380D02*
X177474404Y-101687380D01*
X177141071Y-102068333D01*
X177283928Y-102068333D01*
X177379166Y-102115952D01*
X177426785Y-102163571D01*
X177474404Y-102258809D01*
X177474404Y-102496904D01*
X177426785Y-102592142D01*
X177379166Y-102639761D01*
X177283928Y-102687380D01*
X176998214Y-102687380D01*
X176902976Y-102639761D01*
X176855357Y-102592142D01*
X174998214Y-89669880D02*
X174998214Y-88669880D01*
X175236309Y-88669880D01*
X175379166Y-88717500D01*
X175474404Y-88812738D01*
X175522023Y-88907976D01*
X175569642Y-89098452D01*
X175569642Y-89241309D01*
X175522023Y-89431785D01*
X175474404Y-89527023D01*
X175379166Y-89622261D01*
X175236309Y-89669880D01*
X174998214Y-89669880D01*
X176522023Y-89669880D02*
X175950595Y-89669880D01*
X176236309Y-89669880D02*
X176236309Y-88669880D01*
X176141071Y-88812738D01*
X176045833Y-88907976D01*
X175950595Y-88955595D01*
X176902976Y-88765119D02*
X176950595Y-88717500D01*
X177045833Y-88669880D01*
X177283928Y-88669880D01*
X177379166Y-88717500D01*
X177426785Y-88765119D01*
X177474404Y-88860357D01*
X177474404Y-88955595D01*
X177426785Y-89098452D01*
X176855357Y-89669880D01*
X177474404Y-89669880D01*
X174998214Y-76334880D02*
X174998214Y-75334880D01*
X175236309Y-75334880D01*
X175379166Y-75382500D01*
X175474404Y-75477738D01*
X175522023Y-75572976D01*
X175569642Y-75763452D01*
X175569642Y-75906309D01*
X175522023Y-76096785D01*
X175474404Y-76192023D01*
X175379166Y-76287261D01*
X175236309Y-76334880D01*
X174998214Y-76334880D01*
X176522023Y-76334880D02*
X175950595Y-76334880D01*
X176236309Y-76334880D02*
X176236309Y-75334880D01*
X176141071Y-75477738D01*
X176045833Y-75572976D01*
X175950595Y-75620595D01*
X177474404Y-76334880D02*
X176902976Y-76334880D01*
X177188690Y-76334880D02*
X177188690Y-75334880D01*
X177093452Y-75477738D01*
X176998214Y-75572976D01*
X176902976Y-75620595D01*
D12*
X120102500Y-58312857D02*
X121245357Y-58312857D01*
X120673928Y-57741428D02*
X120673928Y-58884285D01*
X121959642Y-58312857D02*
X123102500Y-58312857D01*
X130428928Y-59479642D02*
X129286071Y-59479642D01*
X129857500Y-60051071D02*
X129857500Y-58908214D01*
D13*
%TO.C,DSP1*%
X142557500Y-77470000D02*
X142557500Y-63500000D01*
X109537500Y-63500000D02*
X109537500Y-77470000D01*
X142557500Y-77470000D02*
X109537500Y-77470000D01*
X109537500Y-63500000D02*
X142557500Y-63500000D01*
D14*
X120697500Y-77445000D02*
X119697500Y-76445000D01*
X119697500Y-76445000D02*
X118697500Y-77445000D01*
D13*
%TO.C,Q1*%
X143722500Y-91495000D02*
X140122500Y-91495000D01*
X140084022Y-91506522D02*
G75*
G03*
X141922500Y-95945000I1838478J-1838478D01*
G01*
X143760978Y-91506522D02*
G75*
G02*
X141922500Y-95945000I-1838478J-1838478D01*
G01*
D15*
%TO.C,SW1*%
X172402500Y-74930000D02*
X180022500Y-74930000D01*
X180022500Y-67310000D02*
X180022500Y-74930000D01*
X172402500Y-67310000D02*
X180022500Y-67310000D01*
X172402500Y-74930000D02*
X172402500Y-67310000D01*
X178752500Y-71120000D02*
G75*
G03*
X178752500Y-71120000I-2540000J0D01*
G01*
D16*
%TO.C,X1*%
X129540000Y-89852500D02*
X135890000Y-89852500D01*
X129540000Y-94932500D02*
X135890000Y-94932500D01*
X138430000Y-92392500D02*
G75*
G03*
X135890000Y-89852500I-2540000J0D01*
G01*
X135890000Y-94932500D02*
G75*
G03*
X138430000Y-92392500I0J2540000D01*
G01*
X129540000Y-89852500D02*
G75*
G03*
X127000000Y-92392500I0J-2540000D01*
G01*
X127000000Y-92392500D02*
G75*
G03*
X129540000Y-94932500I2540000J0D01*
G01*
D17*
%TO.C,G\u002A\u002A\u002A*%
G36*
X167934640Y-64493140D02*
G01*
X158813500Y-64513460D01*
X149689820Y-64536320D01*
X149666960Y-77216000D01*
X149646640Y-89893140D01*
X149626320Y-77172820D01*
X149606000Y-64452500D01*
X158770320Y-64472820D01*
X167934640Y-64493140D01*
G37*
X167934640Y-64493140D02*
X158813500Y-64513460D01*
X149689820Y-64536320D01*
X149666960Y-77216000D01*
X149646640Y-89893140D01*
X149626320Y-77172820D01*
X149606000Y-64452500D01*
X158770320Y-64472820D01*
X167934640Y-64493140D01*
G36*
X166700200Y-78171040D02*
G01*
X166684960Y-78468220D01*
X166613840Y-78658720D01*
X166504620Y-78717140D01*
X166390320Y-78671420D01*
X166301420Y-78508860D01*
X166243000Y-78313280D01*
X166052500Y-77861160D01*
X165755320Y-77520800D01*
X165379400Y-77309980D01*
X164973000Y-77238860D01*
X164973000Y-76644500D01*
X164896800Y-76537820D01*
X164719000Y-76474320D01*
X164515800Y-76398120D01*
X164434520Y-76283820D01*
X164482780Y-76177140D01*
X164650420Y-76121260D01*
X164838380Y-76052680D01*
X164884100Y-75946000D01*
X164790120Y-75846940D01*
X164655500Y-75811380D01*
X164465000Y-75758040D01*
X164434520Y-75686920D01*
X164556440Y-75633580D01*
X164665660Y-75628500D01*
X164856160Y-75582780D01*
X164970460Y-75481180D01*
X164970460Y-75364340D01*
X164952680Y-75338940D01*
X164840920Y-75303380D01*
X164637720Y-75288140D01*
X164619940Y-75288140D01*
X164340540Y-75354180D01*
X164165280Y-75554840D01*
X164094160Y-75885040D01*
X164104320Y-76151740D01*
X164170360Y-76499720D01*
X164294820Y-76695300D01*
X164304980Y-76702920D01*
X164490400Y-76779120D01*
X164703760Y-76794360D01*
X164884100Y-76751180D01*
X164970460Y-76657200D01*
X164973000Y-76644500D01*
X164973000Y-77238860D01*
X164945060Y-77236320D01*
X164485320Y-77317600D01*
X164391340Y-77353160D01*
X164076380Y-77556360D01*
X163997640Y-77647800D01*
X163997640Y-76306680D01*
X163984940Y-76108560D01*
X163913820Y-76009500D01*
X163850320Y-75892660D01*
X163830000Y-75725020D01*
X163774120Y-75468480D01*
X163606480Y-75326240D01*
X163347400Y-75288140D01*
X163068000Y-75288140D01*
X163068000Y-75994260D01*
X163073080Y-76324460D01*
X163090860Y-76588620D01*
X163113720Y-76738480D01*
X163123880Y-76756260D01*
X163276280Y-76809600D01*
X163504880Y-76796900D01*
X163736020Y-76723240D01*
X163809680Y-76680060D01*
X163936680Y-76522580D01*
X163997640Y-76306680D01*
X163997640Y-77647800D01*
X163824920Y-77851000D01*
X163695380Y-78160880D01*
X163642040Y-78412340D01*
X163609020Y-78574900D01*
X163532820Y-78724760D01*
X163382960Y-78745080D01*
X163253420Y-78686660D01*
X163174680Y-78534260D01*
X163136580Y-78356460D01*
X162991800Y-77917040D01*
X162890200Y-77779880D01*
X162890200Y-75867260D01*
X162864800Y-75600560D01*
X162808920Y-75407520D01*
X162727640Y-75331320D01*
X162656520Y-75371960D01*
X162608260Y-75514200D01*
X162582860Y-75785980D01*
X162575240Y-75902820D01*
X162557460Y-76210160D01*
X162524440Y-76382880D01*
X162468560Y-76459080D01*
X162389820Y-76474320D01*
X162306000Y-76454000D01*
X162306000Y-74157840D01*
X162298380Y-73766680D01*
X162278060Y-73507600D01*
X162237420Y-73347580D01*
X162168840Y-73248520D01*
X162156140Y-73238360D01*
X161869120Y-73073260D01*
X161574480Y-73052940D01*
X161310320Y-73164700D01*
X161129980Y-73395840D01*
X161086800Y-73568560D01*
X161056320Y-73840340D01*
X161038540Y-74155300D01*
X161036000Y-74470260D01*
X161048700Y-74726800D01*
X161081720Y-74879200D01*
X161091880Y-74894440D01*
X161216340Y-74942700D01*
X161302700Y-74950320D01*
X161411920Y-74909680D01*
X161455100Y-74764900D01*
X161457640Y-74653140D01*
X161472880Y-74455020D01*
X161544000Y-74373740D01*
X161711640Y-74358500D01*
X161881820Y-74373740D01*
X161952940Y-74457560D01*
X161965640Y-74653140D01*
X161985960Y-74858880D01*
X162059620Y-74940160D01*
X162135820Y-74950320D01*
X162214560Y-74937620D01*
X162265360Y-74879200D01*
X162290760Y-74744580D01*
X162303460Y-74500740D01*
X162306000Y-74157840D01*
X162306000Y-76454000D01*
X162300920Y-76454000D01*
X162250120Y-76365100D01*
X162219640Y-76177140D01*
X162201860Y-75902820D01*
X162181540Y-75587860D01*
X162143440Y-75404980D01*
X162077400Y-75321160D01*
X162029140Y-75303380D01*
X161952940Y-75308460D01*
X161907220Y-75382120D01*
X161886900Y-75554840D01*
X161881820Y-75862180D01*
X161881820Y-75890120D01*
X161894520Y-76266040D01*
X161940240Y-76509880D01*
X162021520Y-76657200D01*
X162242500Y-76791820D01*
X162493960Y-76799440D01*
X162714940Y-76677520D01*
X162773360Y-76608940D01*
X162844480Y-76418440D01*
X162882580Y-76156820D01*
X162890200Y-75867260D01*
X162890200Y-77779880D01*
X162747960Y-77589380D01*
X162430460Y-77370940D01*
X162069780Y-77259180D01*
X161838640Y-77254100D01*
X161838640Y-76644500D01*
X161759900Y-76537820D01*
X161564320Y-76489560D01*
X161290000Y-76464160D01*
X161290000Y-75869800D01*
X161284920Y-75557380D01*
X161262060Y-75382120D01*
X161218880Y-75308460D01*
X161140140Y-75303380D01*
X161061400Y-75346560D01*
X161010600Y-75463400D01*
X160982660Y-75686920D01*
X160967420Y-75958700D01*
X160959800Y-76281280D01*
X160967420Y-76545440D01*
X160985200Y-76697840D01*
X160987740Y-76702920D01*
X161091880Y-76776580D01*
X161287460Y-76807060D01*
X161516060Y-76796900D01*
X161719260Y-76748640D01*
X161831020Y-76672440D01*
X161838640Y-76644500D01*
X161838640Y-77254100D01*
X161688780Y-77254100D01*
X161320480Y-77355700D01*
X160990280Y-77563980D01*
X160853120Y-77724000D01*
X160853120Y-74302620D01*
X160848040Y-73868280D01*
X160845500Y-73827640D01*
X160789620Y-73517760D01*
X160682940Y-73309480D01*
X160576260Y-73197720D01*
X160314640Y-73035160D01*
X160070800Y-73030080D01*
X159814260Y-73187560D01*
X159806640Y-73192640D01*
X159628840Y-73444100D01*
X159532320Y-73789540D01*
X159517080Y-74173080D01*
X159583120Y-74538840D01*
X159730440Y-74828400D01*
X159768540Y-74869040D01*
X160012380Y-75006200D01*
X160301940Y-75018900D01*
X160561020Y-74909680D01*
X160609280Y-74866500D01*
X160776920Y-74625200D01*
X160853120Y-74302620D01*
X160853120Y-77724000D01*
X160807400Y-77779880D01*
X160807400Y-75852020D01*
X160799780Y-75664060D01*
X160693100Y-75458320D01*
X160522920Y-75305920D01*
X160474660Y-75283060D01*
X160248600Y-75270360D01*
X160093660Y-75318620D01*
X159981900Y-75394820D01*
X159918400Y-75509120D01*
X159882840Y-75712320D01*
X159867600Y-75979020D01*
X159865060Y-76321920D01*
X159898080Y-76537820D01*
X159971740Y-76669900D01*
X159979360Y-76674980D01*
X160205420Y-76796900D01*
X160472120Y-76786740D01*
X160634680Y-76708000D01*
X160756600Y-76553060D01*
X160802320Y-76367640D01*
X160766760Y-76212700D01*
X160685480Y-76156820D01*
X160553400Y-76202540D01*
X160502600Y-76306680D01*
X160416240Y-76459080D01*
X160301940Y-76471780D01*
X160192720Y-76362560D01*
X160124140Y-76154280D01*
X160119060Y-76108560D01*
X160129220Y-75834240D01*
X160200340Y-75653900D01*
X160314640Y-75592940D01*
X160411160Y-75636120D01*
X160512760Y-75780900D01*
X160528000Y-75849480D01*
X160583880Y-75948540D01*
X160703260Y-75953620D01*
X160802320Y-75862180D01*
X160807400Y-75852020D01*
X160807400Y-77779880D01*
X160726120Y-77876400D01*
X160555940Y-78292960D01*
X160530540Y-78419960D01*
X160461960Y-78640940D01*
X160337500Y-78734920D01*
X160301940Y-78742540D01*
X160177480Y-78732380D01*
X160106360Y-78625700D01*
X160063180Y-78440280D01*
X159913320Y-77978000D01*
X159646620Y-77597000D01*
X159405320Y-77403960D01*
X159364680Y-77378560D01*
X159364680Y-74785220D01*
X159362140Y-74569320D01*
X159349440Y-74256900D01*
X159344360Y-73911460D01*
X159344360Y-73845420D01*
X159291020Y-73477120D01*
X159120840Y-73233280D01*
X158836360Y-73111360D01*
X158567120Y-73103740D01*
X158198820Y-73129140D01*
X158173420Y-74046080D01*
X158165800Y-74447400D01*
X158165800Y-74711560D01*
X158181040Y-74861420D01*
X158219140Y-74927460D01*
X158282640Y-74942700D01*
X158343600Y-74935080D01*
X158440120Y-74909680D01*
X158498540Y-74843640D01*
X158531560Y-74701400D01*
X158551880Y-74447400D01*
X158562040Y-74208640D01*
X158577280Y-73863200D01*
X158602680Y-73654920D01*
X158643320Y-73550780D01*
X158709360Y-73512680D01*
X158752540Y-73510140D01*
X158879540Y-73573640D01*
X158920180Y-73710800D01*
X158866840Y-73850500D01*
X158790640Y-73903840D01*
X158681420Y-74015600D01*
X158683960Y-74183240D01*
X158793180Y-74333100D01*
X158833820Y-74358500D01*
X158976060Y-74523600D01*
X159004000Y-74703940D01*
X159021780Y-74884280D01*
X159105600Y-74940160D01*
X159194500Y-74935080D01*
X159316420Y-74894440D01*
X159364680Y-74785220D01*
X159364680Y-77378560D01*
X159212280Y-77294740D01*
X159080200Y-77238860D01*
X159067500Y-77236320D01*
X159054800Y-77317600D01*
X159044640Y-77556360D01*
X159034480Y-77934820D01*
X159026860Y-78437740D01*
X159019240Y-79054960D01*
X159011620Y-79768700D01*
X159006540Y-80566260D01*
X159004000Y-81432400D01*
X159004000Y-82354420D01*
X159004000Y-82550000D01*
X159004000Y-83632040D01*
X159004000Y-84556600D01*
X159006540Y-85338920D01*
X159009080Y-85991700D01*
X159014160Y-86525100D01*
X159021780Y-86956900D01*
X159031940Y-87294720D01*
X159044640Y-87553800D01*
X159059880Y-87746840D01*
X159080200Y-87886540D01*
X159103060Y-87988140D01*
X159131000Y-88061800D01*
X159161480Y-88122760D01*
X159377380Y-88356440D01*
X159677100Y-88549480D01*
X159986980Y-88656160D01*
X160088580Y-88666320D01*
X160418780Y-88602820D01*
X160754060Y-88440260D01*
X160929320Y-88305640D01*
X161155380Y-87985600D01*
X161234120Y-87586820D01*
X161160460Y-87114380D01*
X161147760Y-87073740D01*
X161069020Y-86753700D01*
X161074100Y-86568280D01*
X161091880Y-86542880D01*
X161234120Y-86487000D01*
X161378900Y-86570820D01*
X161513520Y-86761320D01*
X161622740Y-87025480D01*
X161688780Y-87335360D01*
X161693860Y-87660480D01*
X161691320Y-87693500D01*
X161566860Y-88140540D01*
X161317940Y-88544400D01*
X160982660Y-88851740D01*
X160868360Y-88917780D01*
X160467040Y-89047320D01*
X160012380Y-89082880D01*
X159585660Y-89014300D01*
X159466280Y-88971120D01*
X159164020Y-88770460D01*
X158879540Y-88468200D01*
X158879540Y-76182220D01*
X158856680Y-75765660D01*
X158775400Y-75496420D01*
X158620460Y-75346560D01*
X158376620Y-75300840D01*
X158257240Y-75305920D01*
X157944820Y-75331320D01*
X157919420Y-75953620D01*
X157924500Y-76354940D01*
X157970220Y-76631800D01*
X158056580Y-76771500D01*
X158165800Y-76763880D01*
X158203900Y-76662280D01*
X158231840Y-76438760D01*
X158242000Y-76172060D01*
X158249620Y-75862180D01*
X158282640Y-75692000D01*
X158343600Y-75628500D01*
X158363920Y-75628500D01*
X158513780Y-75684380D01*
X158546800Y-75811380D01*
X158465520Y-75925680D01*
X158338520Y-76078080D01*
X158371540Y-76222860D01*
X158445200Y-76278740D01*
X158546800Y-76408280D01*
X158592520Y-76558140D01*
X158658560Y-76720700D01*
X158750000Y-76771500D01*
X158818580Y-76733400D01*
X158859220Y-76606400D01*
X158877000Y-76354940D01*
X158879540Y-76182220D01*
X158879540Y-88468200D01*
X158661100Y-88122760D01*
X158584900Y-87927180D01*
X158564580Y-87764620D01*
X158546800Y-87434420D01*
X158529020Y-86946740D01*
X158516320Y-86299040D01*
X158508700Y-85496400D01*
X158501080Y-84546440D01*
X158496000Y-83451700D01*
X158496000Y-82423000D01*
X158493460Y-81500980D01*
X158490920Y-80634840D01*
X158488380Y-79832200D01*
X158483300Y-79113380D01*
X158478220Y-78488540D01*
X158473140Y-77975460D01*
X158465520Y-77584300D01*
X158457900Y-77332840D01*
X158447740Y-77236320D01*
X158302960Y-77284580D01*
X158094680Y-77403960D01*
X157901640Y-77541120D01*
X157901640Y-74157840D01*
X157896560Y-73766680D01*
X157876240Y-73507600D01*
X157833060Y-73347580D01*
X157764480Y-73248520D01*
X157754320Y-73238360D01*
X157467300Y-73073260D01*
X157170120Y-73052940D01*
X156908500Y-73164700D01*
X156725620Y-73395840D01*
X156682440Y-73568560D01*
X156651960Y-73840340D01*
X156634180Y-74155300D01*
X156634180Y-74470260D01*
X156646880Y-74726800D01*
X156679900Y-74879200D01*
X156687520Y-74894440D01*
X156811980Y-74942700D01*
X156900880Y-74950320D01*
X157007560Y-74909680D01*
X157050740Y-74764900D01*
X157055820Y-74653140D01*
X157071060Y-74452480D01*
X157142180Y-74371200D01*
X157266640Y-74358500D01*
X157434280Y-74399140D01*
X157480000Y-74518520D01*
X157523180Y-74792840D01*
X157655260Y-74932540D01*
X157741620Y-74950320D01*
X157817820Y-74935080D01*
X157863540Y-74871580D01*
X157888940Y-74724260D01*
X157899100Y-74465180D01*
X157901640Y-74157840D01*
X157901640Y-77541120D01*
X157888940Y-77551280D01*
X157802580Y-77630020D01*
X157802580Y-76621640D01*
X157782260Y-76514960D01*
X157647640Y-76476860D01*
X157568900Y-76474320D01*
X157380940Y-76448920D01*
X157312360Y-76352400D01*
X157309820Y-76309220D01*
X157380940Y-76164440D01*
X157500320Y-76118720D01*
X157647640Y-76050140D01*
X157690820Y-75966320D01*
X157617160Y-75857100D01*
X157500320Y-75811380D01*
X157337760Y-75758040D01*
X157330140Y-75684380D01*
X157472380Y-75623420D01*
X157543500Y-75610720D01*
X157731460Y-75549760D01*
X157777180Y-75448160D01*
X157683200Y-75354180D01*
X157495240Y-75303380D01*
X157238700Y-75311000D01*
X157078680Y-75404980D01*
X156994860Y-75613260D01*
X156972000Y-75961240D01*
X156972000Y-75991720D01*
X157002480Y-76393040D01*
X157106620Y-76652120D01*
X157289500Y-76781660D01*
X157515560Y-76794360D01*
X157731460Y-76728320D01*
X157802580Y-76621640D01*
X157802580Y-77630020D01*
X157782260Y-77650340D01*
X157662880Y-77833220D01*
X157535880Y-78102460D01*
X157472380Y-78272640D01*
X157340300Y-78577440D01*
X157213300Y-78714600D01*
X157091380Y-78684120D01*
X156982160Y-78486000D01*
X156928820Y-78313280D01*
X156880560Y-78196440D01*
X156880560Y-76456540D01*
X156806900Y-76166980D01*
X156718000Y-76029820D01*
X156611320Y-75872340D01*
X156613860Y-75773280D01*
X156674820Y-75709780D01*
X156776420Y-75565000D01*
X156794200Y-75407520D01*
X156733240Y-75300840D01*
X156682440Y-75288140D01*
X156552900Y-75351640D01*
X156420820Y-75483720D01*
X156420820Y-73891140D01*
X156039820Y-73891140D01*
X155780740Y-73924160D01*
X155656280Y-74005440D01*
X155676600Y-74114660D01*
X155851860Y-74228960D01*
X155994100Y-74350880D01*
X156001720Y-74488040D01*
X155874720Y-74587100D01*
X155836620Y-74597260D01*
X155674060Y-74574400D01*
X155577540Y-74424540D01*
X155534360Y-74127360D01*
X155531820Y-74007980D01*
X155564840Y-73680320D01*
X155658820Y-73499980D01*
X155806140Y-73472040D01*
X155994100Y-73591420D01*
X156184600Y-73715880D01*
X156319220Y-73698100D01*
X156377640Y-73538080D01*
X156377640Y-73512680D01*
X156309060Y-73345040D01*
X156141420Y-73169780D01*
X155935680Y-73040240D01*
X155785820Y-73002140D01*
X155534360Y-73080880D01*
X155318460Y-73289160D01*
X155176220Y-73588880D01*
X155145740Y-73723500D01*
X155127960Y-74168000D01*
X155204160Y-74538840D01*
X155356560Y-74823320D01*
X155567380Y-74998580D01*
X155823920Y-75049380D01*
X156103320Y-74955400D01*
X156215080Y-74876660D01*
X156342080Y-74731880D01*
X156400500Y-74521060D01*
X156413200Y-74305160D01*
X156420820Y-73891140D01*
X156420820Y-75483720D01*
X156400500Y-75504040D01*
X156387800Y-75521820D01*
X156215080Y-75755500D01*
X156212540Y-75521820D01*
X156169360Y-75336400D01*
X156083000Y-75288140D01*
X156016960Y-75318620D01*
X155978860Y-75432920D01*
X155958540Y-75656440D01*
X155956000Y-75994260D01*
X155961080Y-76324460D01*
X155976320Y-76586080D01*
X155999180Y-76735940D01*
X156009340Y-76753720D01*
X156108400Y-76781660D01*
X156179520Y-76664820D01*
X156207460Y-76433680D01*
X156210000Y-76426060D01*
X156225240Y-76233020D01*
X156268420Y-76136500D01*
X156276040Y-76136500D01*
X156418280Y-76207620D01*
X156522420Y-76382880D01*
X156547820Y-76527660D01*
X156588460Y-76708000D01*
X156684980Y-76789280D01*
X156794200Y-76741020D01*
X156809440Y-76718160D01*
X156880560Y-76456540D01*
X156880560Y-78196440D01*
X156740860Y-77863700D01*
X156448760Y-77525880D01*
X156077920Y-77312520D01*
X155768040Y-77254100D01*
X155768040Y-76321920D01*
X155681680Y-76182220D01*
X155549600Y-76161900D01*
X155437840Y-76258420D01*
X155422600Y-76301600D01*
X155331160Y-76441300D01*
X155242260Y-76474320D01*
X155158440Y-76433680D01*
X155117800Y-76291440D01*
X155107640Y-76065380D01*
X155117800Y-75816460D01*
X155143200Y-75643740D01*
X155158440Y-75605640D01*
X155275280Y-75577700D01*
X155394660Y-75664060D01*
X155448000Y-75811380D01*
X155496260Y-75940920D01*
X155592780Y-75951080D01*
X155737560Y-75859640D01*
X155755340Y-75694540D01*
X155646120Y-75488800D01*
X155577540Y-75412600D01*
X155336240Y-75257660D01*
X155084780Y-75270360D01*
X154876500Y-75394820D01*
X154802840Y-75539600D01*
X154769820Y-75791060D01*
X154769820Y-76088240D01*
X154805380Y-76377800D01*
X154871420Y-76598780D01*
X154909520Y-76657200D01*
X155130500Y-76791820D01*
X155389580Y-76781660D01*
X155620720Y-76636880D01*
X155740100Y-76466700D01*
X155768040Y-76321920D01*
X155768040Y-77254100D01*
X155656280Y-77236320D01*
X155211780Y-77309980D01*
X155056840Y-77373480D01*
X154701240Y-77632560D01*
X154592020Y-77800200D01*
X154592020Y-75867260D01*
X154559000Y-75600560D01*
X154475180Y-75427840D01*
X154327860Y-75316080D01*
X154289760Y-75298300D01*
X154104340Y-75239880D01*
X153946860Y-75285600D01*
X153842720Y-75356720D01*
X153720800Y-75471020D01*
X153649680Y-75620880D01*
X153614120Y-75854560D01*
X153601420Y-76050140D01*
X153593800Y-76349860D01*
X153603960Y-76591160D01*
X153621740Y-76705460D01*
X153708100Y-76796900D01*
X153812240Y-76756260D01*
X153893520Y-76608940D01*
X153906220Y-76530200D01*
X153979880Y-76347320D01*
X154104340Y-76296520D01*
X154221180Y-76372720D01*
X154277060Y-76537820D01*
X154338020Y-76715620D01*
X154432000Y-76771500D01*
X154508200Y-76725780D01*
X154556460Y-76568300D01*
X154584400Y-76273660D01*
X154584400Y-76266040D01*
X154592020Y-75867260D01*
X154592020Y-77800200D01*
X154459940Y-78008480D01*
X154360880Y-78353920D01*
X154269440Y-78625700D01*
X154132280Y-78755240D01*
X153992580Y-78742540D01*
X153880820Y-78592680D01*
X153840180Y-78328520D01*
X153766520Y-78044040D01*
X153578560Y-77746860D01*
X153416000Y-77586840D01*
X153416000Y-75996800D01*
X153410920Y-75646280D01*
X153395680Y-75435460D01*
X153362660Y-75328780D01*
X153304240Y-75300840D01*
X153266140Y-75303380D01*
X153139140Y-75407520D01*
X153090880Y-75565000D01*
X153035000Y-75732640D01*
X152948640Y-75796140D01*
X152857200Y-75722480D01*
X152806400Y-75565000D01*
X152735280Y-75371960D01*
X152631140Y-75303380D01*
X152560020Y-75308460D01*
X152514300Y-75374500D01*
X152491440Y-75531980D01*
X152483820Y-75816460D01*
X152483820Y-75989180D01*
X152488900Y-76319380D01*
X152506680Y-76586080D01*
X152532080Y-76738480D01*
X152542240Y-76758800D01*
X152659080Y-76799440D01*
X152753060Y-76690220D01*
X152803860Y-76456540D01*
X152806400Y-76446380D01*
X152857200Y-76230480D01*
X152943560Y-76131420D01*
X153029920Y-76159360D01*
X153075640Y-76321920D01*
X153078180Y-76367640D01*
X153111200Y-76611480D01*
X153195020Y-76761340D01*
X153306780Y-76784200D01*
X153319480Y-76776580D01*
X153370280Y-76662280D01*
X153400760Y-76408280D01*
X153413460Y-76039980D01*
X153416000Y-75996800D01*
X153416000Y-77586840D01*
X153314400Y-77490320D01*
X153162000Y-77393800D01*
X152730200Y-77249020D01*
X152303480Y-77256640D01*
X151909780Y-77409040D01*
X151577040Y-77685900D01*
X151335740Y-78077060D01*
X151254460Y-78313280D01*
X151170640Y-78572360D01*
X151074120Y-78696820D01*
X150992840Y-78717140D01*
X150878540Y-78640940D01*
X150815040Y-78427580D01*
X150804880Y-78102460D01*
X150848060Y-77690980D01*
X150914100Y-77363320D01*
X151175720Y-76578460D01*
X151587200Y-75801220D01*
X152130760Y-75054460D01*
X152788620Y-74366120D01*
X153324560Y-73916540D01*
X153987500Y-73477120D01*
X154749500Y-73073260D01*
X155564840Y-72720200D01*
X156387800Y-72440800D01*
X157167580Y-72255380D01*
X157576520Y-72199500D01*
X157975300Y-72158860D01*
X158239460Y-72120760D01*
X158394400Y-72052180D01*
X158470600Y-71930260D01*
X158501080Y-71727060D01*
X158511240Y-71417180D01*
X158511240Y-71371460D01*
X158526480Y-71031100D01*
X158549340Y-70822820D01*
X158587440Y-70718680D01*
X158656020Y-70678040D01*
X158750000Y-70675500D01*
X158851600Y-70683120D01*
X158917640Y-70728840D01*
X158953200Y-70845680D01*
X158973520Y-71071740D01*
X158986220Y-71371460D01*
X158996380Y-71696580D01*
X159021780Y-71909940D01*
X159090360Y-72039480D01*
X159235140Y-72113140D01*
X159484060Y-72156320D01*
X159867600Y-72194420D01*
X159920940Y-72199500D01*
X160472120Y-72285860D01*
X161109660Y-72443340D01*
X161764980Y-72651620D01*
X162384740Y-72892920D01*
X162521900Y-72953880D01*
X163535360Y-73499980D01*
X164431980Y-74140060D01*
X165196520Y-74863960D01*
X165821360Y-75666600D01*
X166278560Y-76487020D01*
X166451280Y-76926440D01*
X166580820Y-77373480D01*
X166664640Y-77797660D01*
X166700200Y-78171040D01*
G37*
X166700200Y-78171040D02*
X166684960Y-78468220D01*
X166613840Y-78658720D01*
X166504620Y-78717140D01*
X166390320Y-78671420D01*
X166301420Y-78508860D01*
X166243000Y-78313280D01*
X166052500Y-77861160D01*
X165755320Y-77520800D01*
X165379400Y-77309980D01*
X164973000Y-77238860D01*
X164973000Y-76644500D01*
X164896800Y-76537820D01*
X164719000Y-76474320D01*
X164515800Y-76398120D01*
X164434520Y-76283820D01*
X164482780Y-76177140D01*
X164650420Y-76121260D01*
X164838380Y-76052680D01*
X164884100Y-75946000D01*
X164790120Y-75846940D01*
X164655500Y-75811380D01*
X164465000Y-75758040D01*
X164434520Y-75686920D01*
X164556440Y-75633580D01*
X164665660Y-75628500D01*
X164856160Y-75582780D01*
X164970460Y-75481180D01*
X164970460Y-75364340D01*
X164952680Y-75338940D01*
X164840920Y-75303380D01*
X164637720Y-75288140D01*
X164619940Y-75288140D01*
X164340540Y-75354180D01*
X164165280Y-75554840D01*
X164094160Y-75885040D01*
X164104320Y-76151740D01*
X164170360Y-76499720D01*
X164294820Y-76695300D01*
X164304980Y-76702920D01*
X164490400Y-76779120D01*
X164703760Y-76794360D01*
X164884100Y-76751180D01*
X164970460Y-76657200D01*
X164973000Y-76644500D01*
X164973000Y-77238860D01*
X164945060Y-77236320D01*
X164485320Y-77317600D01*
X164391340Y-77353160D01*
X164076380Y-77556360D01*
X163997640Y-77647800D01*
X163997640Y-76306680D01*
X163984940Y-76108560D01*
X163913820Y-76009500D01*
X163850320Y-75892660D01*
X163830000Y-75725020D01*
X163774120Y-75468480D01*
X163606480Y-75326240D01*
X163347400Y-75288140D01*
X163068000Y-75288140D01*
X163068000Y-75994260D01*
X163073080Y-76324460D01*
X163090860Y-76588620D01*
X163113720Y-76738480D01*
X163123880Y-76756260D01*
X163276280Y-76809600D01*
X163504880Y-76796900D01*
X163736020Y-76723240D01*
X163809680Y-76680060D01*
X163936680Y-76522580D01*
X163997640Y-76306680D01*
X163997640Y-77647800D01*
X163824920Y-77851000D01*
X163695380Y-78160880D01*
X163642040Y-78412340D01*
X163609020Y-78574900D01*
X163532820Y-78724760D01*
X163382960Y-78745080D01*
X163253420Y-78686660D01*
X163174680Y-78534260D01*
X163136580Y-78356460D01*
X162991800Y-77917040D01*
X162890200Y-77779880D01*
X162890200Y-75867260D01*
X162864800Y-75600560D01*
X162808920Y-75407520D01*
X162727640Y-75331320D01*
X162656520Y-75371960D01*
X162608260Y-75514200D01*
X162582860Y-75785980D01*
X162575240Y-75902820D01*
X162557460Y-76210160D01*
X162524440Y-76382880D01*
X162468560Y-76459080D01*
X162389820Y-76474320D01*
X162306000Y-76454000D01*
X162306000Y-74157840D01*
X162298380Y-73766680D01*
X162278060Y-73507600D01*
X162237420Y-73347580D01*
X162168840Y-73248520D01*
X162156140Y-73238360D01*
X161869120Y-73073260D01*
X161574480Y-73052940D01*
X161310320Y-73164700D01*
X161129980Y-73395840D01*
X161086800Y-73568560D01*
X161056320Y-73840340D01*
X161038540Y-74155300D01*
X161036000Y-74470260D01*
X161048700Y-74726800D01*
X161081720Y-74879200D01*
X161091880Y-74894440D01*
X161216340Y-74942700D01*
X161302700Y-74950320D01*
X161411920Y-74909680D01*
X161455100Y-74764900D01*
X161457640Y-74653140D01*
X161472880Y-74455020D01*
X161544000Y-74373740D01*
X161711640Y-74358500D01*
X161881820Y-74373740D01*
X161952940Y-74457560D01*
X161965640Y-74653140D01*
X161985960Y-74858880D01*
X162059620Y-74940160D01*
X162135820Y-74950320D01*
X162214560Y-74937620D01*
X162265360Y-74879200D01*
X162290760Y-74744580D01*
X162303460Y-74500740D01*
X162306000Y-74157840D01*
X162306000Y-76454000D01*
X162300920Y-76454000D01*
X162250120Y-76365100D01*
X162219640Y-76177140D01*
X162201860Y-75902820D01*
X162181540Y-75587860D01*
X162143440Y-75404980D01*
X162077400Y-75321160D01*
X162029140Y-75303380D01*
X161952940Y-75308460D01*
X161907220Y-75382120D01*
X161886900Y-75554840D01*
X161881820Y-75862180D01*
X161881820Y-75890120D01*
X161894520Y-76266040D01*
X161940240Y-76509880D01*
X162021520Y-76657200D01*
X162242500Y-76791820D01*
X162493960Y-76799440D01*
X162714940Y-76677520D01*
X162773360Y-76608940D01*
X162844480Y-76418440D01*
X162882580Y-76156820D01*
X162890200Y-75867260D01*
X162890200Y-77779880D01*
X162747960Y-77589380D01*
X162430460Y-77370940D01*
X162069780Y-77259180D01*
X161838640Y-77254100D01*
X161838640Y-76644500D01*
X161759900Y-76537820D01*
X161564320Y-76489560D01*
X161290000Y-76464160D01*
X161290000Y-75869800D01*
X161284920Y-75557380D01*
X161262060Y-75382120D01*
X161218880Y-75308460D01*
X161140140Y-75303380D01*
X161061400Y-75346560D01*
X161010600Y-75463400D01*
X160982660Y-75686920D01*
X160967420Y-75958700D01*
X160959800Y-76281280D01*
X160967420Y-76545440D01*
X160985200Y-76697840D01*
X160987740Y-76702920D01*
X161091880Y-76776580D01*
X161287460Y-76807060D01*
X161516060Y-76796900D01*
X161719260Y-76748640D01*
X161831020Y-76672440D01*
X161838640Y-76644500D01*
X161838640Y-77254100D01*
X161688780Y-77254100D01*
X161320480Y-77355700D01*
X160990280Y-77563980D01*
X160853120Y-77724000D01*
X160853120Y-74302620D01*
X160848040Y-73868280D01*
X160845500Y-73827640D01*
X160789620Y-73517760D01*
X160682940Y-73309480D01*
X160576260Y-73197720D01*
X160314640Y-73035160D01*
X160070800Y-73030080D01*
X159814260Y-73187560D01*
X159806640Y-73192640D01*
X159628840Y-73444100D01*
X159532320Y-73789540D01*
X159517080Y-74173080D01*
X159583120Y-74538840D01*
X159730440Y-74828400D01*
X159768540Y-74869040D01*
X160012380Y-75006200D01*
X160301940Y-75018900D01*
X160561020Y-74909680D01*
X160609280Y-74866500D01*
X160776920Y-74625200D01*
X160853120Y-74302620D01*
X160853120Y-77724000D01*
X160807400Y-77779880D01*
X160807400Y-75852020D01*
X160799780Y-75664060D01*
X160693100Y-75458320D01*
X160522920Y-75305920D01*
X160474660Y-75283060D01*
X160248600Y-75270360D01*
X160093660Y-75318620D01*
X159981900Y-75394820D01*
X159918400Y-75509120D01*
X159882840Y-75712320D01*
X159867600Y-75979020D01*
X159865060Y-76321920D01*
X159898080Y-76537820D01*
X159971740Y-76669900D01*
X159979360Y-76674980D01*
X160205420Y-76796900D01*
X160472120Y-76786740D01*
X160634680Y-76708000D01*
X160756600Y-76553060D01*
X160802320Y-76367640D01*
X160766760Y-76212700D01*
X160685480Y-76156820D01*
X160553400Y-76202540D01*
X160502600Y-76306680D01*
X160416240Y-76459080D01*
X160301940Y-76471780D01*
X160192720Y-76362560D01*
X160124140Y-76154280D01*
X160119060Y-76108560D01*
X160129220Y-75834240D01*
X160200340Y-75653900D01*
X160314640Y-75592940D01*
X160411160Y-75636120D01*
X160512760Y-75780900D01*
X160528000Y-75849480D01*
X160583880Y-75948540D01*
X160703260Y-75953620D01*
X160802320Y-75862180D01*
X160807400Y-75852020D01*
X160807400Y-77779880D01*
X160726120Y-77876400D01*
X160555940Y-78292960D01*
X160530540Y-78419960D01*
X160461960Y-78640940D01*
X160337500Y-78734920D01*
X160301940Y-78742540D01*
X160177480Y-78732380D01*
X160106360Y-78625700D01*
X160063180Y-78440280D01*
X159913320Y-77978000D01*
X159646620Y-77597000D01*
X159405320Y-77403960D01*
X159364680Y-77378560D01*
X159364680Y-74785220D01*
X159362140Y-74569320D01*
X159349440Y-74256900D01*
X159344360Y-73911460D01*
X159344360Y-73845420D01*
X159291020Y-73477120D01*
X159120840Y-73233280D01*
X158836360Y-73111360D01*
X158567120Y-73103740D01*
X158198820Y-73129140D01*
X158173420Y-74046080D01*
X158165800Y-74447400D01*
X158165800Y-74711560D01*
X158181040Y-74861420D01*
X158219140Y-74927460D01*
X158282640Y-74942700D01*
X158343600Y-74935080D01*
X158440120Y-74909680D01*
X158498540Y-74843640D01*
X158531560Y-74701400D01*
X158551880Y-74447400D01*
X158562040Y-74208640D01*
X158577280Y-73863200D01*
X158602680Y-73654920D01*
X158643320Y-73550780D01*
X158709360Y-73512680D01*
X158752540Y-73510140D01*
X158879540Y-73573640D01*
X158920180Y-73710800D01*
X158866840Y-73850500D01*
X158790640Y-73903840D01*
X158681420Y-74015600D01*
X158683960Y-74183240D01*
X158793180Y-74333100D01*
X158833820Y-74358500D01*
X158976060Y-74523600D01*
X159004000Y-74703940D01*
X159021780Y-74884280D01*
X159105600Y-74940160D01*
X159194500Y-74935080D01*
X159316420Y-74894440D01*
X159364680Y-74785220D01*
X159364680Y-77378560D01*
X159212280Y-77294740D01*
X159080200Y-77238860D01*
X159067500Y-77236320D01*
X159054800Y-77317600D01*
X159044640Y-77556360D01*
X159034480Y-77934820D01*
X159026860Y-78437740D01*
X159019240Y-79054960D01*
X159011620Y-79768700D01*
X159006540Y-80566260D01*
X159004000Y-81432400D01*
X159004000Y-82354420D01*
X159004000Y-82550000D01*
X159004000Y-83632040D01*
X159004000Y-84556600D01*
X159006540Y-85338920D01*
X159009080Y-85991700D01*
X159014160Y-86525100D01*
X159021780Y-86956900D01*
X159031940Y-87294720D01*
X159044640Y-87553800D01*
X159059880Y-87746840D01*
X159080200Y-87886540D01*
X159103060Y-87988140D01*
X159131000Y-88061800D01*
X159161480Y-88122760D01*
X159377380Y-88356440D01*
X159677100Y-88549480D01*
X159986980Y-88656160D01*
X160088580Y-88666320D01*
X160418780Y-88602820D01*
X160754060Y-88440260D01*
X160929320Y-88305640D01*
X161155380Y-87985600D01*
X161234120Y-87586820D01*
X161160460Y-87114380D01*
X161147760Y-87073740D01*
X161069020Y-86753700D01*
X161074100Y-86568280D01*
X161091880Y-86542880D01*
X161234120Y-86487000D01*
X161378900Y-86570820D01*
X161513520Y-86761320D01*
X161622740Y-87025480D01*
X161688780Y-87335360D01*
X161693860Y-87660480D01*
X161691320Y-87693500D01*
X161566860Y-88140540D01*
X161317940Y-88544400D01*
X160982660Y-88851740D01*
X160868360Y-88917780D01*
X160467040Y-89047320D01*
X160012380Y-89082880D01*
X159585660Y-89014300D01*
X159466280Y-88971120D01*
X159164020Y-88770460D01*
X158879540Y-88468200D01*
X158879540Y-76182220D01*
X158856680Y-75765660D01*
X158775400Y-75496420D01*
X158620460Y-75346560D01*
X158376620Y-75300840D01*
X158257240Y-75305920D01*
X157944820Y-75331320D01*
X157919420Y-75953620D01*
X157924500Y-76354940D01*
X157970220Y-76631800D01*
X158056580Y-76771500D01*
X158165800Y-76763880D01*
X158203900Y-76662280D01*
X158231840Y-76438760D01*
X158242000Y-76172060D01*
X158249620Y-75862180D01*
X158282640Y-75692000D01*
X158343600Y-75628500D01*
X158363920Y-75628500D01*
X158513780Y-75684380D01*
X158546800Y-75811380D01*
X158465520Y-75925680D01*
X158338520Y-76078080D01*
X158371540Y-76222860D01*
X158445200Y-76278740D01*
X158546800Y-76408280D01*
X158592520Y-76558140D01*
X158658560Y-76720700D01*
X158750000Y-76771500D01*
X158818580Y-76733400D01*
X158859220Y-76606400D01*
X158877000Y-76354940D01*
X158879540Y-76182220D01*
X158879540Y-88468200D01*
X158661100Y-88122760D01*
X158584900Y-87927180D01*
X158564580Y-87764620D01*
X158546800Y-87434420D01*
X158529020Y-86946740D01*
X158516320Y-86299040D01*
X158508700Y-85496400D01*
X158501080Y-84546440D01*
X158496000Y-83451700D01*
X158496000Y-82423000D01*
X158493460Y-81500980D01*
X158490920Y-80634840D01*
X158488380Y-79832200D01*
X158483300Y-79113380D01*
X158478220Y-78488540D01*
X158473140Y-77975460D01*
X158465520Y-77584300D01*
X158457900Y-77332840D01*
X158447740Y-77236320D01*
X158302960Y-77284580D01*
X158094680Y-77403960D01*
X157901640Y-77541120D01*
X157901640Y-74157840D01*
X157896560Y-73766680D01*
X157876240Y-73507600D01*
X157833060Y-73347580D01*
X157764480Y-73248520D01*
X157754320Y-73238360D01*
X157467300Y-73073260D01*
X157170120Y-73052940D01*
X156908500Y-73164700D01*
X156725620Y-73395840D01*
X156682440Y-73568560D01*
X156651960Y-73840340D01*
X156634180Y-74155300D01*
X156634180Y-74470260D01*
X156646880Y-74726800D01*
X156679900Y-74879200D01*
X156687520Y-74894440D01*
X156811980Y-74942700D01*
X156900880Y-74950320D01*
X157007560Y-74909680D01*
X157050740Y-74764900D01*
X157055820Y-74653140D01*
X157071060Y-74452480D01*
X157142180Y-74371200D01*
X157266640Y-74358500D01*
X157434280Y-74399140D01*
X157480000Y-74518520D01*
X157523180Y-74792840D01*
X157655260Y-74932540D01*
X157741620Y-74950320D01*
X157817820Y-74935080D01*
X157863540Y-74871580D01*
X157888940Y-74724260D01*
X157899100Y-74465180D01*
X157901640Y-74157840D01*
X157901640Y-77541120D01*
X157888940Y-77551280D01*
X157802580Y-77630020D01*
X157802580Y-76621640D01*
X157782260Y-76514960D01*
X157647640Y-76476860D01*
X157568900Y-76474320D01*
X157380940Y-76448920D01*
X157312360Y-76352400D01*
X157309820Y-76309220D01*
X157380940Y-76164440D01*
X157500320Y-76118720D01*
X157647640Y-76050140D01*
X157690820Y-75966320D01*
X157617160Y-75857100D01*
X157500320Y-75811380D01*
X157337760Y-75758040D01*
X157330140Y-75684380D01*
X157472380Y-75623420D01*
X157543500Y-75610720D01*
X157731460Y-75549760D01*
X157777180Y-75448160D01*
X157683200Y-75354180D01*
X157495240Y-75303380D01*
X157238700Y-75311000D01*
X157078680Y-75404980D01*
X156994860Y-75613260D01*
X156972000Y-75961240D01*
X156972000Y-75991720D01*
X157002480Y-76393040D01*
X157106620Y-76652120D01*
X157289500Y-76781660D01*
X157515560Y-76794360D01*
X157731460Y-76728320D01*
X157802580Y-76621640D01*
X157802580Y-77630020D01*
X157782260Y-77650340D01*
X157662880Y-77833220D01*
X157535880Y-78102460D01*
X157472380Y-78272640D01*
X157340300Y-78577440D01*
X157213300Y-78714600D01*
X157091380Y-78684120D01*
X156982160Y-78486000D01*
X156928820Y-78313280D01*
X156880560Y-78196440D01*
X156880560Y-76456540D01*
X156806900Y-76166980D01*
X156718000Y-76029820D01*
X156611320Y-75872340D01*
X156613860Y-75773280D01*
X156674820Y-75709780D01*
X156776420Y-75565000D01*
X156794200Y-75407520D01*
X156733240Y-75300840D01*
X156682440Y-75288140D01*
X156552900Y-75351640D01*
X156420820Y-75483720D01*
X156420820Y-73891140D01*
X156039820Y-73891140D01*
X155780740Y-73924160D01*
X155656280Y-74005440D01*
X155676600Y-74114660D01*
X155851860Y-74228960D01*
X155994100Y-74350880D01*
X156001720Y-74488040D01*
X155874720Y-74587100D01*
X155836620Y-74597260D01*
X155674060Y-74574400D01*
X155577540Y-74424540D01*
X155534360Y-74127360D01*
X155531820Y-74007980D01*
X155564840Y-73680320D01*
X155658820Y-73499980D01*
X155806140Y-73472040D01*
X155994100Y-73591420D01*
X156184600Y-73715880D01*
X156319220Y-73698100D01*
X156377640Y-73538080D01*
X156377640Y-73512680D01*
X156309060Y-73345040D01*
X156141420Y-73169780D01*
X155935680Y-73040240D01*
X155785820Y-73002140D01*
X155534360Y-73080880D01*
X155318460Y-73289160D01*
X155176220Y-73588880D01*
X155145740Y-73723500D01*
X155127960Y-74168000D01*
X155204160Y-74538840D01*
X155356560Y-74823320D01*
X155567380Y-74998580D01*
X155823920Y-75049380D01*
X156103320Y-74955400D01*
X156215080Y-74876660D01*
X156342080Y-74731880D01*
X156400500Y-74521060D01*
X156413200Y-74305160D01*
X156420820Y-73891140D01*
X156420820Y-75483720D01*
X156400500Y-75504040D01*
X156387800Y-75521820D01*
X156215080Y-75755500D01*
X156212540Y-75521820D01*
X156169360Y-75336400D01*
X156083000Y-75288140D01*
X156016960Y-75318620D01*
X155978860Y-75432920D01*
X155958540Y-75656440D01*
X155956000Y-75994260D01*
X155961080Y-76324460D01*
X155976320Y-76586080D01*
X155999180Y-76735940D01*
X156009340Y-76753720D01*
X156108400Y-76781660D01*
X156179520Y-76664820D01*
X156207460Y-76433680D01*
X156210000Y-76426060D01*
X156225240Y-76233020D01*
X156268420Y-76136500D01*
X156276040Y-76136500D01*
X156418280Y-76207620D01*
X156522420Y-76382880D01*
X156547820Y-76527660D01*
X156588460Y-76708000D01*
X156684980Y-76789280D01*
X156794200Y-76741020D01*
X156809440Y-76718160D01*
X156880560Y-76456540D01*
X156880560Y-78196440D01*
X156740860Y-77863700D01*
X156448760Y-77525880D01*
X156077920Y-77312520D01*
X155768040Y-77254100D01*
X155768040Y-76321920D01*
X155681680Y-76182220D01*
X155549600Y-76161900D01*
X155437840Y-76258420D01*
X155422600Y-76301600D01*
X155331160Y-76441300D01*
X155242260Y-76474320D01*
X155158440Y-76433680D01*
X155117800Y-76291440D01*
X155107640Y-76065380D01*
X155117800Y-75816460D01*
X155143200Y-75643740D01*
X155158440Y-75605640D01*
X155275280Y-75577700D01*
X155394660Y-75664060D01*
X155448000Y-75811380D01*
X155496260Y-75940920D01*
X155592780Y-75951080D01*
X155737560Y-75859640D01*
X155755340Y-75694540D01*
X155646120Y-75488800D01*
X155577540Y-75412600D01*
X155336240Y-75257660D01*
X155084780Y-75270360D01*
X154876500Y-75394820D01*
X154802840Y-75539600D01*
X154769820Y-75791060D01*
X154769820Y-76088240D01*
X154805380Y-76377800D01*
X154871420Y-76598780D01*
X154909520Y-76657200D01*
X155130500Y-76791820D01*
X155389580Y-76781660D01*
X155620720Y-76636880D01*
X155740100Y-76466700D01*
X155768040Y-76321920D01*
X155768040Y-77254100D01*
X155656280Y-77236320D01*
X155211780Y-77309980D01*
X155056840Y-77373480D01*
X154701240Y-77632560D01*
X154592020Y-77800200D01*
X154592020Y-75867260D01*
X154559000Y-75600560D01*
X154475180Y-75427840D01*
X154327860Y-75316080D01*
X154289760Y-75298300D01*
X154104340Y-75239880D01*
X153946860Y-75285600D01*
X153842720Y-75356720D01*
X153720800Y-75471020D01*
X153649680Y-75620880D01*
X153614120Y-75854560D01*
X153601420Y-76050140D01*
X153593800Y-76349860D01*
X153603960Y-76591160D01*
X153621740Y-76705460D01*
X153708100Y-76796900D01*
X153812240Y-76756260D01*
X153893520Y-76608940D01*
X153906220Y-76530200D01*
X153979880Y-76347320D01*
X154104340Y-76296520D01*
X154221180Y-76372720D01*
X154277060Y-76537820D01*
X154338020Y-76715620D01*
X154432000Y-76771500D01*
X154508200Y-76725780D01*
X154556460Y-76568300D01*
X154584400Y-76273660D01*
X154584400Y-76266040D01*
X154592020Y-75867260D01*
X154592020Y-77800200D01*
X154459940Y-78008480D01*
X154360880Y-78353920D01*
X154269440Y-78625700D01*
X154132280Y-78755240D01*
X153992580Y-78742540D01*
X153880820Y-78592680D01*
X153840180Y-78328520D01*
X153766520Y-78044040D01*
X153578560Y-77746860D01*
X153416000Y-77586840D01*
X153416000Y-75996800D01*
X153410920Y-75646280D01*
X153395680Y-75435460D01*
X153362660Y-75328780D01*
X153304240Y-75300840D01*
X153266140Y-75303380D01*
X153139140Y-75407520D01*
X153090880Y-75565000D01*
X153035000Y-75732640D01*
X152948640Y-75796140D01*
X152857200Y-75722480D01*
X152806400Y-75565000D01*
X152735280Y-75371960D01*
X152631140Y-75303380D01*
X152560020Y-75308460D01*
X152514300Y-75374500D01*
X152491440Y-75531980D01*
X152483820Y-75816460D01*
X152483820Y-75989180D01*
X152488900Y-76319380D01*
X152506680Y-76586080D01*
X152532080Y-76738480D01*
X152542240Y-76758800D01*
X152659080Y-76799440D01*
X152753060Y-76690220D01*
X152803860Y-76456540D01*
X152806400Y-76446380D01*
X152857200Y-76230480D01*
X152943560Y-76131420D01*
X153029920Y-76159360D01*
X153075640Y-76321920D01*
X153078180Y-76367640D01*
X153111200Y-76611480D01*
X153195020Y-76761340D01*
X153306780Y-76784200D01*
X153319480Y-76776580D01*
X153370280Y-76662280D01*
X153400760Y-76408280D01*
X153413460Y-76039980D01*
X153416000Y-75996800D01*
X153416000Y-77586840D01*
X153314400Y-77490320D01*
X153162000Y-77393800D01*
X152730200Y-77249020D01*
X152303480Y-77256640D01*
X151909780Y-77409040D01*
X151577040Y-77685900D01*
X151335740Y-78077060D01*
X151254460Y-78313280D01*
X151170640Y-78572360D01*
X151074120Y-78696820D01*
X150992840Y-78717140D01*
X150878540Y-78640940D01*
X150815040Y-78427580D01*
X150804880Y-78102460D01*
X150848060Y-77690980D01*
X150914100Y-77363320D01*
X151175720Y-76578460D01*
X151587200Y-75801220D01*
X152130760Y-75054460D01*
X152788620Y-74366120D01*
X153324560Y-73916540D01*
X153987500Y-73477120D01*
X154749500Y-73073260D01*
X155564840Y-72720200D01*
X156387800Y-72440800D01*
X157167580Y-72255380D01*
X157576520Y-72199500D01*
X157975300Y-72158860D01*
X158239460Y-72120760D01*
X158394400Y-72052180D01*
X158470600Y-71930260D01*
X158501080Y-71727060D01*
X158511240Y-71417180D01*
X158511240Y-71371460D01*
X158526480Y-71031100D01*
X158549340Y-70822820D01*
X158587440Y-70718680D01*
X158656020Y-70678040D01*
X158750000Y-70675500D01*
X158851600Y-70683120D01*
X158917640Y-70728840D01*
X158953200Y-70845680D01*
X158973520Y-71071740D01*
X158986220Y-71371460D01*
X158996380Y-71696580D01*
X159021780Y-71909940D01*
X159090360Y-72039480D01*
X159235140Y-72113140D01*
X159484060Y-72156320D01*
X159867600Y-72194420D01*
X159920940Y-72199500D01*
X160472120Y-72285860D01*
X161109660Y-72443340D01*
X161764980Y-72651620D01*
X162384740Y-72892920D01*
X162521900Y-72953880D01*
X163535360Y-73499980D01*
X164431980Y-74140060D01*
X165196520Y-74863960D01*
X165821360Y-75666600D01*
X166278560Y-76487020D01*
X166451280Y-76926440D01*
X166580820Y-77373480D01*
X166664640Y-77797660D01*
X166700200Y-78171040D01*
G36*
X150949660Y-75862180D02*
G01*
X150947120Y-75989180D01*
X150878540Y-76050140D01*
X150764240Y-75989180D01*
X150749000Y-75966320D01*
X150731220Y-75839320D01*
X150797260Y-75752960D01*
X150881080Y-75758040D01*
X150949660Y-75862180D01*
G37*
X150949660Y-75862180D02*
X150947120Y-75989180D01*
X150878540Y-76050140D01*
X150764240Y-75989180D01*
X150749000Y-75966320D01*
X150731220Y-75839320D01*
X150797260Y-75752960D01*
X150881080Y-75758040D01*
X150949660Y-75862180D01*
G36*
X166776400Y-75907900D02*
G01*
X166740840Y-76029820D01*
X166664640Y-76050140D01*
X166557960Y-75989180D01*
X166555420Y-75902820D01*
X166626540Y-75775820D01*
X166723060Y-75791060D01*
X166776400Y-75907900D01*
G37*
X166776400Y-75907900D02*
X166740840Y-76029820D01*
X166664640Y-76050140D01*
X166557960Y-75989180D01*
X166555420Y-75902820D01*
X166626540Y-75775820D01*
X166723060Y-75791060D01*
X166776400Y-75907900D01*
G36*
X151488140Y-74820780D02*
G01*
X151437340Y-74904600D01*
X151350980Y-74935080D01*
X151234140Y-74919840D01*
X151231600Y-74851260D01*
X151323040Y-74752200D01*
X151437340Y-74754740D01*
X151488140Y-74820780D01*
G37*
X151488140Y-74820780D02*
X151437340Y-74904600D01*
X151350980Y-74935080D01*
X151234140Y-74919840D01*
X151231600Y-74851260D01*
X151323040Y-74752200D01*
X151437340Y-74754740D01*
X151488140Y-74820780D01*
G36*
X166265860Y-74848720D02*
G01*
X166227760Y-74935080D01*
X166164260Y-74950320D01*
X166047420Y-74881740D01*
X166029640Y-74815700D01*
X166080440Y-74724260D01*
X166182040Y-74736960D01*
X166265860Y-74848720D01*
G37*
X166265860Y-74848720D02*
X166227760Y-74935080D01*
X166164260Y-74950320D01*
X166047420Y-74881740D01*
X166029640Y-74815700D01*
X166080440Y-74724260D01*
X166182040Y-74736960D01*
X166265860Y-74848720D01*
G36*
X150959820Y-73807320D02*
G01*
X150909020Y-73924160D01*
X150789640Y-73901300D01*
X150761700Y-73878440D01*
X150708360Y-73753980D01*
X150797260Y-73682860D01*
X150832820Y-73680320D01*
X150944580Y-73748900D01*
X150959820Y-73807320D01*
G37*
X150959820Y-73807320D02*
X150909020Y-73924160D01*
X150789640Y-73901300D01*
X150761700Y-73878440D01*
X150708360Y-73753980D01*
X150797260Y-73682860D01*
X150832820Y-73680320D01*
X150944580Y-73748900D01*
X150959820Y-73807320D01*
G36*
X152049480Y-73774300D02*
G01*
X152021540Y-73842880D01*
X151897080Y-73929240D01*
X151772620Y-73863200D01*
X151762460Y-73847960D01*
X151782780Y-73751440D01*
X151846280Y-73710800D01*
X152001220Y-73695560D01*
X152049480Y-73774300D01*
G37*
X152049480Y-73774300D02*
X152021540Y-73842880D01*
X151897080Y-73929240D01*
X151772620Y-73863200D01*
X151762460Y-73847960D01*
X151782780Y-73751440D01*
X151846280Y-73710800D01*
X152001220Y-73695560D01*
X152049480Y-73774300D01*
G36*
X153075640Y-73807320D02*
G01*
X153007060Y-73919080D01*
X152948640Y-73934320D01*
X152836880Y-73865740D01*
X152821640Y-73807320D01*
X152890220Y-73695560D01*
X152948640Y-73680320D01*
X153060400Y-73748900D01*
X153075640Y-73807320D01*
G37*
X153075640Y-73807320D02*
X153007060Y-73919080D01*
X152948640Y-73934320D01*
X152836880Y-73865740D01*
X152821640Y-73807320D01*
X152890220Y-73695560D01*
X152948640Y-73680320D01*
X153060400Y-73748900D01*
X153075640Y-73807320D01*
G36*
X164675820Y-73807320D02*
G01*
X164607240Y-73919080D01*
X164548820Y-73934320D01*
X164437060Y-73865740D01*
X164421820Y-73807320D01*
X164490400Y-73695560D01*
X164548820Y-73680320D01*
X164660580Y-73748900D01*
X164675820Y-73807320D01*
G37*
X164675820Y-73807320D02*
X164607240Y-73919080D01*
X164548820Y-73934320D01*
X164437060Y-73865740D01*
X164421820Y-73807320D01*
X164490400Y-73695560D01*
X164548820Y-73680320D01*
X164660580Y-73748900D01*
X164675820Y-73807320D01*
G36*
X165757860Y-73779380D02*
G01*
X165658800Y-73898760D01*
X165526720Y-73901300D01*
X165496240Y-73878440D01*
X165440360Y-73759060D01*
X165534340Y-73687940D01*
X165613080Y-73680320D01*
X165740080Y-73718420D01*
X165757860Y-73779380D01*
G37*
X165757860Y-73779380D02*
X165658800Y-73898760D01*
X165526720Y-73901300D01*
X165496240Y-73878440D01*
X165440360Y-73759060D01*
X165534340Y-73687940D01*
X165613080Y-73680320D01*
X165740080Y-73718420D01*
X165757860Y-73779380D01*
G36*
X166791640Y-73807320D02*
G01*
X166723060Y-73919080D01*
X166664640Y-73934320D01*
X166552880Y-73865740D01*
X166537640Y-73807320D01*
X166606220Y-73695560D01*
X166664640Y-73680320D01*
X166776400Y-73748900D01*
X166791640Y-73807320D01*
G37*
X166791640Y-73807320D02*
X166723060Y-73919080D01*
X166664640Y-73934320D01*
X166552880Y-73865740D01*
X166537640Y-73807320D01*
X166606220Y-73695560D01*
X166664640Y-73680320D01*
X166776400Y-73748900D01*
X166791640Y-73807320D01*
G36*
X151488140Y-72704960D02*
G01*
X151437340Y-72786240D01*
X151350980Y-72819260D01*
X151234140Y-72804020D01*
X151231600Y-72735440D01*
X151323040Y-72636380D01*
X151437340Y-72636380D01*
X151488140Y-72704960D01*
G37*
X151488140Y-72704960D02*
X151437340Y-72786240D01*
X151350980Y-72819260D01*
X151234140Y-72804020D01*
X151231600Y-72735440D01*
X151323040Y-72636380D01*
X151437340Y-72636380D01*
X151488140Y-72704960D01*
G36*
X152567640Y-72707500D02*
G01*
X152499060Y-72819260D01*
X152440640Y-72834500D01*
X152328880Y-72765920D01*
X152313640Y-72707500D01*
X152382220Y-72593200D01*
X152440640Y-72580500D01*
X152552400Y-72646540D01*
X152567640Y-72707500D01*
G37*
X152567640Y-72707500D02*
X152499060Y-72819260D01*
X152440640Y-72834500D01*
X152328880Y-72765920D01*
X152313640Y-72707500D01*
X152382220Y-72593200D01*
X152440640Y-72580500D01*
X152552400Y-72646540D01*
X152567640Y-72707500D01*
G36*
X153583640Y-72699880D02*
G01*
X153515060Y-72816720D01*
X153449020Y-72834500D01*
X153352500Y-72783700D01*
X153349960Y-72732900D01*
X153433780Y-72621140D01*
X153535380Y-72605900D01*
X153583640Y-72699880D01*
G37*
X153583640Y-72699880D02*
X153515060Y-72816720D01*
X153449020Y-72834500D01*
X153352500Y-72783700D01*
X153349960Y-72732900D01*
X153433780Y-72621140D01*
X153535380Y-72605900D01*
X153583640Y-72699880D01*
G36*
X154665680Y-72732900D02*
G01*
X154627580Y-72819260D01*
X154564080Y-72834500D01*
X154447240Y-72765920D01*
X154432000Y-72699880D01*
X154480260Y-72605900D01*
X154581860Y-72621140D01*
X154665680Y-72732900D01*
G37*
X154665680Y-72732900D02*
X154627580Y-72819260D01*
X154564080Y-72834500D01*
X154447240Y-72765920D01*
X154432000Y-72699880D01*
X154480260Y-72605900D01*
X154581860Y-72621140D01*
X154665680Y-72732900D01*
G36*
X163088320Y-72704960D02*
G01*
X163037520Y-72786240D01*
X162951160Y-72819260D01*
X162834320Y-72804020D01*
X162831780Y-72735440D01*
X162920680Y-72636380D01*
X163037520Y-72636380D01*
X163088320Y-72704960D01*
G37*
X163088320Y-72704960D02*
X163037520Y-72786240D01*
X162951160Y-72819260D01*
X162834320Y-72804020D01*
X162831780Y-72735440D01*
X162920680Y-72636380D01*
X163037520Y-72636380D01*
X163088320Y-72704960D01*
G36*
X164147500Y-72732900D02*
G01*
X164111940Y-72819260D01*
X164048440Y-72834500D01*
X163931600Y-72765920D01*
X163913820Y-72699880D01*
X163962080Y-72605900D01*
X164063680Y-72621140D01*
X164147500Y-72732900D01*
G37*
X164147500Y-72732900D02*
X164111940Y-72819260D01*
X164048440Y-72834500D01*
X163931600Y-72765920D01*
X163913820Y-72699880D01*
X163962080Y-72605900D01*
X164063680Y-72621140D01*
X164147500Y-72732900D01*
G36*
X165183820Y-72699880D02*
G01*
X165115240Y-72816720D01*
X165049200Y-72834500D01*
X164950140Y-72783700D01*
X164947600Y-72732900D01*
X165033960Y-72621140D01*
X165135560Y-72605900D01*
X165183820Y-72699880D01*
G37*
X165183820Y-72699880D02*
X165115240Y-72816720D01*
X165049200Y-72834500D01*
X164950140Y-72783700D01*
X164947600Y-72732900D01*
X165033960Y-72621140D01*
X165135560Y-72605900D01*
X165183820Y-72699880D01*
G36*
X166265860Y-72732900D02*
G01*
X166227760Y-72819260D01*
X166164260Y-72834500D01*
X166047420Y-72765920D01*
X166029640Y-72699880D01*
X166080440Y-72605900D01*
X166182040Y-72621140D01*
X166265860Y-72732900D01*
G37*
X166265860Y-72732900D02*
X166227760Y-72819260D01*
X166164260Y-72834500D01*
X166047420Y-72765920D01*
X166029640Y-72699880D01*
X166080440Y-72605900D01*
X166182040Y-72621140D01*
X166265860Y-72732900D01*
G36*
X150959820Y-71691500D02*
G01*
X150909020Y-71805800D01*
X150789640Y-71785480D01*
X150761700Y-71760080D01*
X150708360Y-71635620D01*
X150797260Y-71567040D01*
X150832820Y-71564500D01*
X150944580Y-71630540D01*
X150959820Y-71691500D01*
G37*
X150959820Y-71691500D02*
X150909020Y-71805800D01*
X150789640Y-71785480D01*
X150761700Y-71760080D01*
X150708360Y-71635620D01*
X150797260Y-71567040D01*
X150832820Y-71564500D01*
X150944580Y-71630540D01*
X150959820Y-71691500D01*
G36*
X152049480Y-71658480D02*
G01*
X152021540Y-71727060D01*
X151897080Y-71813420D01*
X151772620Y-71747380D01*
X151762460Y-71732140D01*
X151782780Y-71635620D01*
X151846280Y-71594980D01*
X152001220Y-71577200D01*
X152049480Y-71658480D01*
G37*
X152049480Y-71658480D02*
X152021540Y-71727060D01*
X151897080Y-71813420D01*
X151772620Y-71747380D01*
X151762460Y-71732140D01*
X151782780Y-71635620D01*
X151846280Y-71594980D01*
X152001220Y-71577200D01*
X152049480Y-71658480D01*
G36*
X153075640Y-71691500D02*
G01*
X153007060Y-71803260D01*
X152948640Y-71818500D01*
X152836880Y-71749920D01*
X152821640Y-71691500D01*
X152890220Y-71577200D01*
X152948640Y-71564500D01*
X153060400Y-71630540D01*
X153075640Y-71691500D01*
G37*
X153075640Y-71691500D02*
X153007060Y-71803260D01*
X152948640Y-71818500D01*
X152836880Y-71749920D01*
X152821640Y-71691500D01*
X152890220Y-71577200D01*
X152948640Y-71564500D01*
X153060400Y-71630540D01*
X153075640Y-71691500D01*
G36*
X154157680Y-71663560D02*
G01*
X154058620Y-71780400D01*
X153926540Y-71785480D01*
X153896060Y-71762620D01*
X153840180Y-71640700D01*
X153934160Y-71569580D01*
X154015440Y-71564500D01*
X154142440Y-71602600D01*
X154157680Y-71663560D01*
G37*
X154157680Y-71663560D02*
X154058620Y-71780400D01*
X153926540Y-71785480D01*
X153896060Y-71762620D01*
X153840180Y-71640700D01*
X153934160Y-71569580D01*
X154015440Y-71564500D01*
X154142440Y-71602600D01*
X154157680Y-71663560D01*
G36*
X155194000Y-71691500D02*
G01*
X155125420Y-71803260D01*
X155067000Y-71818500D01*
X154952700Y-71749920D01*
X154940000Y-71691500D01*
X155006040Y-71577200D01*
X155067000Y-71564500D01*
X155178760Y-71630540D01*
X155194000Y-71691500D01*
G37*
X155194000Y-71691500D02*
X155125420Y-71803260D01*
X155067000Y-71818500D01*
X154952700Y-71749920D01*
X154940000Y-71691500D01*
X155006040Y-71577200D01*
X155067000Y-71564500D01*
X155178760Y-71630540D01*
X155194000Y-71691500D01*
G36*
X156258260Y-71678800D02*
G01*
X156250640Y-71732140D01*
X156128720Y-71813420D01*
X156004260Y-71742300D01*
X155994100Y-71727060D01*
X155973780Y-71607680D01*
X156077920Y-71572120D01*
X156169360Y-71594980D01*
X156258260Y-71678800D01*
G37*
X156258260Y-71678800D02*
X156250640Y-71732140D01*
X156128720Y-71813420D01*
X156004260Y-71742300D01*
X155994100Y-71727060D01*
X155973780Y-71607680D01*
X156077920Y-71572120D01*
X156169360Y-71594980D01*
X156258260Y-71678800D01*
G36*
X157281880Y-71612760D02*
G01*
X157266640Y-71714360D01*
X157154880Y-71798180D01*
X157068520Y-71760080D01*
X157055820Y-71696580D01*
X157124400Y-71579740D01*
X157190440Y-71564500D01*
X157281880Y-71612760D01*
G37*
X157281880Y-71612760D02*
X157266640Y-71714360D01*
X157154880Y-71798180D01*
X157068520Y-71760080D01*
X157055820Y-71696580D01*
X157124400Y-71579740D01*
X157190440Y-71564500D01*
X157281880Y-71612760D01*
G36*
X160441640Y-71691500D02*
G01*
X160390840Y-71805800D01*
X160274000Y-71785480D01*
X160243520Y-71760080D01*
X160190180Y-71635620D01*
X160279080Y-71567040D01*
X160314640Y-71564500D01*
X160426400Y-71630540D01*
X160441640Y-71691500D01*
G37*
X160441640Y-71691500D02*
X160390840Y-71805800D01*
X160274000Y-71785480D01*
X160243520Y-71760080D01*
X160190180Y-71635620D01*
X160279080Y-71567040D01*
X160314640Y-71564500D01*
X160426400Y-71630540D01*
X160441640Y-71691500D01*
G36*
X161531300Y-71658480D02*
G01*
X161503360Y-71727060D01*
X161381440Y-71813420D01*
X161256980Y-71747380D01*
X161246820Y-71732140D01*
X161264600Y-71635620D01*
X161328100Y-71594980D01*
X161483040Y-71577200D01*
X161531300Y-71658480D01*
G37*
X161531300Y-71658480D02*
X161503360Y-71727060D01*
X161381440Y-71813420D01*
X161256980Y-71747380D01*
X161246820Y-71732140D01*
X161264600Y-71635620D01*
X161328100Y-71594980D01*
X161483040Y-71577200D01*
X161531300Y-71658480D01*
G36*
X162560000Y-71691500D02*
G01*
X162491420Y-71803260D01*
X162433000Y-71818500D01*
X162318700Y-71749920D01*
X162306000Y-71691500D01*
X162372040Y-71577200D01*
X162433000Y-71564500D01*
X162544760Y-71630540D01*
X162560000Y-71691500D01*
G37*
X162560000Y-71691500D02*
X162491420Y-71803260D01*
X162433000Y-71818500D01*
X162318700Y-71749920D01*
X162306000Y-71691500D01*
X162372040Y-71577200D01*
X162433000Y-71564500D01*
X162544760Y-71630540D01*
X162560000Y-71691500D01*
G36*
X163647120Y-71658480D02*
G01*
X163621720Y-71727060D01*
X163497260Y-71813420D01*
X163372800Y-71747380D01*
X163362640Y-71732140D01*
X163380420Y-71635620D01*
X163446460Y-71594980D01*
X163598860Y-71577200D01*
X163647120Y-71658480D01*
G37*
X163647120Y-71658480D02*
X163621720Y-71727060D01*
X163497260Y-71813420D01*
X163372800Y-71747380D01*
X163362640Y-71732140D01*
X163380420Y-71635620D01*
X163446460Y-71594980D01*
X163598860Y-71577200D01*
X163647120Y-71658480D01*
G36*
X164675820Y-71691500D02*
G01*
X164607240Y-71803260D01*
X164548820Y-71818500D01*
X164437060Y-71749920D01*
X164421820Y-71691500D01*
X164490400Y-71577200D01*
X164548820Y-71564500D01*
X164660580Y-71630540D01*
X164675820Y-71691500D01*
G37*
X164675820Y-71691500D02*
X164607240Y-71803260D01*
X164548820Y-71818500D01*
X164437060Y-71749920D01*
X164421820Y-71691500D01*
X164490400Y-71577200D01*
X164548820Y-71564500D01*
X164660580Y-71630540D01*
X164675820Y-71691500D01*
G36*
X165757860Y-71663560D02*
G01*
X165658800Y-71780400D01*
X165526720Y-71785480D01*
X165496240Y-71762620D01*
X165440360Y-71640700D01*
X165534340Y-71569580D01*
X165613080Y-71564500D01*
X165740080Y-71602600D01*
X165757860Y-71663560D01*
G37*
X165757860Y-71663560D02*
X165658800Y-71780400D01*
X165526720Y-71785480D01*
X165496240Y-71762620D01*
X165440360Y-71640700D01*
X165534340Y-71569580D01*
X165613080Y-71564500D01*
X165740080Y-71602600D01*
X165757860Y-71663560D01*
G36*
X166791640Y-71691500D02*
G01*
X166723060Y-71803260D01*
X166664640Y-71818500D01*
X166552880Y-71749920D01*
X166537640Y-71691500D01*
X166606220Y-71577200D01*
X166664640Y-71564500D01*
X166776400Y-71630540D01*
X166791640Y-71691500D01*
G37*
X166791640Y-71691500D02*
X166723060Y-71803260D01*
X166664640Y-71818500D01*
X166552880Y-71749920D01*
X166537640Y-71691500D01*
X166606220Y-71577200D01*
X166664640Y-71564500D01*
X166776400Y-71630540D01*
X166791640Y-71691500D01*
G36*
X151488140Y-70589140D02*
G01*
X151437340Y-70670420D01*
X151350980Y-70703440D01*
X151234140Y-70685660D01*
X151231600Y-70619620D01*
X151323040Y-70520560D01*
X151437340Y-70520560D01*
X151488140Y-70589140D01*
G37*
X151488140Y-70589140D02*
X151437340Y-70670420D01*
X151350980Y-70703440D01*
X151234140Y-70685660D01*
X151231600Y-70619620D01*
X151323040Y-70520560D01*
X151437340Y-70520560D01*
X151488140Y-70589140D01*
G36*
X152549860Y-70617080D02*
G01*
X152511760Y-70703440D01*
X152448260Y-70716140D01*
X152331420Y-70647560D01*
X152313640Y-70581520D01*
X152364440Y-70490080D01*
X152466040Y-70505320D01*
X152549860Y-70617080D01*
G37*
X152549860Y-70617080D02*
X152511760Y-70703440D01*
X152448260Y-70716140D01*
X152331420Y-70647560D01*
X152313640Y-70581520D01*
X152364440Y-70490080D01*
X152466040Y-70505320D01*
X152549860Y-70617080D01*
G36*
X153583640Y-70581520D02*
G01*
X153515060Y-70698360D01*
X153449020Y-70716140D01*
X153352500Y-70667880D01*
X153349960Y-70617080D01*
X153433780Y-70505320D01*
X153535380Y-70490080D01*
X153583640Y-70581520D01*
G37*
X153583640Y-70581520D02*
X153515060Y-70698360D01*
X153449020Y-70716140D01*
X153352500Y-70667880D01*
X153349960Y-70617080D01*
X153433780Y-70505320D01*
X153535380Y-70490080D01*
X153583640Y-70581520D01*
G36*
X154665680Y-70617080D02*
G01*
X154627580Y-70703440D01*
X154564080Y-70716140D01*
X154447240Y-70647560D01*
X154432000Y-70581520D01*
X154480260Y-70490080D01*
X154581860Y-70505320D01*
X154665680Y-70617080D01*
G37*
X154665680Y-70617080D02*
X154627580Y-70703440D01*
X154564080Y-70716140D01*
X154447240Y-70647560D01*
X154432000Y-70581520D01*
X154480260Y-70490080D01*
X154581860Y-70505320D01*
X154665680Y-70617080D01*
G36*
X155702000Y-70589140D02*
G01*
X155633420Y-70700900D01*
X155575000Y-70716140D01*
X155460700Y-70647560D01*
X155448000Y-70589140D01*
X155514040Y-70477380D01*
X155575000Y-70462140D01*
X155686760Y-70530720D01*
X155702000Y-70589140D01*
G37*
X155702000Y-70589140D02*
X155633420Y-70700900D01*
X155575000Y-70716140D01*
X155460700Y-70647560D01*
X155448000Y-70589140D01*
X155514040Y-70477380D01*
X155575000Y-70462140D01*
X155686760Y-70530720D01*
X155702000Y-70589140D01*
G36*
X156801820Y-70637400D02*
G01*
X156738320Y-70705980D01*
X156611320Y-70705980D01*
X156509720Y-70637400D01*
X156519880Y-70528180D01*
X156545280Y-70505320D01*
X156687520Y-70495160D01*
X156791660Y-70586600D01*
X156801820Y-70637400D01*
G37*
X156801820Y-70637400D02*
X156738320Y-70705980D01*
X156611320Y-70705980D01*
X156509720Y-70637400D01*
X156519880Y-70528180D01*
X156545280Y-70505320D01*
X156687520Y-70495160D01*
X156791660Y-70586600D01*
X156801820Y-70637400D01*
G36*
X157817820Y-70589140D02*
G01*
X157749240Y-70700900D01*
X157690820Y-70716140D01*
X157579060Y-70647560D01*
X157563820Y-70589140D01*
X157632400Y-70477380D01*
X157690820Y-70462140D01*
X157802580Y-70530720D01*
X157817820Y-70589140D01*
G37*
X157817820Y-70589140D02*
X157749240Y-70700900D01*
X157690820Y-70716140D01*
X157579060Y-70647560D01*
X157563820Y-70589140D01*
X157632400Y-70477380D01*
X157690820Y-70462140D01*
X157802580Y-70530720D01*
X157817820Y-70589140D01*
G36*
X159933640Y-70589140D02*
G01*
X159865060Y-70700900D01*
X159806640Y-70716140D01*
X159694880Y-70647560D01*
X159679640Y-70589140D01*
X159748220Y-70477380D01*
X159806640Y-70462140D01*
X159918400Y-70530720D01*
X159933640Y-70589140D01*
G37*
X159933640Y-70589140D02*
X159865060Y-70700900D01*
X159806640Y-70716140D01*
X159694880Y-70647560D01*
X159679640Y-70589140D01*
X159748220Y-70477380D01*
X159806640Y-70462140D01*
X159918400Y-70530720D01*
X159933640Y-70589140D01*
G36*
X160972500Y-70589140D02*
G01*
X160919160Y-70670420D01*
X160835340Y-70703440D01*
X160715960Y-70685660D01*
X160713420Y-70619620D01*
X160804860Y-70520560D01*
X160919160Y-70520560D01*
X160972500Y-70589140D01*
G37*
X160972500Y-70589140D02*
X160919160Y-70670420D01*
X160835340Y-70703440D01*
X160715960Y-70685660D01*
X160713420Y-70619620D01*
X160804860Y-70520560D01*
X160919160Y-70520560D01*
X160972500Y-70589140D01*
G36*
X162052000Y-70589140D02*
G01*
X161983420Y-70700900D01*
X161925000Y-70716140D01*
X161810700Y-70647560D01*
X161798000Y-70589140D01*
X161864040Y-70477380D01*
X161925000Y-70462140D01*
X162036760Y-70530720D01*
X162052000Y-70589140D01*
G37*
X162052000Y-70589140D02*
X161983420Y-70700900D01*
X161925000Y-70716140D01*
X161810700Y-70647560D01*
X161798000Y-70589140D01*
X161864040Y-70477380D01*
X161925000Y-70462140D01*
X162036760Y-70530720D01*
X162052000Y-70589140D01*
G36*
X163088320Y-70589140D02*
G01*
X163037520Y-70670420D01*
X162951160Y-70703440D01*
X162834320Y-70685660D01*
X162831780Y-70619620D01*
X162920680Y-70520560D01*
X163037520Y-70520560D01*
X163088320Y-70589140D01*
G37*
X163088320Y-70589140D02*
X163037520Y-70670420D01*
X162951160Y-70703440D01*
X162834320Y-70685660D01*
X162831780Y-70619620D01*
X162920680Y-70520560D01*
X163037520Y-70520560D01*
X163088320Y-70589140D01*
G36*
X164147500Y-70617080D02*
G01*
X164111940Y-70703440D01*
X164048440Y-70716140D01*
X163931600Y-70647560D01*
X163913820Y-70581520D01*
X163962080Y-70490080D01*
X164063680Y-70505320D01*
X164147500Y-70617080D01*
G37*
X164147500Y-70617080D02*
X164111940Y-70703440D01*
X164048440Y-70716140D01*
X163931600Y-70647560D01*
X163913820Y-70581520D01*
X163962080Y-70490080D01*
X164063680Y-70505320D01*
X164147500Y-70617080D01*
G36*
X165183820Y-70581520D02*
G01*
X165115240Y-70698360D01*
X165049200Y-70716140D01*
X164950140Y-70667880D01*
X164947600Y-70617080D01*
X165033960Y-70505320D01*
X165135560Y-70490080D01*
X165183820Y-70581520D01*
G37*
X165183820Y-70581520D02*
X165115240Y-70698360D01*
X165049200Y-70716140D01*
X164950140Y-70667880D01*
X164947600Y-70617080D01*
X165033960Y-70505320D01*
X165135560Y-70490080D01*
X165183820Y-70581520D01*
G36*
X166265860Y-70617080D02*
G01*
X166227760Y-70703440D01*
X166164260Y-70716140D01*
X166047420Y-70647560D01*
X166029640Y-70581520D01*
X166080440Y-70490080D01*
X166182040Y-70505320D01*
X166265860Y-70617080D01*
G37*
X166265860Y-70617080D02*
X166227760Y-70703440D01*
X166164260Y-70716140D01*
X166047420Y-70647560D01*
X166029640Y-70581520D01*
X166080440Y-70490080D01*
X166182040Y-70505320D01*
X166265860Y-70617080D01*
G36*
X150959820Y-69573140D02*
G01*
X150891240Y-69684900D01*
X150832820Y-69700140D01*
X150721060Y-69631560D01*
X150705820Y-69573140D01*
X150774400Y-69461380D01*
X150832820Y-69446140D01*
X150944580Y-69514720D01*
X150959820Y-69573140D01*
G37*
X150959820Y-69573140D02*
X150891240Y-69684900D01*
X150832820Y-69700140D01*
X150721060Y-69631560D01*
X150705820Y-69573140D01*
X150774400Y-69461380D01*
X150832820Y-69446140D01*
X150944580Y-69514720D01*
X150959820Y-69573140D01*
G36*
X152049480Y-69540120D02*
G01*
X152021540Y-69611240D01*
X151897080Y-69697600D01*
X151772620Y-69629020D01*
X151762460Y-69616320D01*
X151782780Y-69519800D01*
X151846280Y-69476620D01*
X152001220Y-69461380D01*
X152049480Y-69540120D01*
G37*
X152049480Y-69540120D02*
X152021540Y-69611240D01*
X151897080Y-69697600D01*
X151772620Y-69629020D01*
X151762460Y-69616320D01*
X151782780Y-69519800D01*
X151846280Y-69476620D01*
X152001220Y-69461380D01*
X152049480Y-69540120D01*
G36*
X153075640Y-69573140D02*
G01*
X153007060Y-69684900D01*
X152948640Y-69700140D01*
X152836880Y-69631560D01*
X152821640Y-69573140D01*
X152890220Y-69461380D01*
X152948640Y-69446140D01*
X153060400Y-69514720D01*
X153075640Y-69573140D01*
G37*
X153075640Y-69573140D02*
X153007060Y-69684900D01*
X152948640Y-69700140D01*
X152836880Y-69631560D01*
X152821640Y-69573140D01*
X152890220Y-69461380D01*
X152948640Y-69446140D01*
X153060400Y-69514720D01*
X153075640Y-69573140D01*
G36*
X154157680Y-69547740D02*
G01*
X154058620Y-69664580D01*
X153926540Y-69669660D01*
X153896060Y-69646800D01*
X153840180Y-69524880D01*
X153934160Y-69453760D01*
X154015440Y-69446140D01*
X154142440Y-69486780D01*
X154157680Y-69547740D01*
G37*
X154157680Y-69547740D02*
X154058620Y-69664580D01*
X153926540Y-69669660D01*
X153896060Y-69646800D01*
X153840180Y-69524880D01*
X153934160Y-69453760D01*
X154015440Y-69446140D01*
X154142440Y-69486780D01*
X154157680Y-69547740D01*
G36*
X155194000Y-69573140D02*
G01*
X155125420Y-69684900D01*
X155067000Y-69700140D01*
X154952700Y-69631560D01*
X154940000Y-69573140D01*
X155006040Y-69461380D01*
X155067000Y-69446140D01*
X155178760Y-69514720D01*
X155194000Y-69573140D01*
G37*
X155194000Y-69573140D02*
X155125420Y-69684900D01*
X155067000Y-69700140D01*
X154952700Y-69631560D01*
X154940000Y-69573140D01*
X155006040Y-69461380D01*
X155067000Y-69446140D01*
X155178760Y-69514720D01*
X155194000Y-69573140D01*
G36*
X156258260Y-69560440D02*
G01*
X156250640Y-69616320D01*
X156128720Y-69697600D01*
X156004260Y-69626480D01*
X155994100Y-69611240D01*
X155973780Y-69491860D01*
X156077920Y-69456300D01*
X156169360Y-69476620D01*
X156258260Y-69560440D01*
G37*
X156258260Y-69560440D02*
X156250640Y-69616320D01*
X156128720Y-69697600D01*
X156004260Y-69626480D01*
X155994100Y-69611240D01*
X155973780Y-69491860D01*
X156077920Y-69456300D01*
X156169360Y-69476620D01*
X156258260Y-69560440D01*
G36*
X157309820Y-69573140D02*
G01*
X157241240Y-69684900D01*
X157182820Y-69700140D01*
X157071060Y-69631560D01*
X157055820Y-69573140D01*
X157124400Y-69461380D01*
X157182820Y-69446140D01*
X157294580Y-69514720D01*
X157309820Y-69573140D01*
G37*
X157309820Y-69573140D02*
X157241240Y-69684900D01*
X157182820Y-69700140D01*
X157071060Y-69631560D01*
X157055820Y-69573140D01*
X157124400Y-69461380D01*
X157182820Y-69446140D01*
X157294580Y-69514720D01*
X157309820Y-69573140D01*
G36*
X158325820Y-69573140D02*
G01*
X158275020Y-69689980D01*
X158155640Y-69669660D01*
X158127700Y-69644260D01*
X158074360Y-69519800D01*
X158163260Y-69448680D01*
X158198820Y-69446140D01*
X158310580Y-69514720D01*
X158325820Y-69573140D01*
G37*
X158325820Y-69573140D02*
X158275020Y-69689980D01*
X158155640Y-69669660D01*
X158127700Y-69644260D01*
X158074360Y-69519800D01*
X158163260Y-69448680D01*
X158198820Y-69446140D01*
X158310580Y-69514720D01*
X158325820Y-69573140D01*
G36*
X159397700Y-69496940D02*
G01*
X159385000Y-69598540D01*
X159273240Y-69682360D01*
X159186880Y-69644260D01*
X159171640Y-69580760D01*
X159240220Y-69463920D01*
X159306260Y-69446140D01*
X159397700Y-69496940D01*
G37*
X159397700Y-69496940D02*
X159385000Y-69598540D01*
X159273240Y-69682360D01*
X159186880Y-69644260D01*
X159171640Y-69580760D01*
X159240220Y-69463920D01*
X159306260Y-69446140D01*
X159397700Y-69496940D01*
G36*
X160441640Y-69573140D02*
G01*
X160390840Y-69689980D01*
X160274000Y-69669660D01*
X160243520Y-69644260D01*
X160190180Y-69519800D01*
X160279080Y-69448680D01*
X160314640Y-69446140D01*
X160426400Y-69514720D01*
X160441640Y-69573140D01*
G37*
X160441640Y-69573140D02*
X160390840Y-69689980D01*
X160274000Y-69669660D01*
X160243520Y-69644260D01*
X160190180Y-69519800D01*
X160279080Y-69448680D01*
X160314640Y-69446140D01*
X160426400Y-69514720D01*
X160441640Y-69573140D01*
G36*
X161531300Y-69540120D02*
G01*
X161503360Y-69611240D01*
X161381440Y-69697600D01*
X161256980Y-69629020D01*
X161246820Y-69616320D01*
X161264600Y-69519800D01*
X161328100Y-69476620D01*
X161483040Y-69461380D01*
X161531300Y-69540120D01*
G37*
X161531300Y-69540120D02*
X161503360Y-69611240D01*
X161381440Y-69697600D01*
X161256980Y-69629020D01*
X161246820Y-69616320D01*
X161264600Y-69519800D01*
X161328100Y-69476620D01*
X161483040Y-69461380D01*
X161531300Y-69540120D01*
G36*
X162560000Y-69573140D02*
G01*
X162491420Y-69684900D01*
X162433000Y-69700140D01*
X162318700Y-69631560D01*
X162306000Y-69573140D01*
X162372040Y-69461380D01*
X162433000Y-69446140D01*
X162544760Y-69514720D01*
X162560000Y-69573140D01*
G37*
X162560000Y-69573140D02*
X162491420Y-69684900D01*
X162433000Y-69700140D01*
X162318700Y-69631560D01*
X162306000Y-69573140D01*
X162372040Y-69461380D01*
X162433000Y-69446140D01*
X162544760Y-69514720D01*
X162560000Y-69573140D01*
G36*
X163647120Y-69540120D02*
G01*
X163621720Y-69611240D01*
X163497260Y-69697600D01*
X163372800Y-69629020D01*
X163362640Y-69616320D01*
X163380420Y-69519800D01*
X163446460Y-69476620D01*
X163598860Y-69461380D01*
X163647120Y-69540120D01*
G37*
X163647120Y-69540120D02*
X163621720Y-69611240D01*
X163497260Y-69697600D01*
X163372800Y-69629020D01*
X163362640Y-69616320D01*
X163380420Y-69519800D01*
X163446460Y-69476620D01*
X163598860Y-69461380D01*
X163647120Y-69540120D01*
G36*
X164675820Y-69573140D02*
G01*
X164607240Y-69684900D01*
X164548820Y-69700140D01*
X164437060Y-69631560D01*
X164421820Y-69573140D01*
X164490400Y-69461380D01*
X164548820Y-69446140D01*
X164660580Y-69514720D01*
X164675820Y-69573140D01*
G37*
X164675820Y-69573140D02*
X164607240Y-69684900D01*
X164548820Y-69700140D01*
X164437060Y-69631560D01*
X164421820Y-69573140D01*
X164490400Y-69461380D01*
X164548820Y-69446140D01*
X164660580Y-69514720D01*
X164675820Y-69573140D01*
G36*
X165740080Y-69560440D02*
G01*
X165735000Y-69616320D01*
X165613080Y-69697600D01*
X165486080Y-69626480D01*
X165475920Y-69611240D01*
X165458140Y-69491860D01*
X165562280Y-69456300D01*
X165651180Y-69476620D01*
X165740080Y-69560440D01*
G37*
X165740080Y-69560440D02*
X165735000Y-69616320D01*
X165613080Y-69697600D01*
X165486080Y-69626480D01*
X165475920Y-69611240D01*
X165458140Y-69491860D01*
X165562280Y-69456300D01*
X165651180Y-69476620D01*
X165740080Y-69560440D01*
G36*
X166791640Y-69573140D02*
G01*
X166723060Y-69684900D01*
X166664640Y-69700140D01*
X166552880Y-69631560D01*
X166537640Y-69573140D01*
X166606220Y-69461380D01*
X166664640Y-69446140D01*
X166776400Y-69514720D01*
X166791640Y-69573140D01*
G37*
X166791640Y-69573140D02*
X166723060Y-69684900D01*
X166664640Y-69700140D01*
X166552880Y-69631560D01*
X166537640Y-69573140D01*
X166606220Y-69461380D01*
X166664640Y-69446140D01*
X166776400Y-69514720D01*
X166791640Y-69573140D01*
G36*
X151488140Y-68470780D02*
G01*
X151437340Y-68554600D01*
X151350980Y-68585080D01*
X151234140Y-68569840D01*
X151231600Y-68501260D01*
X151323040Y-68402200D01*
X151437340Y-68404740D01*
X151488140Y-68470780D01*
G37*
X151488140Y-68470780D02*
X151437340Y-68554600D01*
X151350980Y-68585080D01*
X151234140Y-68569840D01*
X151231600Y-68501260D01*
X151323040Y-68402200D01*
X151437340Y-68404740D01*
X151488140Y-68470780D01*
G36*
X152549860Y-68498720D02*
G01*
X152511760Y-68585080D01*
X152448260Y-68600320D01*
X152331420Y-68531740D01*
X152313640Y-68465700D01*
X152364440Y-68374260D01*
X152466040Y-68386960D01*
X152549860Y-68498720D01*
G37*
X152549860Y-68498720D02*
X152511760Y-68585080D01*
X152448260Y-68600320D01*
X152331420Y-68531740D01*
X152313640Y-68465700D01*
X152364440Y-68374260D01*
X152466040Y-68386960D01*
X152549860Y-68498720D01*
G36*
X153583640Y-68465700D02*
G01*
X153515060Y-68582540D01*
X153449020Y-68600320D01*
X153352500Y-68549520D01*
X153349960Y-68498720D01*
X153433780Y-68386960D01*
X153535380Y-68374260D01*
X153583640Y-68465700D01*
G37*
X153583640Y-68465700D02*
X153515060Y-68582540D01*
X153449020Y-68600320D01*
X153352500Y-68549520D01*
X153349960Y-68498720D01*
X153433780Y-68386960D01*
X153535380Y-68374260D01*
X153583640Y-68465700D01*
G36*
X154665680Y-68498720D02*
G01*
X154627580Y-68585080D01*
X154564080Y-68600320D01*
X154447240Y-68531740D01*
X154432000Y-68465700D01*
X154480260Y-68374260D01*
X154581860Y-68386960D01*
X154665680Y-68498720D01*
G37*
X154665680Y-68498720D02*
X154627580Y-68585080D01*
X154564080Y-68600320D01*
X154447240Y-68531740D01*
X154432000Y-68465700D01*
X154480260Y-68374260D01*
X154581860Y-68386960D01*
X154665680Y-68498720D01*
G36*
X155702000Y-68465700D02*
G01*
X155633420Y-68582540D01*
X155567380Y-68600320D01*
X155468320Y-68549520D01*
X155465780Y-68498720D01*
X155549600Y-68386960D01*
X155651200Y-68374260D01*
X155702000Y-68465700D01*
G37*
X155702000Y-68465700D02*
X155633420Y-68582540D01*
X155567380Y-68600320D01*
X155468320Y-68549520D01*
X155465780Y-68498720D01*
X155549600Y-68386960D01*
X155651200Y-68374260D01*
X155702000Y-68465700D01*
G36*
X156801820Y-68519040D02*
G01*
X156738320Y-68590160D01*
X156611320Y-68590160D01*
X156509720Y-68521580D01*
X156519880Y-68412360D01*
X156545280Y-68389500D01*
X156687520Y-68376800D01*
X156791660Y-68470780D01*
X156801820Y-68519040D01*
G37*
X156801820Y-68519040D02*
X156738320Y-68590160D01*
X156611320Y-68590160D01*
X156509720Y-68521580D01*
X156519880Y-68412360D01*
X156545280Y-68389500D01*
X156687520Y-68376800D01*
X156791660Y-68470780D01*
X156801820Y-68519040D01*
G36*
X157817820Y-68473320D02*
G01*
X157749240Y-68585080D01*
X157690820Y-68600320D01*
X157579060Y-68531740D01*
X157563820Y-68473320D01*
X157632400Y-68361560D01*
X157690820Y-68346320D01*
X157802580Y-68414900D01*
X157817820Y-68473320D01*
G37*
X157817820Y-68473320D02*
X157749240Y-68585080D01*
X157690820Y-68600320D01*
X157579060Y-68531740D01*
X157563820Y-68473320D01*
X157632400Y-68361560D01*
X157690820Y-68346320D01*
X157802580Y-68414900D01*
X157817820Y-68473320D01*
G36*
X158897320Y-68493640D02*
G01*
X158856680Y-68580000D01*
X158750000Y-68600320D01*
X158615380Y-68559680D01*
X158600140Y-68493640D01*
X158704280Y-68394580D01*
X158750000Y-68389500D01*
X158877000Y-68455540D01*
X158897320Y-68493640D01*
G37*
X158897320Y-68493640D02*
X158856680Y-68580000D01*
X158750000Y-68600320D01*
X158615380Y-68559680D01*
X158600140Y-68493640D01*
X158704280Y-68394580D01*
X158750000Y-68389500D01*
X158877000Y-68455540D01*
X158897320Y-68493640D01*
G36*
X159933640Y-68473320D02*
G01*
X159865060Y-68585080D01*
X159806640Y-68600320D01*
X159694880Y-68531740D01*
X159679640Y-68473320D01*
X159748220Y-68361560D01*
X159806640Y-68346320D01*
X159918400Y-68414900D01*
X159933640Y-68473320D01*
G37*
X159933640Y-68473320D02*
X159865060Y-68585080D01*
X159806640Y-68600320D01*
X159694880Y-68531740D01*
X159679640Y-68473320D01*
X159748220Y-68361560D01*
X159806640Y-68346320D01*
X159918400Y-68414900D01*
X159933640Y-68473320D01*
G36*
X160972500Y-68470780D02*
G01*
X160919160Y-68554600D01*
X160835340Y-68585080D01*
X160715960Y-68569840D01*
X160713420Y-68501260D01*
X160804860Y-68402200D01*
X160919160Y-68404740D01*
X160972500Y-68470780D01*
G37*
X160972500Y-68470780D02*
X160919160Y-68554600D01*
X160835340Y-68585080D01*
X160715960Y-68569840D01*
X160713420Y-68501260D01*
X160804860Y-68402200D01*
X160919160Y-68404740D01*
X160972500Y-68470780D01*
G36*
X162052000Y-68473320D02*
G01*
X161983420Y-68585080D01*
X161925000Y-68600320D01*
X161810700Y-68531740D01*
X161798000Y-68473320D01*
X161864040Y-68361560D01*
X161925000Y-68346320D01*
X162036760Y-68414900D01*
X162052000Y-68473320D01*
G37*
X162052000Y-68473320D02*
X161983420Y-68585080D01*
X161925000Y-68600320D01*
X161810700Y-68531740D01*
X161798000Y-68473320D01*
X161864040Y-68361560D01*
X161925000Y-68346320D01*
X162036760Y-68414900D01*
X162052000Y-68473320D01*
G36*
X163088320Y-68470780D02*
G01*
X163037520Y-68554600D01*
X162951160Y-68585080D01*
X162834320Y-68569840D01*
X162831780Y-68501260D01*
X162920680Y-68402200D01*
X163037520Y-68404740D01*
X163088320Y-68470780D01*
G37*
X163088320Y-68470780D02*
X163037520Y-68554600D01*
X162951160Y-68585080D01*
X162834320Y-68569840D01*
X162831780Y-68501260D01*
X162920680Y-68402200D01*
X163037520Y-68404740D01*
X163088320Y-68470780D01*
G36*
X164147500Y-68498720D02*
G01*
X164111940Y-68585080D01*
X164048440Y-68600320D01*
X163931600Y-68531740D01*
X163913820Y-68465700D01*
X163962080Y-68374260D01*
X164063680Y-68386960D01*
X164147500Y-68498720D01*
G37*
X164147500Y-68498720D02*
X164111940Y-68585080D01*
X164048440Y-68600320D01*
X163931600Y-68531740D01*
X163913820Y-68465700D01*
X163962080Y-68374260D01*
X164063680Y-68386960D01*
X164147500Y-68498720D01*
G36*
X165183820Y-68465700D02*
G01*
X165115240Y-68582540D01*
X165049200Y-68600320D01*
X164950140Y-68549520D01*
X164947600Y-68498720D01*
X165033960Y-68386960D01*
X165135560Y-68374260D01*
X165183820Y-68465700D01*
G37*
X165183820Y-68465700D02*
X165115240Y-68582540D01*
X165049200Y-68600320D01*
X164950140Y-68549520D01*
X164947600Y-68498720D01*
X165033960Y-68386960D01*
X165135560Y-68374260D01*
X165183820Y-68465700D01*
G36*
X166265860Y-68498720D02*
G01*
X166227760Y-68585080D01*
X166164260Y-68600320D01*
X166047420Y-68531740D01*
X166029640Y-68465700D01*
X166080440Y-68374260D01*
X166182040Y-68386960D01*
X166265860Y-68498720D01*
G37*
X166265860Y-68498720D02*
X166227760Y-68585080D01*
X166164260Y-68600320D01*
X166047420Y-68531740D01*
X166029640Y-68465700D01*
X166080440Y-68374260D01*
X166182040Y-68386960D01*
X166265860Y-68498720D01*
G36*
X150959820Y-67457320D02*
G01*
X150891240Y-67569080D01*
X150832820Y-67584320D01*
X150721060Y-67515740D01*
X150705820Y-67457320D01*
X150774400Y-67345560D01*
X150832820Y-67330320D01*
X150944580Y-67398900D01*
X150959820Y-67457320D01*
G37*
X150959820Y-67457320D02*
X150891240Y-67569080D01*
X150832820Y-67584320D01*
X150721060Y-67515740D01*
X150705820Y-67457320D01*
X150774400Y-67345560D01*
X150832820Y-67330320D01*
X150944580Y-67398900D01*
X150959820Y-67457320D01*
G36*
X152049480Y-67424300D02*
G01*
X152021540Y-67492880D01*
X151897080Y-67579240D01*
X151772620Y-67513200D01*
X151762460Y-67497960D01*
X151782780Y-67401440D01*
X151846280Y-67360800D01*
X152001220Y-67345560D01*
X152049480Y-67424300D01*
G37*
X152049480Y-67424300D02*
X152021540Y-67492880D01*
X151897080Y-67579240D01*
X151772620Y-67513200D01*
X151762460Y-67497960D01*
X151782780Y-67401440D01*
X151846280Y-67360800D01*
X152001220Y-67345560D01*
X152049480Y-67424300D01*
G36*
X153075640Y-67457320D02*
G01*
X153007060Y-67569080D01*
X152948640Y-67584320D01*
X152836880Y-67515740D01*
X152821640Y-67457320D01*
X152890220Y-67345560D01*
X152948640Y-67330320D01*
X153060400Y-67398900D01*
X153075640Y-67457320D01*
G37*
X153075640Y-67457320D02*
X153007060Y-67569080D01*
X152948640Y-67584320D01*
X152836880Y-67515740D01*
X152821640Y-67457320D01*
X152890220Y-67345560D01*
X152948640Y-67330320D01*
X153060400Y-67398900D01*
X153075640Y-67457320D01*
G36*
X154157680Y-67429380D02*
G01*
X154058620Y-67548760D01*
X153926540Y-67551300D01*
X153896060Y-67528440D01*
X153840180Y-67409060D01*
X153934160Y-67337940D01*
X154015440Y-67330320D01*
X154142440Y-67368420D01*
X154157680Y-67429380D01*
G37*
X154157680Y-67429380D02*
X154058620Y-67548760D01*
X153926540Y-67551300D01*
X153896060Y-67528440D01*
X153840180Y-67409060D01*
X153934160Y-67337940D01*
X154015440Y-67330320D01*
X154142440Y-67368420D01*
X154157680Y-67429380D01*
G36*
X155194000Y-67457320D02*
G01*
X155125420Y-67569080D01*
X155067000Y-67584320D01*
X154952700Y-67515740D01*
X154940000Y-67457320D01*
X155006040Y-67345560D01*
X155067000Y-67330320D01*
X155178760Y-67398900D01*
X155194000Y-67457320D01*
G37*
X155194000Y-67457320D02*
X155125420Y-67569080D01*
X155067000Y-67584320D01*
X154952700Y-67515740D01*
X154940000Y-67457320D01*
X155006040Y-67345560D01*
X155067000Y-67330320D01*
X155178760Y-67398900D01*
X155194000Y-67457320D01*
G36*
X156258260Y-67444620D02*
G01*
X156250640Y-67497960D01*
X156128720Y-67579240D01*
X156004260Y-67508120D01*
X155994100Y-67492880D01*
X155973780Y-67376040D01*
X156077920Y-67337940D01*
X156169360Y-67360800D01*
X156258260Y-67444620D01*
G37*
X156258260Y-67444620D02*
X156250640Y-67497960D01*
X156128720Y-67579240D01*
X156004260Y-67508120D01*
X155994100Y-67492880D01*
X155973780Y-67376040D01*
X156077920Y-67337940D01*
X156169360Y-67360800D01*
X156258260Y-67444620D01*
G36*
X157309820Y-67457320D02*
G01*
X157241240Y-67569080D01*
X157182820Y-67584320D01*
X157071060Y-67515740D01*
X157055820Y-67457320D01*
X157124400Y-67345560D01*
X157182820Y-67330320D01*
X157294580Y-67398900D01*
X157309820Y-67457320D01*
G37*
X157309820Y-67457320D02*
X157241240Y-67569080D01*
X157182820Y-67584320D01*
X157071060Y-67515740D01*
X157055820Y-67457320D01*
X157124400Y-67345560D01*
X157182820Y-67330320D01*
X157294580Y-67398900D01*
X157309820Y-67457320D01*
G36*
X158325820Y-67457320D02*
G01*
X158275020Y-67574160D01*
X158155640Y-67551300D01*
X158127700Y-67528440D01*
X158074360Y-67403980D01*
X158163260Y-67332860D01*
X158198820Y-67330320D01*
X158310580Y-67398900D01*
X158325820Y-67457320D01*
G37*
X158325820Y-67457320D02*
X158275020Y-67574160D01*
X158155640Y-67551300D01*
X158127700Y-67528440D01*
X158074360Y-67403980D01*
X158163260Y-67332860D01*
X158198820Y-67330320D01*
X158310580Y-67398900D01*
X158325820Y-67457320D01*
G36*
X159397700Y-67378580D02*
G01*
X159385000Y-67480180D01*
X159273240Y-67564000D01*
X159186880Y-67528440D01*
X159171640Y-67464940D01*
X159240220Y-67348100D01*
X159306260Y-67330320D01*
X159397700Y-67378580D01*
G37*
X159397700Y-67378580D02*
X159385000Y-67480180D01*
X159273240Y-67564000D01*
X159186880Y-67528440D01*
X159171640Y-67464940D01*
X159240220Y-67348100D01*
X159306260Y-67330320D01*
X159397700Y-67378580D01*
G36*
X160441640Y-67457320D02*
G01*
X160390840Y-67574160D01*
X160274000Y-67551300D01*
X160243520Y-67528440D01*
X160190180Y-67403980D01*
X160279080Y-67332860D01*
X160314640Y-67330320D01*
X160426400Y-67398900D01*
X160441640Y-67457320D01*
G37*
X160441640Y-67457320D02*
X160390840Y-67574160D01*
X160274000Y-67551300D01*
X160243520Y-67528440D01*
X160190180Y-67403980D01*
X160279080Y-67332860D01*
X160314640Y-67330320D01*
X160426400Y-67398900D01*
X160441640Y-67457320D01*
G36*
X161531300Y-67424300D02*
G01*
X161503360Y-67492880D01*
X161381440Y-67579240D01*
X161256980Y-67513200D01*
X161246820Y-67497960D01*
X161264600Y-67401440D01*
X161328100Y-67360800D01*
X161483040Y-67345560D01*
X161531300Y-67424300D01*
G37*
X161531300Y-67424300D02*
X161503360Y-67492880D01*
X161381440Y-67579240D01*
X161256980Y-67513200D01*
X161246820Y-67497960D01*
X161264600Y-67401440D01*
X161328100Y-67360800D01*
X161483040Y-67345560D01*
X161531300Y-67424300D01*
G36*
X162560000Y-67457320D02*
G01*
X162491420Y-67569080D01*
X162433000Y-67584320D01*
X162318700Y-67515740D01*
X162306000Y-67457320D01*
X162372040Y-67345560D01*
X162433000Y-67330320D01*
X162544760Y-67398900D01*
X162560000Y-67457320D01*
G37*
X162560000Y-67457320D02*
X162491420Y-67569080D01*
X162433000Y-67584320D01*
X162318700Y-67515740D01*
X162306000Y-67457320D01*
X162372040Y-67345560D01*
X162433000Y-67330320D01*
X162544760Y-67398900D01*
X162560000Y-67457320D01*
G36*
X163647120Y-67424300D02*
G01*
X163621720Y-67492880D01*
X163497260Y-67579240D01*
X163372800Y-67513200D01*
X163362640Y-67497960D01*
X163380420Y-67401440D01*
X163446460Y-67360800D01*
X163598860Y-67345560D01*
X163647120Y-67424300D01*
G37*
X163647120Y-67424300D02*
X163621720Y-67492880D01*
X163497260Y-67579240D01*
X163372800Y-67513200D01*
X163362640Y-67497960D01*
X163380420Y-67401440D01*
X163446460Y-67360800D01*
X163598860Y-67345560D01*
X163647120Y-67424300D01*
G36*
X164675820Y-67457320D02*
G01*
X164607240Y-67569080D01*
X164548820Y-67584320D01*
X164437060Y-67515740D01*
X164421820Y-67457320D01*
X164490400Y-67345560D01*
X164548820Y-67330320D01*
X164660580Y-67398900D01*
X164675820Y-67457320D01*
G37*
X164675820Y-67457320D02*
X164607240Y-67569080D01*
X164548820Y-67584320D01*
X164437060Y-67515740D01*
X164421820Y-67457320D01*
X164490400Y-67345560D01*
X164548820Y-67330320D01*
X164660580Y-67398900D01*
X164675820Y-67457320D01*
G36*
X165740080Y-67444620D02*
G01*
X165735000Y-67497960D01*
X165613080Y-67579240D01*
X165486080Y-67508120D01*
X165475920Y-67492880D01*
X165458140Y-67376040D01*
X165562280Y-67337940D01*
X165651180Y-67360800D01*
X165740080Y-67444620D01*
G37*
X165740080Y-67444620D02*
X165735000Y-67497960D01*
X165613080Y-67579240D01*
X165486080Y-67508120D01*
X165475920Y-67492880D01*
X165458140Y-67376040D01*
X165562280Y-67337940D01*
X165651180Y-67360800D01*
X165740080Y-67444620D01*
G36*
X166791640Y-67457320D02*
G01*
X166723060Y-67569080D01*
X166664640Y-67584320D01*
X166552880Y-67515740D01*
X166537640Y-67457320D01*
X166606220Y-67345560D01*
X166664640Y-67330320D01*
X166776400Y-67398900D01*
X166791640Y-67457320D01*
G37*
X166791640Y-67457320D02*
X166723060Y-67569080D01*
X166664640Y-67584320D01*
X166552880Y-67515740D01*
X166537640Y-67457320D01*
X166606220Y-67345560D01*
X166664640Y-67330320D01*
X166776400Y-67398900D01*
X166791640Y-67457320D01*
G36*
X151488140Y-66354960D02*
G01*
X151437340Y-66436240D01*
X151350980Y-66469260D01*
X151234140Y-66454020D01*
X151231600Y-66385440D01*
X151323040Y-66286380D01*
X151437340Y-66286380D01*
X151488140Y-66354960D01*
G37*
X151488140Y-66354960D02*
X151437340Y-66436240D01*
X151350980Y-66469260D01*
X151234140Y-66454020D01*
X151231600Y-66385440D01*
X151323040Y-66286380D01*
X151437340Y-66286380D01*
X151488140Y-66354960D01*
G36*
X152549860Y-66382900D02*
G01*
X152511760Y-66469260D01*
X152448260Y-66484500D01*
X152331420Y-66415920D01*
X152313640Y-66349880D01*
X152364440Y-66255900D01*
X152466040Y-66271140D01*
X152549860Y-66382900D01*
G37*
X152549860Y-66382900D02*
X152511760Y-66469260D01*
X152448260Y-66484500D01*
X152331420Y-66415920D01*
X152313640Y-66349880D01*
X152364440Y-66255900D01*
X152466040Y-66271140D01*
X152549860Y-66382900D01*
G36*
X153583640Y-66349880D02*
G01*
X153515060Y-66466720D01*
X153449020Y-66484500D01*
X153352500Y-66433700D01*
X153349960Y-66382900D01*
X153433780Y-66271140D01*
X153535380Y-66255900D01*
X153583640Y-66349880D01*
G37*
X153583640Y-66349880D02*
X153515060Y-66466720D01*
X153449020Y-66484500D01*
X153352500Y-66433700D01*
X153349960Y-66382900D01*
X153433780Y-66271140D01*
X153535380Y-66255900D01*
X153583640Y-66349880D01*
G36*
X154665680Y-66382900D02*
G01*
X154627580Y-66469260D01*
X154564080Y-66484500D01*
X154447240Y-66415920D01*
X154432000Y-66349880D01*
X154480260Y-66255900D01*
X154581860Y-66271140D01*
X154665680Y-66382900D01*
G37*
X154665680Y-66382900D02*
X154627580Y-66469260D01*
X154564080Y-66484500D01*
X154447240Y-66415920D01*
X154432000Y-66349880D01*
X154480260Y-66255900D01*
X154581860Y-66271140D01*
X154665680Y-66382900D01*
G36*
X155702000Y-66349880D02*
G01*
X155633420Y-66466720D01*
X155567380Y-66484500D01*
X155468320Y-66433700D01*
X155465780Y-66382900D01*
X155549600Y-66271140D01*
X155651200Y-66255900D01*
X155702000Y-66349880D01*
G37*
X155702000Y-66349880D02*
X155633420Y-66466720D01*
X155567380Y-66484500D01*
X155468320Y-66433700D01*
X155465780Y-66382900D01*
X155549600Y-66271140D01*
X155651200Y-66255900D01*
X155702000Y-66349880D01*
G36*
X156801820Y-66403220D02*
G01*
X156738320Y-66471800D01*
X156611320Y-66471800D01*
X156509720Y-66403220D01*
X156519880Y-66296540D01*
X156545280Y-66273680D01*
X156687520Y-66260980D01*
X156791660Y-66352420D01*
X156801820Y-66403220D01*
G37*
X156801820Y-66403220D02*
X156738320Y-66471800D01*
X156611320Y-66471800D01*
X156509720Y-66403220D01*
X156519880Y-66296540D01*
X156545280Y-66273680D01*
X156687520Y-66260980D01*
X156791660Y-66352420D01*
X156801820Y-66403220D01*
G36*
X157817820Y-66357500D02*
G01*
X157749240Y-66469260D01*
X157690820Y-66484500D01*
X157579060Y-66415920D01*
X157563820Y-66357500D01*
X157632400Y-66243200D01*
X157690820Y-66230500D01*
X157802580Y-66296540D01*
X157817820Y-66357500D01*
G37*
X157817820Y-66357500D02*
X157749240Y-66469260D01*
X157690820Y-66484500D01*
X157579060Y-66415920D01*
X157563820Y-66357500D01*
X157632400Y-66243200D01*
X157690820Y-66230500D01*
X157802580Y-66296540D01*
X157817820Y-66357500D01*
G36*
X158897320Y-66377820D02*
G01*
X158856680Y-66461640D01*
X158750000Y-66484500D01*
X158615380Y-66443860D01*
X158600140Y-66377820D01*
X158704280Y-66278760D01*
X158750000Y-66271140D01*
X158877000Y-66337180D01*
X158897320Y-66377820D01*
G37*
X158897320Y-66377820D02*
X158856680Y-66461640D01*
X158750000Y-66484500D01*
X158615380Y-66443860D01*
X158600140Y-66377820D01*
X158704280Y-66278760D01*
X158750000Y-66271140D01*
X158877000Y-66337180D01*
X158897320Y-66377820D01*
G36*
X159933640Y-66357500D02*
G01*
X159865060Y-66469260D01*
X159806640Y-66484500D01*
X159694880Y-66415920D01*
X159679640Y-66357500D01*
X159748220Y-66243200D01*
X159806640Y-66230500D01*
X159918400Y-66296540D01*
X159933640Y-66357500D01*
G37*
X159933640Y-66357500D02*
X159865060Y-66469260D01*
X159806640Y-66484500D01*
X159694880Y-66415920D01*
X159679640Y-66357500D01*
X159748220Y-66243200D01*
X159806640Y-66230500D01*
X159918400Y-66296540D01*
X159933640Y-66357500D01*
G36*
X160972500Y-66354960D02*
G01*
X160919160Y-66436240D01*
X160835340Y-66469260D01*
X160715960Y-66454020D01*
X160713420Y-66385440D01*
X160804860Y-66286380D01*
X160919160Y-66286380D01*
X160972500Y-66354960D01*
G37*
X160972500Y-66354960D02*
X160919160Y-66436240D01*
X160835340Y-66469260D01*
X160715960Y-66454020D01*
X160713420Y-66385440D01*
X160804860Y-66286380D01*
X160919160Y-66286380D01*
X160972500Y-66354960D01*
G36*
X162052000Y-66357500D02*
G01*
X161983420Y-66469260D01*
X161925000Y-66484500D01*
X161810700Y-66415920D01*
X161798000Y-66357500D01*
X161864040Y-66243200D01*
X161925000Y-66230500D01*
X162036760Y-66296540D01*
X162052000Y-66357500D01*
G37*
X162052000Y-66357500D02*
X161983420Y-66469260D01*
X161925000Y-66484500D01*
X161810700Y-66415920D01*
X161798000Y-66357500D01*
X161864040Y-66243200D01*
X161925000Y-66230500D01*
X162036760Y-66296540D01*
X162052000Y-66357500D01*
G36*
X163088320Y-66354960D02*
G01*
X163037520Y-66436240D01*
X162951160Y-66469260D01*
X162834320Y-66454020D01*
X162831780Y-66385440D01*
X162920680Y-66286380D01*
X163037520Y-66286380D01*
X163088320Y-66354960D01*
G37*
X163088320Y-66354960D02*
X163037520Y-66436240D01*
X162951160Y-66469260D01*
X162834320Y-66454020D01*
X162831780Y-66385440D01*
X162920680Y-66286380D01*
X163037520Y-66286380D01*
X163088320Y-66354960D01*
G36*
X164147500Y-66382900D02*
G01*
X164111940Y-66469260D01*
X164048440Y-66484500D01*
X163931600Y-66415920D01*
X163913820Y-66349880D01*
X163962080Y-66255900D01*
X164063680Y-66271140D01*
X164147500Y-66382900D01*
G37*
X164147500Y-66382900D02*
X164111940Y-66469260D01*
X164048440Y-66484500D01*
X163931600Y-66415920D01*
X163913820Y-66349880D01*
X163962080Y-66255900D01*
X164063680Y-66271140D01*
X164147500Y-66382900D01*
G36*
X165183820Y-66349880D02*
G01*
X165115240Y-66466720D01*
X165049200Y-66484500D01*
X164950140Y-66433700D01*
X164947600Y-66382900D01*
X165033960Y-66271140D01*
X165135560Y-66255900D01*
X165183820Y-66349880D01*
G37*
X165183820Y-66349880D02*
X165115240Y-66466720D01*
X165049200Y-66484500D01*
X164950140Y-66433700D01*
X164947600Y-66382900D01*
X165033960Y-66271140D01*
X165135560Y-66255900D01*
X165183820Y-66349880D01*
G36*
X166265860Y-66382900D02*
G01*
X166227760Y-66469260D01*
X166164260Y-66484500D01*
X166047420Y-66415920D01*
X166029640Y-66349880D01*
X166080440Y-66255900D01*
X166182040Y-66271140D01*
X166265860Y-66382900D01*
G37*
X166265860Y-66382900D02*
X166227760Y-66469260D01*
X166164260Y-66484500D01*
X166047420Y-66415920D01*
X166029640Y-66349880D01*
X166080440Y-66255900D01*
X166182040Y-66271140D01*
X166265860Y-66382900D01*
G36*
X150959820Y-65341500D02*
G01*
X150891240Y-65453260D01*
X150832820Y-65468500D01*
X150721060Y-65399920D01*
X150705820Y-65341500D01*
X150774400Y-65227200D01*
X150832820Y-65214500D01*
X150944580Y-65280540D01*
X150959820Y-65341500D01*
G37*
X150959820Y-65341500D02*
X150891240Y-65453260D01*
X150832820Y-65468500D01*
X150721060Y-65399920D01*
X150705820Y-65341500D01*
X150774400Y-65227200D01*
X150832820Y-65214500D01*
X150944580Y-65280540D01*
X150959820Y-65341500D01*
G36*
X152049480Y-65308480D02*
G01*
X152021540Y-65377060D01*
X151897080Y-65463420D01*
X151772620Y-65397380D01*
X151762460Y-65382140D01*
X151782780Y-65285620D01*
X151846280Y-65244980D01*
X152001220Y-65227200D01*
X152049480Y-65308480D01*
G37*
X152049480Y-65308480D02*
X152021540Y-65377060D01*
X151897080Y-65463420D01*
X151772620Y-65397380D01*
X151762460Y-65382140D01*
X151782780Y-65285620D01*
X151846280Y-65244980D01*
X152001220Y-65227200D01*
X152049480Y-65308480D01*
G36*
X153075640Y-65341500D02*
G01*
X153007060Y-65453260D01*
X152948640Y-65468500D01*
X152836880Y-65399920D01*
X152821640Y-65341500D01*
X152890220Y-65227200D01*
X152948640Y-65214500D01*
X153060400Y-65280540D01*
X153075640Y-65341500D01*
G37*
X153075640Y-65341500D02*
X153007060Y-65453260D01*
X152948640Y-65468500D01*
X152836880Y-65399920D01*
X152821640Y-65341500D01*
X152890220Y-65227200D01*
X152948640Y-65214500D01*
X153060400Y-65280540D01*
X153075640Y-65341500D01*
G36*
X154142440Y-65328800D02*
G01*
X154134820Y-65382140D01*
X154012900Y-65463420D01*
X153885900Y-65392300D01*
X153875740Y-65377060D01*
X153857960Y-65257680D01*
X153962100Y-65222120D01*
X154051000Y-65244980D01*
X154142440Y-65328800D01*
G37*
X154142440Y-65328800D02*
X154134820Y-65382140D01*
X154012900Y-65463420D01*
X153885900Y-65392300D01*
X153875740Y-65377060D01*
X153857960Y-65257680D01*
X153962100Y-65222120D01*
X154051000Y-65244980D01*
X154142440Y-65328800D01*
G36*
X155194000Y-65341500D02*
G01*
X155125420Y-65453260D01*
X155067000Y-65468500D01*
X154952700Y-65399920D01*
X154940000Y-65341500D01*
X155006040Y-65227200D01*
X155067000Y-65214500D01*
X155178760Y-65280540D01*
X155194000Y-65341500D01*
G37*
X155194000Y-65341500D02*
X155125420Y-65453260D01*
X155067000Y-65468500D01*
X154952700Y-65399920D01*
X154940000Y-65341500D01*
X155006040Y-65227200D01*
X155067000Y-65214500D01*
X155178760Y-65280540D01*
X155194000Y-65341500D01*
G36*
X156258260Y-65328800D02*
G01*
X156250640Y-65382140D01*
X156128720Y-65463420D01*
X156004260Y-65392300D01*
X155994100Y-65377060D01*
X155973780Y-65257680D01*
X156077920Y-65222120D01*
X156169360Y-65244980D01*
X156258260Y-65328800D01*
G37*
X156258260Y-65328800D02*
X156250640Y-65382140D01*
X156128720Y-65463420D01*
X156004260Y-65392300D01*
X155994100Y-65377060D01*
X155973780Y-65257680D01*
X156077920Y-65222120D01*
X156169360Y-65244980D01*
X156258260Y-65328800D01*
G36*
X157309820Y-65341500D02*
G01*
X157241240Y-65453260D01*
X157182820Y-65468500D01*
X157071060Y-65399920D01*
X157055820Y-65341500D01*
X157124400Y-65227200D01*
X157182820Y-65214500D01*
X157294580Y-65280540D01*
X157309820Y-65341500D01*
G37*
X157309820Y-65341500D02*
X157241240Y-65453260D01*
X157182820Y-65468500D01*
X157071060Y-65399920D01*
X157055820Y-65341500D01*
X157124400Y-65227200D01*
X157182820Y-65214500D01*
X157294580Y-65280540D01*
X157309820Y-65341500D01*
G36*
X158325820Y-65341500D02*
G01*
X158275020Y-65455800D01*
X158155640Y-65435480D01*
X158127700Y-65410080D01*
X158074360Y-65285620D01*
X158163260Y-65217040D01*
X158198820Y-65214500D01*
X158310580Y-65280540D01*
X158325820Y-65341500D01*
G37*
X158325820Y-65341500D02*
X158275020Y-65455800D01*
X158155640Y-65435480D01*
X158127700Y-65410080D01*
X158074360Y-65285620D01*
X158163260Y-65217040D01*
X158198820Y-65214500D01*
X158310580Y-65280540D01*
X158325820Y-65341500D01*
G36*
X159397700Y-65262760D02*
G01*
X159385000Y-65364360D01*
X159273240Y-65448180D01*
X159186880Y-65410080D01*
X159171640Y-65346580D01*
X159240220Y-65229740D01*
X159306260Y-65214500D01*
X159397700Y-65262760D01*
G37*
X159397700Y-65262760D02*
X159385000Y-65364360D01*
X159273240Y-65448180D01*
X159186880Y-65410080D01*
X159171640Y-65346580D01*
X159240220Y-65229740D01*
X159306260Y-65214500D01*
X159397700Y-65262760D01*
G36*
X160441640Y-65341500D02*
G01*
X160373060Y-65453260D01*
X160314640Y-65468500D01*
X160202880Y-65399920D01*
X160187640Y-65341500D01*
X160256220Y-65227200D01*
X160314640Y-65214500D01*
X160426400Y-65280540D01*
X160441640Y-65341500D01*
G37*
X160441640Y-65341500D02*
X160373060Y-65453260D01*
X160314640Y-65468500D01*
X160202880Y-65399920D01*
X160187640Y-65341500D01*
X160256220Y-65227200D01*
X160314640Y-65214500D01*
X160426400Y-65280540D01*
X160441640Y-65341500D01*
G36*
X161531300Y-65308480D02*
G01*
X161503360Y-65377060D01*
X161381440Y-65463420D01*
X161256980Y-65397380D01*
X161246820Y-65382140D01*
X161264600Y-65285620D01*
X161328100Y-65244980D01*
X161483040Y-65227200D01*
X161531300Y-65308480D01*
G37*
X161531300Y-65308480D02*
X161503360Y-65377060D01*
X161381440Y-65463420D01*
X161256980Y-65397380D01*
X161246820Y-65382140D01*
X161264600Y-65285620D01*
X161328100Y-65244980D01*
X161483040Y-65227200D01*
X161531300Y-65308480D01*
G36*
X162560000Y-65341500D02*
G01*
X162491420Y-65453260D01*
X162433000Y-65468500D01*
X162318700Y-65399920D01*
X162306000Y-65341500D01*
X162372040Y-65227200D01*
X162433000Y-65214500D01*
X162544760Y-65280540D01*
X162560000Y-65341500D01*
G37*
X162560000Y-65341500D02*
X162491420Y-65453260D01*
X162433000Y-65468500D01*
X162318700Y-65399920D01*
X162306000Y-65341500D01*
X162372040Y-65227200D01*
X162433000Y-65214500D01*
X162544760Y-65280540D01*
X162560000Y-65341500D01*
G36*
X163647120Y-65308480D02*
G01*
X163621720Y-65377060D01*
X163497260Y-65463420D01*
X163372800Y-65397380D01*
X163362640Y-65382140D01*
X163380420Y-65285620D01*
X163446460Y-65244980D01*
X163598860Y-65227200D01*
X163647120Y-65308480D01*
G37*
X163647120Y-65308480D02*
X163621720Y-65377060D01*
X163497260Y-65463420D01*
X163372800Y-65397380D01*
X163362640Y-65382140D01*
X163380420Y-65285620D01*
X163446460Y-65244980D01*
X163598860Y-65227200D01*
X163647120Y-65308480D01*
G36*
X164675820Y-65341500D02*
G01*
X164607240Y-65453260D01*
X164548820Y-65468500D01*
X164437060Y-65399920D01*
X164421820Y-65341500D01*
X164490400Y-65227200D01*
X164548820Y-65214500D01*
X164660580Y-65280540D01*
X164675820Y-65341500D01*
G37*
X164675820Y-65341500D02*
X164607240Y-65453260D01*
X164548820Y-65468500D01*
X164437060Y-65399920D01*
X164421820Y-65341500D01*
X164490400Y-65227200D01*
X164548820Y-65214500D01*
X164660580Y-65280540D01*
X164675820Y-65341500D01*
G36*
X165740080Y-65328800D02*
G01*
X165735000Y-65382140D01*
X165613080Y-65463420D01*
X165486080Y-65392300D01*
X165475920Y-65377060D01*
X165458140Y-65257680D01*
X165562280Y-65222120D01*
X165651180Y-65244980D01*
X165740080Y-65328800D01*
G37*
X165740080Y-65328800D02*
X165735000Y-65382140D01*
X165613080Y-65463420D01*
X165486080Y-65392300D01*
X165475920Y-65377060D01*
X165458140Y-65257680D01*
X165562280Y-65222120D01*
X165651180Y-65244980D01*
X165740080Y-65328800D01*
G36*
X166791640Y-65341500D02*
G01*
X166723060Y-65453260D01*
X166664640Y-65468500D01*
X166552880Y-65399920D01*
X166537640Y-65341500D01*
X166606220Y-65227200D01*
X166664640Y-65214500D01*
X166776400Y-65280540D01*
X166791640Y-65341500D01*
G37*
X166791640Y-65341500D02*
X166723060Y-65453260D01*
X166664640Y-65468500D01*
X166552880Y-65399920D01*
X166537640Y-65341500D01*
X166606220Y-65227200D01*
X166664640Y-65214500D01*
X166776400Y-65280540D01*
X166791640Y-65341500D01*
G36*
X154246580Y-75775820D02*
G01*
X154231340Y-75923140D01*
X154099260Y-75966320D01*
X154091640Y-75966320D01*
X153957020Y-75928220D01*
X153936700Y-75783440D01*
X153939240Y-75775820D01*
X154007820Y-75625960D01*
X154091640Y-75585320D01*
X154200860Y-75656440D01*
X154246580Y-75775820D01*
G37*
X154246580Y-75775820D02*
X154231340Y-75923140D01*
X154099260Y-75966320D01*
X154091640Y-75966320D01*
X153957020Y-75928220D01*
X153936700Y-75783440D01*
X153939240Y-75775820D01*
X154007820Y-75625960D01*
X154091640Y-75585320D01*
X154200860Y-75656440D01*
X154246580Y-75775820D01*
G36*
X163659820Y-76314300D02*
G01*
X163603940Y-76446380D01*
X163532820Y-76474320D01*
X163431220Y-76400660D01*
X163405820Y-76266040D01*
X163433760Y-76113640D01*
X163532820Y-76103480D01*
X163639500Y-76220320D01*
X163659820Y-76314300D01*
G37*
X163659820Y-76314300D02*
X163603940Y-76446380D01*
X163532820Y-76474320D01*
X163431220Y-76400660D01*
X163405820Y-76266040D01*
X163433760Y-76113640D01*
X163532820Y-76103480D01*
X163639500Y-76220320D01*
X163659820Y-76314300D01*
G36*
X163527740Y-75707240D02*
G01*
X163517580Y-75813920D01*
X163492180Y-75836780D01*
X163418520Y-75819000D01*
X163405820Y-75758040D01*
X163433760Y-75636120D01*
X163507420Y-75674220D01*
X163527740Y-75707240D01*
G37*
X163527740Y-75707240D02*
X163517580Y-75813920D01*
X163492180Y-75836780D01*
X163418520Y-75819000D01*
X163405820Y-75758040D01*
X163433760Y-75636120D01*
X163507420Y-75674220D01*
X163527740Y-75707240D01*
G36*
X160423860Y-74094340D02*
G01*
X160401000Y-74371200D01*
X160357820Y-74518520D01*
X160276540Y-74582020D01*
X160220660Y-74594720D01*
X160047940Y-74559160D01*
X159986980Y-74482960D01*
X159938720Y-74246740D01*
X159936180Y-73964800D01*
X159971740Y-73703180D01*
X160042860Y-73530460D01*
X160060640Y-73510140D01*
X160223200Y-73444100D01*
X160342580Y-73527920D01*
X160413700Y-73748900D01*
X160423860Y-74094340D01*
G37*
X160423860Y-74094340D02*
X160401000Y-74371200D01*
X160357820Y-74518520D01*
X160276540Y-74582020D01*
X160220660Y-74594720D01*
X160047940Y-74559160D01*
X159986980Y-74482960D01*
X159938720Y-74246740D01*
X159936180Y-73964800D01*
X159971740Y-73703180D01*
X160042860Y-73530460D01*
X160060640Y-73510140D01*
X160223200Y-73444100D01*
X160342580Y-73527920D01*
X160413700Y-73748900D01*
X160423860Y-74094340D01*
G36*
X157558740Y-73766680D02*
G01*
X157510480Y-73891140D01*
X157314900Y-73934320D01*
X157309820Y-73934320D01*
X157126940Y-73911460D01*
X157060900Y-73814940D01*
X157055820Y-73731120D01*
X157111700Y-73545700D01*
X157246320Y-73461880D01*
X157401260Y-73507600D01*
X157454600Y-73563480D01*
X157558740Y-73766680D01*
G37*
X157558740Y-73766680D02*
X157510480Y-73891140D01*
X157314900Y-73934320D01*
X157309820Y-73934320D01*
X157126940Y-73911460D01*
X157060900Y-73814940D01*
X157055820Y-73731120D01*
X157111700Y-73545700D01*
X157246320Y-73461880D01*
X157401260Y-73507600D01*
X157454600Y-73563480D01*
X157558740Y-73766680D01*
G36*
X161960560Y-73766680D02*
G01*
X161914840Y-73891140D01*
X161719260Y-73934320D01*
X161711640Y-73934320D01*
X161528760Y-73911460D01*
X161462720Y-73814940D01*
X161457640Y-73731120D01*
X161516060Y-73545700D01*
X161648140Y-73461880D01*
X161803080Y-73507600D01*
X161858960Y-73563480D01*
X161960560Y-73766680D01*
G37*
X161960560Y-73766680D02*
X161914840Y-73891140D01*
X161719260Y-73934320D01*
X161711640Y-73934320D01*
X161528760Y-73911460D01*
X161462720Y-73814940D01*
X161457640Y-73731120D01*
X161516060Y-73545700D01*
X161648140Y-73461880D01*
X161803080Y-73507600D01*
X161858960Y-73563480D01*
X161960560Y-73766680D01*
D13*
%TO.C,BZ1*%
X104080000Y-110232500D02*
X104080000Y-108902500D01*
X105410000Y-110232500D02*
X104080000Y-110232500D01*
X106680000Y-110232500D02*
X106680000Y-107572500D01*
X106680000Y-107572500D02*
X109280000Y-107572500D01*
X106680000Y-110232500D02*
X109280000Y-110232500D01*
X109280000Y-110232500D02*
X109280000Y-107572500D01*
D10*
%TO.C,C1*%
X144716500Y-72453500D02*
G75*
G03*
X144716500Y-69151500I-1651000J1651000D01*
G01*
X144208500Y-69151500D02*
G75*
G03*
X144208500Y-72453500I1651000J-1651000D01*
G01*
D13*
%TO.C,C2*%
X130890000Y-60372500D02*
G75*
G03*
X130890000Y-60372500I-2620000J0D01*
G01*
D10*
%TO.C,C3*%
X108648500Y-58674000D02*
G75*
G03*
X108648500Y-61976000I1651000J-1651000D01*
G01*
X109156500Y-61976000D02*
G75*
G03*
X109156500Y-58674000I-1651000J1651000D01*
G01*
%TO.C,C7*%
X169291000Y-59626500D02*
G75*
G03*
X169291000Y-62928500I1651000J-1651000D01*
G01*
X169799000Y-62928500D02*
G75*
G03*
X169799000Y-59626500I-1651000J1651000D01*
G01*
D13*
%TO.C,CI1*%
X108207500Y-81170000D02*
X108207500Y-82820000D01*
X143887500Y-81170000D02*
X108207500Y-81170000D01*
X143887500Y-86470000D02*
X143887500Y-81170000D01*
X108207500Y-86470000D02*
X143887500Y-86470000D01*
X108207500Y-84820000D02*
X108207500Y-86470000D01*
X108207500Y-82820000D02*
G75*
G02*
X108207500Y-84820000I0J-1000000D01*
G01*
%TO.C,CI2*%
X108207500Y-99267500D02*
X108207500Y-100917500D01*
X118487500Y-99267500D02*
X108207500Y-99267500D01*
X118487500Y-104567500D02*
X118487500Y-99267500D01*
X108207500Y-104567500D02*
X118487500Y-104567500D01*
X108207500Y-102917500D02*
X108207500Y-104567500D01*
X108207500Y-100917500D02*
G75*
G02*
X108207500Y-102917500I0J-1000000D01*
G01*
%TO.C,P1*%
X151387500Y-61972500D02*
X151387500Y-60642500D01*
X152717500Y-61972500D02*
X151387500Y-61972500D01*
X153987500Y-61972500D02*
X153987500Y-59312500D01*
X153987500Y-59312500D02*
X166747500Y-59312500D01*
X153987500Y-61972500D02*
X166747500Y-61972500D01*
X166747500Y-61972500D02*
X166747500Y-59312500D01*
%TO.C,P2*%
X124202500Y-61972500D02*
X124202500Y-59312500D01*
X121602500Y-61972500D02*
X124202500Y-61972500D01*
X121602500Y-59312500D02*
X124202500Y-59312500D01*
X121602500Y-61972500D02*
X121602500Y-59312500D01*
X120332500Y-61972500D02*
X119002500Y-61972500D01*
X119002500Y-61972500D02*
X119002500Y-60642500D01*
D18*
%TO.C,R3*%
X103632000Y-97536000D02*
X99568000Y-97536000D01*
X99568000Y-95504000D02*
X103632000Y-95504000D01*
X99060000Y-96520000D02*
X99568000Y-96520000D01*
X104140000Y-96520000D02*
X103632000Y-96520000D01*
X103632000Y-96520000D02*
X103632000Y-95504000D01*
X99568000Y-95504000D02*
X99568000Y-97536000D01*
X103632000Y-97536000D02*
X103632000Y-96520000D01*
X99568000Y-96012000D02*
X100076000Y-95504000D01*
%TO.C,R7*%
X99568000Y-70739000D02*
X103632000Y-70739000D01*
X103632000Y-72771000D02*
X99568000Y-72771000D01*
X104140000Y-71755000D02*
X103632000Y-71755000D01*
X99060000Y-71755000D02*
X99568000Y-71755000D01*
X99568000Y-71755000D02*
X99568000Y-72771000D01*
X103632000Y-72771000D02*
X103632000Y-70739000D01*
X99568000Y-70739000D02*
X99568000Y-71755000D01*
X103632000Y-72263000D02*
X103124000Y-72771000D01*
%TO.C,R8*%
X99568000Y-84709000D02*
X103632000Y-84709000D01*
X103632000Y-86741000D02*
X99568000Y-86741000D01*
X104140000Y-85725000D02*
X103632000Y-85725000D01*
X99060000Y-85725000D02*
X99568000Y-85725000D01*
X99568000Y-85725000D02*
X99568000Y-86741000D01*
X103632000Y-86741000D02*
X103632000Y-84709000D01*
X99568000Y-84709000D02*
X99568000Y-85725000D01*
X103632000Y-86233000D02*
X103124000Y-86741000D01*
%TO.C,R9*%
X99568000Y-67246500D02*
X103632000Y-67246500D01*
X103632000Y-69278500D02*
X99568000Y-69278500D01*
X104140000Y-68262500D02*
X103632000Y-68262500D01*
X99060000Y-68262500D02*
X99568000Y-68262500D01*
X99568000Y-68262500D02*
X99568000Y-69278500D01*
X103632000Y-69278500D02*
X103632000Y-67246500D01*
X99568000Y-67246500D02*
X99568000Y-68262500D01*
X103632000Y-68770500D02*
X103124000Y-69278500D01*
%TO.C,R10*%
X99568000Y-81216500D02*
X103632000Y-81216500D01*
X103632000Y-83248500D02*
X99568000Y-83248500D01*
X104140000Y-82232500D02*
X103632000Y-82232500D01*
X99060000Y-82232500D02*
X99568000Y-82232500D01*
X99568000Y-82232500D02*
X99568000Y-83248500D01*
X103632000Y-83248500D02*
X103632000Y-81216500D01*
X99568000Y-81216500D02*
X99568000Y-82232500D01*
X103632000Y-82740500D02*
X103124000Y-83248500D01*
%TO.C,R11*%
X103632000Y-65278000D02*
X103124000Y-65786000D01*
X99568000Y-63754000D02*
X99568000Y-64770000D01*
X103632000Y-65786000D02*
X103632000Y-63754000D01*
X99568000Y-64770000D02*
X99568000Y-65786000D01*
X99060000Y-64770000D02*
X99568000Y-64770000D01*
X104140000Y-64770000D02*
X103632000Y-64770000D01*
X103632000Y-65786000D02*
X99568000Y-65786000D01*
X99568000Y-63754000D02*
X103632000Y-63754000D01*
%TO.C,R12*%
X103632000Y-79248000D02*
X103124000Y-79756000D01*
X99568000Y-77724000D02*
X99568000Y-78740000D01*
X103632000Y-79756000D02*
X103632000Y-77724000D01*
X99568000Y-78740000D02*
X99568000Y-79756000D01*
X99060000Y-78740000D02*
X99568000Y-78740000D01*
X104140000Y-78740000D02*
X103632000Y-78740000D01*
X103632000Y-79756000D02*
X99568000Y-79756000D01*
X99568000Y-77724000D02*
X103632000Y-77724000D01*
%TO.C,R13*%
X103632000Y-89725500D02*
X103124000Y-90233500D01*
X99568000Y-88201500D02*
X99568000Y-89217500D01*
X103632000Y-90233500D02*
X103632000Y-88201500D01*
X99568000Y-89217500D02*
X99568000Y-90233500D01*
X99060000Y-89217500D02*
X99568000Y-89217500D01*
X104140000Y-89217500D02*
X103632000Y-89217500D01*
X103632000Y-90233500D02*
X99568000Y-90233500D01*
X99568000Y-88201500D02*
X103632000Y-88201500D01*
%TO.C,R14*%
X103632000Y-75755500D02*
X103124000Y-76263500D01*
X99568000Y-74231500D02*
X99568000Y-75247500D01*
X103632000Y-76263500D02*
X103632000Y-74231500D01*
X99568000Y-75247500D02*
X99568000Y-76263500D01*
X99060000Y-75247500D02*
X99568000Y-75247500D01*
X104140000Y-75247500D02*
X103632000Y-75247500D01*
X103632000Y-76263500D02*
X99568000Y-76263500D01*
X99568000Y-74231500D02*
X103632000Y-74231500D01*
D15*
%TO.C,SW2*%
X178752500Y-84455000D02*
G75*
G03*
X178752500Y-84455000I-2540000J0D01*
G01*
X172402500Y-88265000D02*
X172402500Y-80645000D01*
X172402500Y-80645000D02*
X180022500Y-80645000D01*
X180022500Y-80645000D02*
X180022500Y-88265000D01*
X172402500Y-88265000D02*
X180022500Y-88265000D01*
%TO.C,SW3*%
X172402500Y-101282500D02*
X180022500Y-101282500D01*
X180022500Y-93662500D02*
X180022500Y-101282500D01*
X172402500Y-93662500D02*
X180022500Y-93662500D01*
X172402500Y-101282500D02*
X172402500Y-93662500D01*
X178752500Y-97472500D02*
G75*
G03*
X178752500Y-97472500I-2540000J0D01*
G01*
D19*
%TO.C,X2*%
X122491500Y-106553000D02*
X120713500Y-106553000D01*
X122618500Y-106553000D02*
X122491500Y-106553000D01*
X121602500Y-103251000D02*
X122110500Y-103251000D01*
X121602500Y-103251000D02*
X121602500Y-102743000D01*
X121602500Y-104394000D02*
X122110500Y-104394000D01*
X121602500Y-104394000D02*
X121602500Y-104902000D01*
X121094500Y-104394000D02*
X121602500Y-104394000D01*
X121094500Y-103251000D02*
X121602500Y-103251000D01*
X121094500Y-103632000D02*
X122110500Y-103632000D01*
X122110500Y-104013000D02*
X122110500Y-103632000D01*
X122110500Y-104013000D02*
X121094500Y-104013000D01*
X121094500Y-103632000D02*
X121094500Y-104013000D01*
D20*
X120967500Y-107950000D02*
X120332500Y-108585000D01*
X122237500Y-107950000D02*
X122872500Y-108585000D01*
X121094500Y-107823000D02*
X121094500Y-107315000D01*
X122110500Y-107823000D02*
X122110500Y-107442000D01*
D19*
X120586500Y-106553000D02*
X120586500Y-101092000D01*
X120586500Y-106553000D02*
X120713500Y-106553000D01*
X120713500Y-106934000D02*
X120713500Y-106553000D01*
X122618500Y-106553000D02*
X122618500Y-101092000D01*
X122491500Y-106934000D02*
X122491500Y-106553000D01*
X120840500Y-100838000D02*
X122364500Y-100838000D01*
X120713500Y-106934000D02*
X122491500Y-106934000D01*
D21*
X120891300Y-107569000D02*
X120891300Y-106984800D01*
X120891300Y-106984800D02*
X121297700Y-106984800D01*
X121297700Y-107569000D02*
X121297700Y-106984800D01*
X120891300Y-107569000D02*
X121297700Y-107569000D01*
X121907300Y-107569000D02*
X121907300Y-106984800D01*
X121907300Y-106984800D02*
X122313700Y-106984800D01*
X122313700Y-107569000D02*
X122313700Y-106984800D01*
X121907300Y-107569000D02*
X122313700Y-107569000D01*
D19*
X122618500Y-101092000D02*
G75*
G03*
X122364500Y-100838000I-254000J0D01*
G01*
X120840500Y-100838000D02*
G75*
G03*
X120586500Y-101092000I0J-254000D01*
G01*
D18*
%TO.C,R5*%
X99568000Y-92202000D02*
X100076000Y-91694000D01*
X103632000Y-93726000D02*
X103632000Y-92710000D01*
X99568000Y-91694000D02*
X99568000Y-93726000D01*
X103632000Y-92710000D02*
X103632000Y-91694000D01*
X104140000Y-92710000D02*
X103632000Y-92710000D01*
X99060000Y-92710000D02*
X99568000Y-92710000D01*
X99568000Y-91694000D02*
X103632000Y-91694000D01*
X103632000Y-93726000D02*
X99568000Y-93726000D01*
D13*
%TO.C,CI3*%
X113135000Y-62492500D02*
X116735000Y-62492500D01*
X113096522Y-62480978D02*
G75*
G02*
X114935000Y-58042500I1838478J1838478D01*
G01*
X116773478Y-62480978D02*
G75*
G03*
X114935000Y-58042500I-1838478J1838478D01*
G01*
D18*
%TO.C,R15*%
X99568000Y-98996500D02*
X103632000Y-98996500D01*
X103632000Y-101028500D02*
X99568000Y-101028500D01*
X104140000Y-100012500D02*
X103632000Y-100012500D01*
X99060000Y-100012500D02*
X99568000Y-100012500D01*
X99568000Y-100012500D02*
X99568000Y-101028500D01*
X103632000Y-101028500D02*
X103632000Y-98996500D01*
X99568000Y-98996500D02*
X99568000Y-100012500D01*
X103632000Y-100520500D02*
X103124000Y-101028500D01*
%TO.C,R16*%
X103632000Y-104013000D02*
X103124000Y-104521000D01*
X99568000Y-102489000D02*
X99568000Y-103505000D01*
X103632000Y-104521000D02*
X103632000Y-102489000D01*
X99568000Y-103505000D02*
X99568000Y-104521000D01*
X99060000Y-103505000D02*
X99568000Y-103505000D01*
X104140000Y-103505000D02*
X103632000Y-103505000D01*
X103632000Y-104521000D02*
X99568000Y-104521000D01*
X99568000Y-102489000D02*
X103632000Y-102489000D01*
D13*
%TO.C,BAT1*%
X140852500Y-106990000D02*
X139702500Y-108340000D01*
X127752500Y-106990000D02*
X128902500Y-108340000D01*
X129402500Y-99740000D02*
X131302500Y-99740000D01*
X139202500Y-99740000D02*
X137302500Y-99740000D01*
X139202500Y-99740000D02*
X140852500Y-101390000D01*
X127752500Y-101390000D02*
X129402500Y-99740000D01*
X136804194Y-108836458D02*
G75*
G03*
X139702500Y-108340000I1098306J2296458D01*
G01*
X131798402Y-108837607D02*
G75*
G02*
X128902500Y-108340000I-1095902J2297607D01*
G01*
D22*
%TO.C,Z1*%
X101142800Y-60960000D02*
G75*
G03*
X101142800Y-60960000I-2082800J0D01*
G01*
%TO.C,Z2*%
X101142800Y-107315000D02*
G75*
G03*
X101142800Y-107315000I-2082800J0D01*
G01*
%TO.C,Z3*%
X178930300Y-60960000D02*
G75*
G03*
X178930300Y-60960000I-2082800J0D01*
G01*
%TO.C,Z4*%
X178930300Y-107315000D02*
G75*
G03*
X178930300Y-107315000I-2082800J0D01*
G01*
%TO.C,DSP1*%
D10*
X124333214Y-69667380D02*
X124333214Y-68667380D01*
X124571309Y-68667380D01*
X124714166Y-68715000D01*
X124809404Y-68810238D01*
X124857023Y-68905476D01*
X124904642Y-69095952D01*
X124904642Y-69238809D01*
X124857023Y-69429285D01*
X124809404Y-69524523D01*
X124714166Y-69619761D01*
X124571309Y-69667380D01*
X124333214Y-69667380D01*
X125285595Y-69619761D02*
X125428452Y-69667380D01*
X125666547Y-69667380D01*
X125761785Y-69619761D01*
X125809404Y-69572142D01*
X125857023Y-69476904D01*
X125857023Y-69381666D01*
X125809404Y-69286428D01*
X125761785Y-69238809D01*
X125666547Y-69191190D01*
X125476071Y-69143571D01*
X125380833Y-69095952D01*
X125333214Y-69048333D01*
X125285595Y-68953095D01*
X125285595Y-68857857D01*
X125333214Y-68762619D01*
X125380833Y-68715000D01*
X125476071Y-68667380D01*
X125714166Y-68667380D01*
X125857023Y-68715000D01*
X126285595Y-69667380D02*
X126285595Y-68667380D01*
X126666547Y-68667380D01*
X126761785Y-68715000D01*
X126809404Y-68762619D01*
X126857023Y-68857857D01*
X126857023Y-69000714D01*
X126809404Y-69095952D01*
X126761785Y-69143571D01*
X126666547Y-69191190D01*
X126285595Y-69191190D01*
X127809404Y-69667380D02*
X127237976Y-69667380D01*
X127523690Y-69667380D02*
X127523690Y-68667380D01*
X127428452Y-68810238D01*
X127333214Y-68905476D01*
X127237976Y-68953095D01*
X118039642Y-71794642D02*
X117992023Y-71842261D01*
X117849166Y-71889880D01*
X117753928Y-71889880D01*
X117611071Y-71842261D01*
X117515833Y-71747023D01*
X117468214Y-71651785D01*
X117420595Y-71461309D01*
X117420595Y-71318452D01*
X117468214Y-71127976D01*
X117515833Y-71032738D01*
X117611071Y-70937500D01*
X117753928Y-70889880D01*
X117849166Y-70889880D01*
X117992023Y-70937500D01*
X118039642Y-70985119D01*
X118468214Y-71889880D02*
X118468214Y-71223214D01*
X118468214Y-71413690D02*
X118515833Y-71318452D01*
X118563452Y-71270833D01*
X118658690Y-71223214D01*
X118753928Y-71223214D01*
X119230119Y-71889880D02*
X119134880Y-71842261D01*
X119087261Y-71794642D01*
X119039642Y-71699404D01*
X119039642Y-71413690D01*
X119087261Y-71318452D01*
X119134880Y-71270833D01*
X119230119Y-71223214D01*
X119372976Y-71223214D01*
X119468214Y-71270833D01*
X119515833Y-71318452D01*
X119563452Y-71413690D01*
X119563452Y-71699404D01*
X119515833Y-71794642D01*
X119468214Y-71842261D01*
X119372976Y-71889880D01*
X119230119Y-71889880D01*
X119992023Y-71889880D02*
X119992023Y-71223214D01*
X119992023Y-71318452D02*
X120039642Y-71270833D01*
X120134880Y-71223214D01*
X120277738Y-71223214D01*
X120372976Y-71270833D01*
X120420595Y-71366071D01*
X120420595Y-71889880D01*
X120420595Y-71366071D02*
X120468214Y-71270833D01*
X120563452Y-71223214D01*
X120706309Y-71223214D01*
X120801547Y-71270833D01*
X120849166Y-71366071D01*
X120849166Y-71889880D01*
X121753928Y-71889880D02*
X121753928Y-71366071D01*
X121706309Y-71270833D01*
X121611071Y-71223214D01*
X121420595Y-71223214D01*
X121325357Y-71270833D01*
X121753928Y-71842261D02*
X121658690Y-71889880D01*
X121420595Y-71889880D01*
X121325357Y-71842261D01*
X121277738Y-71747023D01*
X121277738Y-71651785D01*
X121325357Y-71556547D01*
X121420595Y-71508928D01*
X121658690Y-71508928D01*
X121753928Y-71461309D01*
X122087261Y-71223214D02*
X122468214Y-71223214D01*
X122230119Y-70889880D02*
X122230119Y-71747023D01*
X122277738Y-71842261D01*
X122372976Y-71889880D01*
X122468214Y-71889880D01*
X123182500Y-71842261D02*
X123087261Y-71889880D01*
X122896785Y-71889880D01*
X122801547Y-71842261D01*
X122753928Y-71747023D01*
X122753928Y-71366071D01*
X122801547Y-71270833D01*
X122896785Y-71223214D01*
X123087261Y-71223214D01*
X123182500Y-71270833D01*
X123230119Y-71366071D01*
X123230119Y-71461309D01*
X122753928Y-71556547D01*
X123658690Y-71889880D02*
X123658690Y-70889880D01*
X123753928Y-71508928D02*
X124039642Y-71889880D01*
X124039642Y-71223214D02*
X123658690Y-71604166D01*
X125801547Y-71794642D02*
X125753928Y-71842261D01*
X125611071Y-71889880D01*
X125515833Y-71889880D01*
X125372976Y-71842261D01*
X125277738Y-71747023D01*
X125230119Y-71651785D01*
X125182500Y-71461309D01*
X125182500Y-71318452D01*
X125230119Y-71127976D01*
X125277738Y-71032738D01*
X125372976Y-70937500D01*
X125515833Y-70889880D01*
X125611071Y-70889880D01*
X125753928Y-70937500D01*
X125801547Y-70985119D01*
X126087261Y-70889880D02*
X126658690Y-70889880D01*
X126372976Y-71889880D02*
X126372976Y-70889880D01*
X126992023Y-71889880D02*
X126992023Y-70889880D01*
X127563452Y-71889880D02*
X127134880Y-71318452D01*
X127563452Y-70889880D02*
X126992023Y-71461309D01*
X128753928Y-71889880D02*
X128753928Y-70889880D01*
X128992023Y-70889880D01*
X129134880Y-70937500D01*
X129230119Y-71032738D01*
X129277738Y-71127976D01*
X129325357Y-71318452D01*
X129325357Y-71461309D01*
X129277738Y-71651785D01*
X129230119Y-71747023D01*
X129134880Y-71842261D01*
X128992023Y-71889880D01*
X128753928Y-71889880D01*
X130182500Y-71223214D02*
X130182500Y-71889880D01*
X129944404Y-70842261D02*
X129706309Y-71556547D01*
X130325357Y-71556547D01*
X130896785Y-70889880D02*
X130992023Y-70889880D01*
X131087261Y-70937500D01*
X131134880Y-70985119D01*
X131182500Y-71080357D01*
X131230119Y-71270833D01*
X131230119Y-71508928D01*
X131182500Y-71699404D01*
X131134880Y-71794642D01*
X131087261Y-71842261D01*
X130992023Y-71889880D01*
X130896785Y-71889880D01*
X130801547Y-71842261D01*
X130753928Y-71794642D01*
X130706309Y-71699404D01*
X130658690Y-71508928D01*
X130658690Y-71270833D01*
X130706309Y-71080357D01*
X130753928Y-70985119D01*
X130801547Y-70937500D01*
X130896785Y-70889880D01*
X131563452Y-70889880D02*
X132182500Y-70889880D01*
X131849166Y-71270833D01*
X131992023Y-71270833D01*
X132087261Y-71318452D01*
X132134880Y-71366071D01*
X132182500Y-71461309D01*
X132182500Y-71699404D01*
X132134880Y-71794642D01*
X132087261Y-71842261D01*
X131992023Y-71889880D01*
X131706309Y-71889880D01*
X131611071Y-71842261D01*
X131563452Y-71794642D01*
X133039642Y-70889880D02*
X132849166Y-70889880D01*
X132753928Y-70937500D01*
X132706309Y-70985119D01*
X132611071Y-71127976D01*
X132563452Y-71318452D01*
X132563452Y-71699404D01*
X132611071Y-71794642D01*
X132658690Y-71842261D01*
X132753928Y-71889880D01*
X132944404Y-71889880D01*
X133039642Y-71842261D01*
X133087261Y-71794642D01*
X133134880Y-71699404D01*
X133134880Y-71461309D01*
X133087261Y-71366071D01*
X133039642Y-71318452D01*
X132944404Y-71270833D01*
X132753928Y-71270833D01*
X132658690Y-71318452D01*
X132611071Y-71366071D01*
X132563452Y-71461309D01*
X133515833Y-71604166D02*
X133992023Y-71604166D01*
X133420595Y-71889880D02*
X133753928Y-70889880D01*
X134087261Y-71889880D01*
X134372976Y-71842261D02*
X134515833Y-71889880D01*
X134753928Y-71889880D01*
X134849166Y-71842261D01*
X134896785Y-71794642D01*
X134944404Y-71699404D01*
X134944404Y-71604166D01*
X134896785Y-71508928D01*
X134849166Y-71461309D01*
X134753928Y-71413690D01*
X134563452Y-71366071D01*
X134468214Y-71318452D01*
X134420595Y-71270833D01*
X134372976Y-71175595D01*
X134372976Y-71080357D01*
X134420595Y-70985119D01*
X134468214Y-70937500D01*
X134563452Y-70889880D01*
X134801547Y-70889880D01*
X134944404Y-70937500D01*
X135944404Y-71889880D02*
X135611071Y-71413690D01*
X135372976Y-71889880D02*
X135372976Y-70889880D01*
X135753928Y-70889880D01*
X135849166Y-70937500D01*
X135896785Y-70985119D01*
X135944404Y-71080357D01*
X135944404Y-71223214D01*
X135896785Y-71318452D01*
X135849166Y-71366071D01*
X135753928Y-71413690D01*
X135372976Y-71413690D01*
%TO.C,Q1*%
X141827261Y-92940119D02*
X141732023Y-92892500D01*
X141636785Y-92797261D01*
X141493928Y-92654404D01*
X141398690Y-92606785D01*
X141303452Y-92606785D01*
X141351071Y-92844880D02*
X141255833Y-92797261D01*
X141160595Y-92702023D01*
X141112976Y-92511547D01*
X141112976Y-92178214D01*
X141160595Y-91987738D01*
X141255833Y-91892500D01*
X141351071Y-91844880D01*
X141541547Y-91844880D01*
X141636785Y-91892500D01*
X141732023Y-91987738D01*
X141779642Y-92178214D01*
X141779642Y-92511547D01*
X141732023Y-92702023D01*
X141636785Y-92797261D01*
X141541547Y-92844880D01*
X141351071Y-92844880D01*
X142732023Y-92844880D02*
X142160595Y-92844880D01*
X142446309Y-92844880D02*
X142446309Y-91844880D01*
X142351071Y-91987738D01*
X142255833Y-92082976D01*
X142160595Y-92130595D01*
%TO.C,SW1*%
D11*
X175128766Y-67003990D02*
X175244880Y-67042695D01*
X175438404Y-67042695D01*
X175515814Y-67003990D01*
X175554519Y-66965285D01*
X175593223Y-66887876D01*
X175593223Y-66810466D01*
X175554519Y-66733057D01*
X175515814Y-66694352D01*
X175438404Y-66655647D01*
X175283585Y-66616942D01*
X175206176Y-66578238D01*
X175167471Y-66539533D01*
X175128766Y-66462123D01*
X175128766Y-66384714D01*
X175167471Y-66307304D01*
X175206176Y-66268600D01*
X175283585Y-66229895D01*
X175477109Y-66229895D01*
X175593223Y-66268600D01*
X175864157Y-66229895D02*
X176057680Y-67042695D01*
X176212500Y-66462123D01*
X176367319Y-67042695D01*
X176560842Y-66229895D01*
X177296233Y-67042695D02*
X176831776Y-67042695D01*
X177064004Y-67042695D02*
X177064004Y-66229895D01*
X176986595Y-66346009D01*
X176909185Y-66423419D01*
X176831776Y-66462123D01*
%TO.C,X1*%
X131905476Y-91844880D02*
X132572142Y-92844880D01*
X132572142Y-91844880D02*
X131905476Y-92844880D01*
X133476904Y-92844880D02*
X132905476Y-92844880D01*
X133191190Y-92844880D02*
X133191190Y-91844880D01*
X133095952Y-91987738D01*
X133000714Y-92082976D01*
X132905476Y-92130595D01*
D10*
X131342023Y-94432380D02*
X130770595Y-94432380D01*
X131056309Y-94432380D02*
X131056309Y-93432380D01*
X130961071Y-93575238D01*
X130865833Y-93670476D01*
X130770595Y-93718095D01*
X132199166Y-93432380D02*
X132008690Y-93432380D01*
X131913452Y-93480000D01*
X131865833Y-93527619D01*
X131770595Y-93670476D01*
X131722976Y-93860952D01*
X131722976Y-94241904D01*
X131770595Y-94337142D01*
X131818214Y-94384761D01*
X131913452Y-94432380D01*
X132103928Y-94432380D01*
X132199166Y-94384761D01*
X132246785Y-94337142D01*
X132294404Y-94241904D01*
X132294404Y-94003809D01*
X132246785Y-93908571D01*
X132199166Y-93860952D01*
X132103928Y-93813333D01*
X131913452Y-93813333D01*
X131818214Y-93860952D01*
X131770595Y-93908571D01*
X131722976Y-94003809D01*
X132722976Y-94432380D02*
X132722976Y-93432380D01*
X133056309Y-94146666D01*
X133389642Y-93432380D01*
X133389642Y-94432380D01*
X133865833Y-94432380D02*
X133865833Y-93432380D01*
X133865833Y-93908571D02*
X134437261Y-93908571D01*
X134437261Y-94432380D02*
X134437261Y-93432380D01*
X134818214Y-93765714D02*
X135342023Y-93765714D01*
X134818214Y-94432380D01*
X135342023Y-94432380D01*
%TO.C,BZ1*%
X110466428Y-109466071D02*
X110609285Y-109513690D01*
X110656904Y-109561309D01*
X110704523Y-109656547D01*
X110704523Y-109799404D01*
X110656904Y-109894642D01*
X110609285Y-109942261D01*
X110514047Y-109989880D01*
X110133095Y-109989880D01*
X110133095Y-108989880D01*
X110466428Y-108989880D01*
X110561666Y-109037500D01*
X110609285Y-109085119D01*
X110656904Y-109180357D01*
X110656904Y-109275595D01*
X110609285Y-109370833D01*
X110561666Y-109418452D01*
X110466428Y-109466071D01*
X110133095Y-109466071D01*
X111561666Y-109323214D02*
X111561666Y-109989880D01*
X111133095Y-109323214D02*
X111133095Y-109847023D01*
X111180714Y-109942261D01*
X111275952Y-109989880D01*
X111418809Y-109989880D01*
X111514047Y-109942261D01*
X111561666Y-109894642D01*
X111942619Y-109323214D02*
X112466428Y-109323214D01*
X111942619Y-109989880D01*
X112466428Y-109989880D01*
X112752142Y-109323214D02*
X113275952Y-109323214D01*
X112752142Y-109989880D01*
X113275952Y-109989880D01*
X114037857Y-109942261D02*
X113942619Y-109989880D01*
X113752142Y-109989880D01*
X113656904Y-109942261D01*
X113609285Y-109847023D01*
X113609285Y-109466071D01*
X113656904Y-109370833D01*
X113752142Y-109323214D01*
X113942619Y-109323214D01*
X114037857Y-109370833D01*
X114085476Y-109466071D01*
X114085476Y-109561309D01*
X113609285Y-109656547D01*
X114514047Y-109989880D02*
X114514047Y-109323214D01*
X114514047Y-109513690D02*
X114561666Y-109418452D01*
X114609285Y-109370833D01*
X114704523Y-109323214D01*
X114799761Y-109323214D01*
%TO.C,C1*%
X144327033Y-71092785D02*
X144288328Y-71131490D01*
X144172214Y-71170195D01*
X144094804Y-71170195D01*
X143978690Y-71131490D01*
X143901280Y-71054080D01*
X143862576Y-70976671D01*
X143823871Y-70821852D01*
X143823871Y-70705738D01*
X143862576Y-70550919D01*
X143901280Y-70473509D01*
X143978690Y-70396100D01*
X144094804Y-70357395D01*
X144172214Y-70357395D01*
X144288328Y-70396100D01*
X144327033Y-70434804D01*
X145101128Y-71170195D02*
X144636671Y-71170195D01*
X144868900Y-71170195D02*
X144868900Y-70357395D01*
X144791490Y-70473509D01*
X144714080Y-70550919D01*
X144636671Y-70589623D01*
%TO.C,C2*%
X127452380Y-61443928D02*
X127452380Y-62015357D01*
X127452380Y-61729642D02*
X126452380Y-61729642D01*
X126595238Y-61824880D01*
X126690476Y-61920119D01*
X126738095Y-62015357D01*
X126452380Y-60824880D02*
X126452380Y-60729642D01*
X126500000Y-60634404D01*
X126547619Y-60586785D01*
X126642857Y-60539166D01*
X126833333Y-60491547D01*
X127071428Y-60491547D01*
X127261904Y-60539166D01*
X127357142Y-60586785D01*
X127404761Y-60634404D01*
X127452380Y-60729642D01*
X127452380Y-60824880D01*
X127404761Y-60920119D01*
X127357142Y-60967738D01*
X127261904Y-61015357D01*
X127071428Y-61062976D01*
X126833333Y-61062976D01*
X126642857Y-61015357D01*
X126547619Y-60967738D01*
X126500000Y-60920119D01*
X126452380Y-60824880D01*
X126785714Y-59634404D02*
X127452380Y-59634404D01*
X126785714Y-60062976D02*
X127309523Y-60062976D01*
X127404761Y-60015357D01*
X127452380Y-59920119D01*
X127452380Y-59777261D01*
X127404761Y-59682023D01*
X127357142Y-59634404D01*
X126928571Y-58824880D02*
X126928571Y-59158214D01*
X127452380Y-59158214D02*
X126452380Y-59158214D01*
X126452380Y-58682023D01*
%TO.C,C3*%
X108767033Y-60615285D02*
X108728328Y-60653990D01*
X108612214Y-60692695D01*
X108534804Y-60692695D01*
X108418690Y-60653990D01*
X108341280Y-60576580D01*
X108302576Y-60499171D01*
X108263871Y-60344352D01*
X108263871Y-60228238D01*
X108302576Y-60073419D01*
X108341280Y-59996009D01*
X108418690Y-59918600D01*
X108534804Y-59879895D01*
X108612214Y-59879895D01*
X108728328Y-59918600D01*
X108767033Y-59957304D01*
X109037966Y-59879895D02*
X109541128Y-59879895D01*
X109270195Y-60189533D01*
X109386309Y-60189533D01*
X109463719Y-60228238D01*
X109502423Y-60266942D01*
X109541128Y-60344352D01*
X109541128Y-60537876D01*
X109502423Y-60615285D01*
X109463719Y-60653990D01*
X109386309Y-60692695D01*
X109154080Y-60692695D01*
X109076671Y-60653990D01*
X109037966Y-60615285D01*
%TO.C,C7*%
X169409533Y-61567785D02*
X169370828Y-61606490D01*
X169254714Y-61645195D01*
X169177304Y-61645195D01*
X169061190Y-61606490D01*
X168983780Y-61529080D01*
X168945076Y-61451671D01*
X168906371Y-61296852D01*
X168906371Y-61180738D01*
X168945076Y-61025919D01*
X168983780Y-60948509D01*
X169061190Y-60871100D01*
X169177304Y-60832395D01*
X169254714Y-60832395D01*
X169370828Y-60871100D01*
X169409533Y-60909804D01*
X169680466Y-60832395D02*
X170222333Y-60832395D01*
X169873990Y-61645195D01*
%TO.C,CI1*%
X125960238Y-83542142D02*
X125912619Y-83589761D01*
X125769761Y-83637380D01*
X125674523Y-83637380D01*
X125531666Y-83589761D01*
X125436428Y-83494523D01*
X125388809Y-83399285D01*
X125341190Y-83208809D01*
X125341190Y-83065952D01*
X125388809Y-82875476D01*
X125436428Y-82780238D01*
X125531666Y-82685000D01*
X125674523Y-82637380D01*
X125769761Y-82637380D01*
X125912619Y-82685000D01*
X125960238Y-82732619D01*
X126388809Y-83637380D02*
X126388809Y-82637380D01*
X127388809Y-83637380D02*
X126817380Y-83637380D01*
X127103095Y-83637380D02*
X127103095Y-82637380D01*
X127007857Y-82780238D01*
X126912619Y-82875476D01*
X126817380Y-82923095D01*
X122317380Y-84939166D02*
X122793571Y-84939166D01*
X122222142Y-85224880D02*
X122555476Y-84224880D01*
X122888809Y-85224880D01*
X123079285Y-84224880D02*
X123650714Y-84224880D01*
X123365000Y-85224880D02*
X123365000Y-84224880D01*
X123984047Y-85224880D02*
X123984047Y-84558214D01*
X123984047Y-84653452D02*
X124031666Y-84605833D01*
X124126904Y-84558214D01*
X124269761Y-84558214D01*
X124365000Y-84605833D01*
X124412619Y-84701071D01*
X124412619Y-85224880D01*
X124412619Y-84701071D02*
X124460238Y-84605833D01*
X124555476Y-84558214D01*
X124698333Y-84558214D01*
X124793571Y-84605833D01*
X124841190Y-84701071D01*
X124841190Y-85224880D01*
X125698333Y-85177261D02*
X125603095Y-85224880D01*
X125412619Y-85224880D01*
X125317380Y-85177261D01*
X125269761Y-85082023D01*
X125269761Y-84701071D01*
X125317380Y-84605833D01*
X125412619Y-84558214D01*
X125603095Y-84558214D01*
X125698333Y-84605833D01*
X125745952Y-84701071D01*
X125745952Y-84796309D01*
X125269761Y-84891547D01*
X126603095Y-84558214D02*
X126603095Y-85367738D01*
X126555476Y-85462976D01*
X126507857Y-85510595D01*
X126412619Y-85558214D01*
X126269761Y-85558214D01*
X126174523Y-85510595D01*
X126603095Y-85177261D02*
X126507857Y-85224880D01*
X126317380Y-85224880D01*
X126222142Y-85177261D01*
X126174523Y-85129642D01*
X126126904Y-85034404D01*
X126126904Y-84748690D01*
X126174523Y-84653452D01*
X126222142Y-84605833D01*
X126317380Y-84558214D01*
X126507857Y-84558214D01*
X126603095Y-84605833D01*
X127507857Y-85224880D02*
X127507857Y-84701071D01*
X127460238Y-84605833D01*
X127365000Y-84558214D01*
X127174523Y-84558214D01*
X127079285Y-84605833D01*
X127507857Y-85177261D02*
X127412619Y-85224880D01*
X127174523Y-85224880D01*
X127079285Y-85177261D01*
X127031666Y-85082023D01*
X127031666Y-84986785D01*
X127079285Y-84891547D01*
X127174523Y-84843928D01*
X127412619Y-84843928D01*
X127507857Y-84796309D01*
X127888809Y-84224880D02*
X128507857Y-84224880D01*
X128174523Y-84605833D01*
X128317380Y-84605833D01*
X128412619Y-84653452D01*
X128460238Y-84701071D01*
X128507857Y-84796309D01*
X128507857Y-85034404D01*
X128460238Y-85129642D01*
X128412619Y-85177261D01*
X128317380Y-85224880D01*
X128031666Y-85224880D01*
X127936428Y-85177261D01*
X127888809Y-85129642D01*
X128888809Y-84320119D02*
X128936428Y-84272500D01*
X129031666Y-84224880D01*
X129269761Y-84224880D01*
X129365000Y-84272500D01*
X129412619Y-84320119D01*
X129460238Y-84415357D01*
X129460238Y-84510595D01*
X129412619Y-84653452D01*
X128841190Y-85224880D01*
X129460238Y-85224880D01*
X130031666Y-84653452D02*
X129936428Y-84605833D01*
X129888809Y-84558214D01*
X129841190Y-84462976D01*
X129841190Y-84415357D01*
X129888809Y-84320119D01*
X129936428Y-84272500D01*
X130031666Y-84224880D01*
X130222142Y-84224880D01*
X130317380Y-84272500D01*
X130365000Y-84320119D01*
X130412619Y-84415357D01*
X130412619Y-84462976D01*
X130365000Y-84558214D01*
X130317380Y-84605833D01*
X130222142Y-84653452D01*
X130031666Y-84653452D01*
X129936428Y-84701071D01*
X129888809Y-84748690D01*
X129841190Y-84843928D01*
X129841190Y-85034404D01*
X129888809Y-85129642D01*
X129936428Y-85177261D01*
X130031666Y-85224880D01*
X130222142Y-85224880D01*
X130317380Y-85177261D01*
X130365000Y-85129642D01*
X130412619Y-85034404D01*
X130412619Y-84843928D01*
X130365000Y-84748690D01*
X130317380Y-84701071D01*
X130222142Y-84653452D01*
%TO.C,CI2*%
X112942738Y-101322142D02*
X112895119Y-101369761D01*
X112752261Y-101417380D01*
X112657023Y-101417380D01*
X112514166Y-101369761D01*
X112418928Y-101274523D01*
X112371309Y-101179285D01*
X112323690Y-100988809D01*
X112323690Y-100845952D01*
X112371309Y-100655476D01*
X112418928Y-100560238D01*
X112514166Y-100465000D01*
X112657023Y-100417380D01*
X112752261Y-100417380D01*
X112895119Y-100465000D01*
X112942738Y-100512619D01*
X113371309Y-101417380D02*
X113371309Y-100417380D01*
X113799880Y-100512619D02*
X113847500Y-100465000D01*
X113942738Y-100417380D01*
X114180833Y-100417380D01*
X114276071Y-100465000D01*
X114323690Y-100512619D01*
X114371309Y-100607857D01*
X114371309Y-100703095D01*
X114323690Y-100845952D01*
X113752261Y-101417380D01*
X114371309Y-101417380D01*
X111022142Y-103322380D02*
X111022142Y-102322380D01*
X111260238Y-102322380D01*
X111403095Y-102370000D01*
X111498333Y-102465238D01*
X111545952Y-102560476D01*
X111593571Y-102750952D01*
X111593571Y-102893809D01*
X111545952Y-103084285D01*
X111498333Y-103179523D01*
X111403095Y-103274761D01*
X111260238Y-103322380D01*
X111022142Y-103322380D01*
X111974523Y-103274761D02*
X112117380Y-103322380D01*
X112355476Y-103322380D01*
X112450714Y-103274761D01*
X112498333Y-103227142D01*
X112545952Y-103131904D01*
X112545952Y-103036666D01*
X112498333Y-102941428D01*
X112450714Y-102893809D01*
X112355476Y-102846190D01*
X112165000Y-102798571D01*
X112069761Y-102750952D01*
X112022142Y-102703333D01*
X111974523Y-102608095D01*
X111974523Y-102512857D01*
X112022142Y-102417619D01*
X112069761Y-102370000D01*
X112165000Y-102322380D01*
X112403095Y-102322380D01*
X112545952Y-102370000D01*
X113498333Y-103322380D02*
X112926904Y-103322380D01*
X113212619Y-103322380D02*
X113212619Y-102322380D01*
X113117380Y-102465238D01*
X113022142Y-102560476D01*
X112926904Y-102608095D01*
X113831666Y-102322380D02*
X114450714Y-102322380D01*
X114117380Y-102703333D01*
X114260238Y-102703333D01*
X114355476Y-102750952D01*
X114403095Y-102798571D01*
X114450714Y-102893809D01*
X114450714Y-103131904D01*
X114403095Y-103227142D01*
X114355476Y-103274761D01*
X114260238Y-103322380D01*
X113974523Y-103322380D01*
X113879285Y-103274761D01*
X113831666Y-103227142D01*
X115069761Y-102322380D02*
X115165000Y-102322380D01*
X115260238Y-102370000D01*
X115307857Y-102417619D01*
X115355476Y-102512857D01*
X115403095Y-102703333D01*
X115403095Y-102941428D01*
X115355476Y-103131904D01*
X115307857Y-103227142D01*
X115260238Y-103274761D01*
X115165000Y-103322380D01*
X115069761Y-103322380D01*
X114974523Y-103274761D01*
X114926904Y-103227142D01*
X114879285Y-103131904D01*
X114831666Y-102941428D01*
X114831666Y-102703333D01*
X114879285Y-102512857D01*
X114926904Y-102417619D01*
X114974523Y-102370000D01*
X115069761Y-102322380D01*
X115736428Y-102322380D02*
X116403095Y-102322380D01*
X115974523Y-103322380D01*
%TO.C,P1*%
X149121904Y-60142380D02*
X149121904Y-59142380D01*
X149502857Y-59142380D01*
X149598095Y-59190000D01*
X149645714Y-59237619D01*
X149693333Y-59332857D01*
X149693333Y-59475714D01*
X149645714Y-59570952D01*
X149598095Y-59618571D01*
X149502857Y-59666190D01*
X149121904Y-59666190D01*
X150645714Y-60142380D02*
X150074285Y-60142380D01*
X150360000Y-60142380D02*
X150360000Y-59142380D01*
X150264761Y-59285238D01*
X150169523Y-59380476D01*
X150074285Y-59428095D01*
%TO.C,P2*%
X120546904Y-63317380D02*
X120546904Y-62317380D01*
X120927857Y-62317380D01*
X121023095Y-62365000D01*
X121070714Y-62412619D01*
X121118333Y-62507857D01*
X121118333Y-62650714D01*
X121070714Y-62745952D01*
X121023095Y-62793571D01*
X120927857Y-62841190D01*
X120546904Y-62841190D01*
X121499285Y-62412619D02*
X121546904Y-62365000D01*
X121642142Y-62317380D01*
X121880238Y-62317380D01*
X121975476Y-62365000D01*
X122023095Y-62412619D01*
X122070714Y-62507857D01*
X122070714Y-62603095D01*
X122023095Y-62745952D01*
X121451666Y-63317380D01*
X122070714Y-63317380D01*
%TO.C,R3*%
D22*
X100723095Y-97278976D02*
X99997380Y-97278976D01*
X100360238Y-97278976D02*
X100360238Y-95881976D01*
X100239285Y-96081547D01*
X100118333Y-96214595D01*
X99997380Y-96281119D01*
X101509285Y-95881976D02*
X101630238Y-95881976D01*
X101751190Y-95948500D01*
X101811666Y-96015023D01*
X101872142Y-96148071D01*
X101932619Y-96414166D01*
X101932619Y-96746785D01*
X101872142Y-97012880D01*
X101811666Y-97145928D01*
X101751190Y-97212452D01*
X101630238Y-97278976D01*
X101509285Y-97278976D01*
X101388333Y-97212452D01*
X101327857Y-97145928D01*
X101267380Y-97012880D01*
X101206904Y-96746785D01*
X101206904Y-96414166D01*
X101267380Y-96148071D01*
X101327857Y-96015023D01*
X101388333Y-95948500D01*
X101509285Y-95881976D01*
X102476904Y-97278976D02*
X102476904Y-95881976D01*
X103202619Y-97278976D02*
X102658333Y-96480690D01*
X103202619Y-95881976D02*
X102476904Y-96680261D01*
%TO.C,R7*%
X101327857Y-72386976D02*
X100602142Y-72386976D01*
X100965000Y-72386976D02*
X100965000Y-70989976D01*
X100844047Y-71189547D01*
X100723095Y-71322595D01*
X100602142Y-71389119D01*
X101872142Y-72386976D02*
X101872142Y-70989976D01*
X102597857Y-72386976D02*
X102053571Y-71588690D01*
X102597857Y-70989976D02*
X101872142Y-71788261D01*
%TO.C,R8*%
X101327857Y-86356976D02*
X100602142Y-86356976D01*
X100965000Y-86356976D02*
X100965000Y-84959976D01*
X100844047Y-85159547D01*
X100723095Y-85292595D01*
X100602142Y-85359119D01*
X101872142Y-86356976D02*
X101872142Y-84959976D01*
X102597857Y-86356976D02*
X102053571Y-85558690D01*
X102597857Y-84959976D02*
X101872142Y-85758261D01*
%TO.C,R9*%
X101327857Y-68894476D02*
X100602142Y-68894476D01*
X100965000Y-68894476D02*
X100965000Y-67497476D01*
X100844047Y-67697047D01*
X100723095Y-67830095D01*
X100602142Y-67896619D01*
X101872142Y-68894476D02*
X101872142Y-67497476D01*
X102597857Y-68894476D02*
X102053571Y-68096190D01*
X102597857Y-67497476D02*
X101872142Y-68295761D01*
%TO.C,R10*%
X101327857Y-82864476D02*
X100602142Y-82864476D01*
X100965000Y-82864476D02*
X100965000Y-81467476D01*
X100844047Y-81667047D01*
X100723095Y-81800095D01*
X100602142Y-81866619D01*
X101872142Y-82864476D02*
X101872142Y-81467476D01*
X102597857Y-82864476D02*
X102053571Y-82066190D01*
X102597857Y-81467476D02*
X101872142Y-82265761D01*
%TO.C,R11*%
X101327857Y-65401976D02*
X100602142Y-65401976D01*
X100965000Y-65401976D02*
X100965000Y-64004976D01*
X100844047Y-64204547D01*
X100723095Y-64337595D01*
X100602142Y-64404119D01*
X101872142Y-65401976D02*
X101872142Y-64004976D01*
X102597857Y-65401976D02*
X102053571Y-64603690D01*
X102597857Y-64004976D02*
X101872142Y-64803261D01*
%TO.C,R12*%
X101327857Y-79371976D02*
X100602142Y-79371976D01*
X100965000Y-79371976D02*
X100965000Y-77974976D01*
X100844047Y-78174547D01*
X100723095Y-78307595D01*
X100602142Y-78374119D01*
X101872142Y-79371976D02*
X101872142Y-77974976D01*
X102597857Y-79371976D02*
X102053571Y-78573690D01*
X102597857Y-77974976D02*
X101872142Y-78773261D01*
%TO.C,R13*%
X101327857Y-89849476D02*
X100602142Y-89849476D01*
X100965000Y-89849476D02*
X100965000Y-88452476D01*
X100844047Y-88652047D01*
X100723095Y-88785095D01*
X100602142Y-88851619D01*
X101872142Y-89849476D02*
X101872142Y-88452476D01*
X102597857Y-89849476D02*
X102053571Y-89051190D01*
X102597857Y-88452476D02*
X101872142Y-89250761D01*
%TO.C,R14*%
X101327857Y-75879476D02*
X100602142Y-75879476D01*
X100965000Y-75879476D02*
X100965000Y-74482476D01*
X100844047Y-74682047D01*
X100723095Y-74815095D01*
X100602142Y-74881619D01*
X101872142Y-75879476D02*
X101872142Y-74482476D01*
X102597857Y-75879476D02*
X102053571Y-75081190D01*
X102597857Y-74482476D02*
X101872142Y-75280761D01*
%TO.C,SW2*%
D11*
X175128766Y-80338990D02*
X175244880Y-80377695D01*
X175438404Y-80377695D01*
X175515814Y-80338990D01*
X175554519Y-80300285D01*
X175593223Y-80222876D01*
X175593223Y-80145466D01*
X175554519Y-80068057D01*
X175515814Y-80029352D01*
X175438404Y-79990647D01*
X175283585Y-79951942D01*
X175206176Y-79913238D01*
X175167471Y-79874533D01*
X175128766Y-79797123D01*
X175128766Y-79719714D01*
X175167471Y-79642304D01*
X175206176Y-79603600D01*
X175283585Y-79564895D01*
X175477109Y-79564895D01*
X175593223Y-79603600D01*
X175864157Y-79564895D02*
X176057680Y-80377695D01*
X176212500Y-79797123D01*
X176367319Y-80377695D01*
X176560842Y-79564895D01*
X176831776Y-79642304D02*
X176870480Y-79603600D01*
X176947890Y-79564895D01*
X177141414Y-79564895D01*
X177218823Y-79603600D01*
X177257528Y-79642304D01*
X177296233Y-79719714D01*
X177296233Y-79797123D01*
X177257528Y-79913238D01*
X176793071Y-80377695D01*
X177296233Y-80377695D01*
%TO.C,SW3*%
X175128766Y-93356490D02*
X175244880Y-93395195D01*
X175438404Y-93395195D01*
X175515814Y-93356490D01*
X175554519Y-93317785D01*
X175593223Y-93240376D01*
X175593223Y-93162966D01*
X175554519Y-93085557D01*
X175515814Y-93046852D01*
X175438404Y-93008147D01*
X175283585Y-92969442D01*
X175206176Y-92930738D01*
X175167471Y-92892033D01*
X175128766Y-92814623D01*
X175128766Y-92737214D01*
X175167471Y-92659804D01*
X175206176Y-92621100D01*
X175283585Y-92582395D01*
X175477109Y-92582395D01*
X175593223Y-92621100D01*
X175864157Y-92582395D02*
X176057680Y-93395195D01*
X176212500Y-92814623D01*
X176367319Y-93395195D01*
X176560842Y-92582395D01*
X176793071Y-92582395D02*
X177296233Y-92582395D01*
X177025300Y-92892033D01*
X177141414Y-92892033D01*
X177218823Y-92930738D01*
X177257528Y-92969442D01*
X177296233Y-93046852D01*
X177296233Y-93240376D01*
X177257528Y-93317785D01*
X177218823Y-93356490D01*
X177141414Y-93395195D01*
X176909185Y-93395195D01*
X176831776Y-93356490D01*
X176793071Y-93317785D01*
%TO.C,X2*%
X120792976Y-101369880D02*
X121459642Y-102369880D01*
X121459642Y-101369880D02*
X120792976Y-102369880D01*
X121792976Y-101465119D02*
X121840595Y-101417500D01*
X121935833Y-101369880D01*
X122173928Y-101369880D01*
X122269166Y-101417500D01*
X122316785Y-101465119D01*
X122364404Y-101560357D01*
X122364404Y-101655595D01*
X122316785Y-101798452D01*
X121745357Y-102369880D01*
X122364404Y-102369880D01*
%TO.C,R5*%
D22*
X100723095Y-93468976D02*
X99997380Y-93468976D01*
X100360238Y-93468976D02*
X100360238Y-92071976D01*
X100239285Y-92271547D01*
X100118333Y-92404595D01*
X99997380Y-92471119D01*
X101509285Y-92071976D02*
X101630238Y-92071976D01*
X101751190Y-92138500D01*
X101811666Y-92205023D01*
X101872142Y-92338071D01*
X101932619Y-92604166D01*
X101932619Y-92936785D01*
X101872142Y-93202880D01*
X101811666Y-93335928D01*
X101751190Y-93402452D01*
X101630238Y-93468976D01*
X101509285Y-93468976D01*
X101388333Y-93402452D01*
X101327857Y-93335928D01*
X101267380Y-93202880D01*
X101206904Y-92936785D01*
X101206904Y-92604166D01*
X101267380Y-92338071D01*
X101327857Y-92205023D01*
X101388333Y-92138500D01*
X101509285Y-92071976D01*
X102476904Y-93468976D02*
X102476904Y-92071976D01*
X103202619Y-93468976D02*
X102658333Y-92670690D01*
X103202619Y-92071976D02*
X102476904Y-92870261D01*
%TO.C,CI3*%
D10*
X111894880Y-62325000D02*
X111894880Y-62801190D01*
X110894880Y-62801190D01*
X110894880Y-62086904D02*
X110894880Y-61420238D01*
X111894880Y-61848809D01*
X111323452Y-60896428D02*
X111275833Y-60991666D01*
X111228214Y-61039285D01*
X111132976Y-61086904D01*
X111085357Y-61086904D01*
X110990119Y-61039285D01*
X110942500Y-60991666D01*
X110894880Y-60896428D01*
X110894880Y-60705952D01*
X110942500Y-60610714D01*
X110990119Y-60563095D01*
X111085357Y-60515476D01*
X111132976Y-60515476D01*
X111228214Y-60563095D01*
X111275833Y-60610714D01*
X111323452Y-60705952D01*
X111323452Y-60896428D01*
X111371071Y-60991666D01*
X111418690Y-61039285D01*
X111513928Y-61086904D01*
X111704404Y-61086904D01*
X111799642Y-61039285D01*
X111847261Y-60991666D01*
X111894880Y-60896428D01*
X111894880Y-60705952D01*
X111847261Y-60610714D01*
X111799642Y-60563095D01*
X111704404Y-60515476D01*
X111513928Y-60515476D01*
X111418690Y-60563095D01*
X111371071Y-60610714D01*
X111323452Y-60705952D01*
X111894880Y-59610714D02*
X111894880Y-60086904D01*
X110894880Y-60086904D01*
X110894880Y-59086904D02*
X110894880Y-58991666D01*
X110942500Y-58896428D01*
X110990119Y-58848809D01*
X111085357Y-58801190D01*
X111275833Y-58753571D01*
X111513928Y-58753571D01*
X111704404Y-58801190D01*
X111799642Y-58848809D01*
X111847261Y-58896428D01*
X111894880Y-58991666D01*
X111894880Y-59086904D01*
X111847261Y-59182142D01*
X111799642Y-59229761D01*
X111704404Y-59277380D01*
X111513928Y-59325000D01*
X111275833Y-59325000D01*
X111085357Y-59277380D01*
X110990119Y-59229761D01*
X110942500Y-59182142D01*
X110894880Y-59086904D01*
X110894880Y-57848809D02*
X110894880Y-58325000D01*
X111371071Y-58372619D01*
X111323452Y-58325000D01*
X111275833Y-58229761D01*
X111275833Y-57991666D01*
X111323452Y-57896428D01*
X111371071Y-57848809D01*
X111466309Y-57801190D01*
X111704404Y-57801190D01*
X111799642Y-57848809D01*
X111847261Y-57896428D01*
X111894880Y-57991666D01*
X111894880Y-58229761D01*
X111847261Y-58325000D01*
X111799642Y-58372619D01*
%TO.C,R15*%
D22*
X100723095Y-100644476D02*
X99997380Y-100644476D01*
X100360238Y-100644476D02*
X100360238Y-99247476D01*
X100239285Y-99447047D01*
X100118333Y-99580095D01*
X99997380Y-99646619D01*
X101509285Y-99247476D02*
X101630238Y-99247476D01*
X101751190Y-99314000D01*
X101811666Y-99380523D01*
X101872142Y-99513571D01*
X101932619Y-99779666D01*
X101932619Y-100112285D01*
X101872142Y-100378380D01*
X101811666Y-100511428D01*
X101751190Y-100577952D01*
X101630238Y-100644476D01*
X101509285Y-100644476D01*
X101388333Y-100577952D01*
X101327857Y-100511428D01*
X101267380Y-100378380D01*
X101206904Y-100112285D01*
X101206904Y-99779666D01*
X101267380Y-99513571D01*
X101327857Y-99380523D01*
X101388333Y-99314000D01*
X101509285Y-99247476D01*
X102476904Y-100644476D02*
X102476904Y-99247476D01*
X103202619Y-100644476D02*
X102658333Y-99846190D01*
X103202619Y-99247476D02*
X102476904Y-100045761D01*
%TO.C,R16*%
X100723095Y-104136976D02*
X99997380Y-104136976D01*
X100360238Y-104136976D02*
X100360238Y-102739976D01*
X100239285Y-102939547D01*
X100118333Y-103072595D01*
X99997380Y-103139119D01*
X101509285Y-102739976D02*
X101630238Y-102739976D01*
X101751190Y-102806500D01*
X101811666Y-102873023D01*
X101872142Y-103006071D01*
X101932619Y-103272166D01*
X101932619Y-103604785D01*
X101872142Y-103870880D01*
X101811666Y-104003928D01*
X101751190Y-104070452D01*
X101630238Y-104136976D01*
X101509285Y-104136976D01*
X101388333Y-104070452D01*
X101327857Y-104003928D01*
X101267380Y-103870880D01*
X101206904Y-103604785D01*
X101206904Y-103272166D01*
X101267380Y-103006071D01*
X101327857Y-102873023D01*
X101388333Y-102806500D01*
X101509285Y-102739976D01*
X102476904Y-104136976D02*
X102476904Y-102739976D01*
X103202619Y-104136976D02*
X102658333Y-103338690D01*
X103202619Y-102739976D02*
X102476904Y-103538261D01*
%TO.C,BAT1*%
D10*
X132207261Y-98464642D02*
X132159642Y-98512261D01*
X132016785Y-98559880D01*
X131921547Y-98559880D01*
X131778690Y-98512261D01*
X131683452Y-98417023D01*
X131635833Y-98321785D01*
X131588214Y-98131309D01*
X131588214Y-97988452D01*
X131635833Y-97797976D01*
X131683452Y-97702738D01*
X131778690Y-97607500D01*
X131921547Y-97559880D01*
X132016785Y-97559880D01*
X132159642Y-97607500D01*
X132207261Y-97655119D01*
X133207261Y-98559880D02*
X132873928Y-98083690D01*
X132635833Y-98559880D02*
X132635833Y-97559880D01*
X133016785Y-97559880D01*
X133112023Y-97607500D01*
X133159642Y-97655119D01*
X133207261Y-97750357D01*
X133207261Y-97893214D01*
X133159642Y-97988452D01*
X133112023Y-98036071D01*
X133016785Y-98083690D01*
X132635833Y-98083690D01*
X134159642Y-98559880D02*
X133588214Y-98559880D01*
X133873928Y-98559880D02*
X133873928Y-97559880D01*
X133778690Y-97702738D01*
X133683452Y-97797976D01*
X133588214Y-97845595D01*
X134540595Y-97655119D02*
X134588214Y-97607500D01*
X134683452Y-97559880D01*
X134921547Y-97559880D01*
X135016785Y-97607500D01*
X135064404Y-97655119D01*
X135112023Y-97750357D01*
X135112023Y-97845595D01*
X135064404Y-97988452D01*
X134492976Y-98559880D01*
X135112023Y-98559880D01*
X135492976Y-97655119D02*
X135540595Y-97607500D01*
X135635833Y-97559880D01*
X135873928Y-97559880D01*
X135969166Y-97607500D01*
X136016785Y-97655119D01*
X136064404Y-97750357D01*
X136064404Y-97845595D01*
X136016785Y-97988452D01*
X135445357Y-98559880D01*
X136064404Y-98559880D01*
X136683452Y-97559880D02*
X136778690Y-97559880D01*
X136873928Y-97607500D01*
X136921547Y-97655119D01*
X136969166Y-97750357D01*
X137016785Y-97940833D01*
X137016785Y-98178928D01*
X136969166Y-98369404D01*
X136921547Y-98464642D01*
X136873928Y-98512261D01*
X136778690Y-98559880D01*
X136683452Y-98559880D01*
X136588214Y-98512261D01*
X136540595Y-98464642D01*
X136492976Y-98369404D01*
X136445357Y-98178928D01*
X136445357Y-97940833D01*
X136492976Y-97750357D01*
X136540595Y-97655119D01*
X136588214Y-97607500D01*
X136683452Y-97559880D01*
%TD*%
M02*
