M48
; DRILL file {KiCad (5.1.6)-1} date 02/06/21 11:25:41
; FORMAT={-:-/ absolute / inch / decimal}
; #@! TF.CreationDate,2021-02-06T11:25:41-03:00
; #@! TF.GenerationSoftware,Kicad,Pcbnew,(5.1.6)-1
; #@! TF.FileFunction,Plated,1,2,PTH
FMAT,2
INCH
T1C0.0240
T2C0.0295
T3C0.0300
T4C0.0320
T5C0.0390
T6C0.0394
T7C0.1024
T8C0.1260
%
G90
G05
T1
X4.0375Y-3.575
X4.175Y-3.0375
X4.3125Y-3.7
X4.4125Y-3.6375
X4.4625Y-2.625
X4.5Y-2.9875
X4.525Y-3.6375
X4.5875Y-2.525
X4.6125Y-3.3375
X4.6625Y-3.5375
X4.7125Y-3.3625
X4.7625Y-3.7625
X4.8125Y-3.075
X4.85Y-3.5375
X4.9Y-2.875
X4.9125Y-2.675
X4.9125Y-3.9125
X5.0125Y-2.8375
X5.025Y-3.7625
X5.0875Y-3.5375
X5.1Y-2.7875
X5.1Y-2.7875
X5.1625Y-2.4625
X5.1625Y-3.3625
X5.1625Y-4.2875
X5.2125Y-2.7375
X5.3625Y-2.575
X5.4125Y-2.925
X5.4125Y-3.3
X5.5125Y-3.2625
X5.6875Y-3.85
X5.6875Y-4.3125
X5.7375Y-2.5375
X6.575Y-3.5
X6.625Y-3.45
X6.6875Y-3.5
T2
X5.5375Y-3.675
X5.5875Y-3.725
X4.525Y-2.3375
X4.575Y-2.3875
T3
X5.125Y-3.6375
X5.325Y-3.6375
T4
X5.6375Y-3.675
X4.475Y-2.3875
X3.9Y-3.9375
X4.1Y-3.9375
X3.9Y-4.075
X4.1Y-4.075
X3.9Y-3.375
X4.1Y-3.375
X3.9Y-2.6875
X4.1Y-2.6875
X3.9Y-3.2375
X4.1Y-3.2375
X3.9Y-2.55
X4.1Y-2.55
X3.9Y-3.1
X4.1Y-3.1
X3.9Y-3.5125
X4.1Y-3.5125
X3.9Y-2.9625
X4.1Y-2.9625
X4.7375Y-4.275
X4.8375Y-4.275
X3.9Y-3.65
X4.1Y-3.65
X5.6875Y-2.7375
X5.6875Y-2.8375
X5.05Y-2.3375
X5.05Y-2.4162
X4.2875Y-2.325
X4.2875Y-2.425
X6.675Y-2.3625
X6.675Y-2.4625
X4.3125Y-3.15
X4.3125Y-3.45
X4.4125Y-3.15
X4.4125Y-3.45
X4.5125Y-3.15
X4.5125Y-3.45
X4.6125Y-3.15
X4.6125Y-3.45
X4.7125Y-3.15
X4.7125Y-3.45
X4.8125Y-3.15
X4.8125Y-3.45
X4.9125Y-3.15
X4.9125Y-3.45
X5.0125Y-3.15
X5.0125Y-3.45
X5.1125Y-3.15
X5.1125Y-3.45
X5.2125Y-3.15
X5.2125Y-3.45
X5.3125Y-3.15
X5.3125Y-3.45
X5.4125Y-3.15
X5.4125Y-3.45
X5.5125Y-3.15
X5.5125Y-3.45
X5.6125Y-3.15
X5.6125Y-3.45
X4.3125Y-3.8625
X4.3125Y-4.1625
X4.4125Y-3.8625
X4.4125Y-4.1625
X4.5125Y-3.8625
X4.5125Y-4.1625
X4.6125Y-3.8625
X4.6125Y-4.1625
X3.9Y-3.8
X4.1Y-3.8
X3.9Y-2.825
X4.1Y-2.825
T5
X5.925Y-4.225
X6.625Y-4.225
X6.325Y-3.625
X6.225Y-3.625
X6.125Y-3.625
X6.025Y-3.625
X5.925Y-3.625
X5.825Y-3.625
X4.7125Y-2.575
X4.7125Y-2.975
X4.8125Y-2.575
X4.8125Y-2.975
X4.9125Y-2.575
X4.9125Y-2.975
X5.0125Y-2.575
X5.0125Y-2.975
X5.1125Y-2.575
X5.1125Y-2.975
X5.2125Y-2.575
X5.2125Y-2.975
X6.8375Y-2.65
X6.8375Y-2.95
X7.0375Y-2.65
X7.0375Y-2.95
X6.8375Y-3.175
X6.8375Y-3.475
X7.0375Y-3.175
X7.0375Y-3.475
X6.8375Y-3.6875
X6.8375Y-3.9875
X7.0375Y-3.6875
X7.0375Y-3.9875
X6.325Y-4.125
X5.825Y-4.125
X6.525Y-4.125
X6.225Y-4.125
X6.125Y-4.125
X6.625Y-4.025
X5.925Y-4.025
X6.025Y-4.025
X6.425Y-4.025
X6.325Y-4.025
X5.825Y-4.025
X6.525Y-4.025
X6.225Y-4.025
X6.125Y-4.025
X6.625Y-3.925
X5.925Y-3.925
X6.025Y-3.925
X6.425Y-3.925
X6.325Y-3.925
X5.825Y-3.925
X6.525Y-3.925
X6.225Y-3.925
X6.125Y-3.925
X6.625Y-3.825
X5.925Y-3.825
X6.025Y-3.825
X6.425Y-3.825
X6.325Y-3.825
X5.825Y-3.825
X6.525Y-3.825
X6.225Y-3.825
X6.125Y-3.825
X6.625Y-3.725
X5.925Y-3.725
X6.025Y-3.725
X6.125Y-3.725
X6.225Y-3.725
X6.525Y-3.725
X5.825Y-3.725
X6.325Y-3.725
X6.425Y-3.725
X6.625Y-3.625
X6.525Y-3.625
X6.425Y-3.625
X6.025Y-4.225
X6.425Y-4.225
X6.325Y-4.225
X5.825Y-4.225
X6.525Y-4.225
X6.225Y-4.225
X6.125Y-4.225
X6.625Y-4.125
X5.925Y-4.125
X6.025Y-4.125
X6.425Y-4.125
T6
X4.15Y-4.2875
X4.25Y-4.2875
X6.0125Y-2.3875
X6.1125Y-2.3875
X6.2125Y-2.3875
X6.3125Y-2.3875
X6.4125Y-2.3875
X6.5125Y-2.3875
X4.7375Y-2.3875
X4.8375Y-2.3875
T8
X3.9Y-2.4
X3.9Y-4.225
X6.9625Y-2.4
X6.9625Y-4.225
T7
G00X5.2525Y-2.375
M15
G01X5.6225Y-2.375
M16
G05
T0
M30
