%TF.GenerationSoftware,KiCad,Pcbnew,(5.1.6)-1*%
%TF.CreationDate,2021-02-06T11:25:37-03:00*%
%TF.ProjectId,GaroaRelogio,4761726f-6152-4656-9c6f-67696f2e6b69,rev?*%
%TF.SameCoordinates,Original*%
%TF.FileFunction,Copper,L1,Top*%
%TF.FilePolarity,Positive*%
%FSLAX46Y46*%
G04 Gerber Fmt 4.6, Leading zero omitted, Abs format (unit mm)*
G04 Created by KiCad (PCBNEW (5.1.6)-1) date 2021-02-06 11:25:37*
%MOMM*%
%LPD*%
G01*
G04 APERTURE LIST*
%TA.AperFunction,ComponentPad*%
%ADD10C,1.828800*%
%TD*%
%TA.AperFunction,ComponentPad*%
%ADD11R,1.500000X1.500000*%
%TD*%
%TA.AperFunction,ComponentPad*%
%ADD12C,1.500000*%
%TD*%
%TA.AperFunction,ComponentPad*%
%ADD13R,1.300000X1.300000*%
%TD*%
%TA.AperFunction,ComponentPad*%
%ADD14C,1.300000*%
%TD*%
%TA.AperFunction,ComponentPad*%
%ADD15C,1.422400*%
%TD*%
%TA.AperFunction,ComponentPad*%
%ADD16R,1.700000X1.700000*%
%TD*%
%TA.AperFunction,ComponentPad*%
%ADD17O,1.700000X1.700000*%
%TD*%
%TA.AperFunction,ComponentPad*%
%ADD18C,1.200000*%
%TD*%
%TA.AperFunction,ComponentPad*%
%ADD19R,1.600000X1.600000*%
%TD*%
%TA.AperFunction,ComponentPad*%
%ADD20O,1.600000X1.600000*%
%TD*%
%TA.AperFunction,ComponentPad*%
%ADD21C,1.651000*%
%TD*%
%TA.AperFunction,ComponentPad*%
%ADD22C,1.320800*%
%TD*%
%TA.AperFunction,SMDPad,CuDef*%
%ADD23R,2.500000X5.100000*%
%TD*%
%TA.AperFunction,SMDPad,CuDef*%
%ADD24C,10.200000*%
%TD*%
%TA.AperFunction,ComponentPad*%
%ADD25C,3.352800*%
%TD*%
%TA.AperFunction,ViaPad*%
%ADD26C,1.219200*%
%TD*%
%TA.AperFunction,Conductor*%
%ADD27C,0.609600*%
%TD*%
%TA.AperFunction,Conductor*%
%ADD28C,0.406400*%
%TD*%
%TA.AperFunction,Conductor*%
%ADD29C,0.812800*%
%TD*%
G04 APERTURE END LIST*
%TO.P,PAD,1*%
%TO.N,N/C*%
%TA.AperFunction,ComponentPad*%
G36*
G01*
X131862500Y-60987500D02*
X131862500Y-59662500D01*
G75*
G02*
X132525000Y-59000000I662500J0D01*
G01*
X143700000Y-59000000D01*
G75*
G02*
X144362500Y-59662500I0J-662500D01*
G01*
X144362500Y-60987500D01*
G75*
G02*
X143700000Y-61650000I-662500J0D01*
G01*
X132525000Y-61650000D01*
G75*
G02*
X131862500Y-60987500I0J662500D01*
G01*
G37*
%TD.AperFunction*%
%TD*%
D10*
%TO.P,PAD,1*%
%TO.N,N/C*%
X168275000Y-107315000D03*
%TD*%
%TO.P,PAD,1*%
%TO.N,N/C*%
X150495000Y-107315000D03*
%TD*%
%TO.P,PAD,1*%
%TO.N,N/C*%
X153035000Y-107315000D03*
%TD*%
%TO.P,PAD,1*%
%TO.N,N/C*%
X163195000Y-107315000D03*
%TD*%
%TO.P,PAD,1*%
%TO.N,N/C*%
X160655000Y-107315000D03*
%TD*%
%TO.P,PAD,1*%
%TO.N,N/C*%
X147955000Y-107315000D03*
%TD*%
%TO.P,PAD,1*%
%TO.N,N/C*%
X165735000Y-107315000D03*
%TD*%
%TO.P,PAD,1*%
%TO.N,N/C*%
X158115000Y-107315000D03*
%TD*%
%TO.P,PAD,1*%
%TO.N,N/C*%
X155575000Y-107315000D03*
%TD*%
%TO.P,PAD,1*%
%TO.N,N/C*%
X168275000Y-104775000D03*
%TD*%
%TO.P,PAD,1*%
%TO.N,N/C*%
X150495000Y-104775000D03*
%TD*%
%TO.P,PAD,1*%
%TO.N,N/C*%
X153035000Y-104775000D03*
%TD*%
%TO.P,PAD,1*%
%TO.N,N/C*%
X163195000Y-104775000D03*
%TD*%
%TO.P,PAD,1*%
%TO.N,N/C*%
X160655000Y-104775000D03*
%TD*%
%TO.P,PAD,1*%
%TO.N,N/C*%
X147955000Y-104775000D03*
%TD*%
%TO.P,PAD,1*%
%TO.N,N/C*%
X165735000Y-104775000D03*
%TD*%
%TO.P,PAD,1*%
%TO.N,N/C*%
X158115000Y-104775000D03*
%TD*%
%TO.P,PAD,1*%
%TO.N,N/C*%
X155575000Y-104775000D03*
%TD*%
%TO.P,PAD,1*%
%TO.N,N/C*%
X168275000Y-102235000D03*
%TD*%
%TO.P,PAD,1*%
%TO.N,N/C*%
X150495000Y-102235000D03*
%TD*%
%TO.P,PAD,1*%
%TO.N,N/C*%
X153035000Y-102235000D03*
%TD*%
%TO.P,PAD,1*%
%TO.N,N/C*%
X163195000Y-102235000D03*
%TD*%
%TO.P,PAD,1*%
%TO.N,N/C*%
X160655000Y-102235000D03*
%TD*%
%TO.P,PAD,1*%
%TO.N,N/C*%
X147955000Y-102235000D03*
%TD*%
%TO.P,PAD,1*%
%TO.N,N/C*%
X165735000Y-102235000D03*
%TD*%
%TO.P,PAD,1*%
%TO.N,N/C*%
X158115000Y-102235000D03*
%TD*%
%TO.P,PAD,1*%
%TO.N,N/C*%
X155575000Y-102235000D03*
%TD*%
%TO.P,PAD,1*%
%TO.N,N/C*%
X168275000Y-99695000D03*
%TD*%
%TO.P,PAD,1*%
%TO.N,N/C*%
X150495000Y-99695000D03*
%TD*%
%TO.P,PAD,1*%
%TO.N,N/C*%
X153035000Y-99695000D03*
%TD*%
%TO.P,PAD,1*%
%TO.N,N/C*%
X163195000Y-99695000D03*
%TD*%
%TO.P,PAD,1*%
%TO.N,N/C*%
X160655000Y-99695000D03*
%TD*%
%TO.P,PAD,1*%
%TO.N,N/C*%
X147955000Y-99695000D03*
%TD*%
%TO.P,PAD,1*%
%TO.N,N/C*%
X165735000Y-99695000D03*
%TD*%
%TO.P,PAD,1*%
%TO.N,N/C*%
X158115000Y-99695000D03*
%TD*%
%TO.P,PAD,1*%
%TO.N,N/C*%
X155575000Y-99695000D03*
%TD*%
%TO.P,PAD,1*%
%TO.N,N/C*%
X168275000Y-97155000D03*
%TD*%
%TO.P,PAD,1*%
%TO.N,N/C*%
X150495000Y-97155000D03*
%TD*%
%TO.P,PAD,1*%
%TO.N,N/C*%
X153035000Y-97155000D03*
%TD*%
%TO.P,PAD,1*%
%TO.N,N/C*%
X163195000Y-97155000D03*
%TD*%
%TO.P,PAD,1*%
%TO.N,N/C*%
X160655000Y-97155000D03*
%TD*%
%TO.P,PAD,1*%
%TO.N,N/C*%
X147955000Y-97155000D03*
%TD*%
%TO.P,PAD,1*%
%TO.N,N/C*%
X165735000Y-97155000D03*
%TD*%
%TO.P,PAD,1*%
%TO.N,N/C*%
X158115000Y-97155000D03*
%TD*%
%TO.P,PAD,1*%
%TO.N,N/C*%
X155575000Y-97155000D03*
%TD*%
%TO.P,PAD,1*%
%TO.N,N/C*%
X168275000Y-94615000D03*
%TD*%
%TO.P,PAD,1*%
%TO.N,N/C*%
X150495000Y-94615000D03*
%TD*%
%TO.P,PAD,1*%
%TO.N,N/C*%
X153035000Y-94615000D03*
%TD*%
%TO.P,PAD,1*%
%TO.N,N/C*%
X155575000Y-94615000D03*
%TD*%
%TO.P,PAD,1*%
%TO.N,N/C*%
X158115000Y-94615000D03*
%TD*%
%TO.P,PAD,1*%
%TO.N,N/C*%
X165735000Y-94615000D03*
%TD*%
%TO.P,PAD,1*%
%TO.N,N/C*%
X147955000Y-94615000D03*
%TD*%
%TO.P,PAD,1*%
%TO.N,N/C*%
X160655000Y-94615000D03*
%TD*%
%TO.P,PAD,1*%
%TO.N,N/C*%
X163195000Y-94615000D03*
%TD*%
%TO.P,PAD,1*%
%TO.N,N/C*%
X168275000Y-92075000D03*
%TD*%
%TO.P,PAD,1*%
%TO.N,N/C*%
X165735000Y-92075000D03*
%TD*%
%TO.P,PAD,1*%
%TO.N,N/C*%
X163195000Y-92075000D03*
%TD*%
%TO.P,PAD,1*%
%TO.N,N/C*%
X160655000Y-92075000D03*
%TD*%
%TO.P,PAD,1*%
%TO.N,N/C*%
X158115000Y-92075000D03*
%TD*%
%TO.P,PAD,1*%
%TO.N,N/C*%
X155575000Y-92075000D03*
%TD*%
%TO.P,PAD,1*%
%TO.N,N/C*%
X153035000Y-92075000D03*
%TD*%
%TO.P,PAD,1*%
%TO.N,N/C*%
X150495000Y-92075000D03*
%TD*%
%TO.P,PAD,1*%
%TO.N,N/C*%
X147955000Y-92075000D03*
%TD*%
D11*
%TO.P,DSP1,1*%
%TO.N,Net-(DSP1-Pad1)*%
X119697500Y-75565000D03*
D12*
%TO.P,DSP1,2*%
%TO.N,Net-(DSP1-Pad2)*%
X122237500Y-75565000D03*
%TO.P,DSP1,3*%
%TO.N,Net-(DSP1-Pad3)*%
X124777500Y-75565000D03*
%TO.P,DSP1,4*%
%TO.N,Net-(DSP1-Pad4)*%
X127317500Y-75565000D03*
%TO.P,DSP1,5*%
%TO.N,Net-(DSP1-Pad5)*%
X129857500Y-75565000D03*
%TO.P,DSP1,6*%
%TO.N,DIG4*%
X132397500Y-75565000D03*
%TO.P,DSP1,7*%
%TO.N,Net-(DSP1-Pad7)*%
X132397500Y-65405000D03*
%TO.P,DSP1,8*%
%TO.N,DIG3*%
X129857500Y-65405000D03*
%TO.P,DSP1,9*%
%TO.N,DIG2*%
X127317500Y-65405000D03*
%TO.P,DSP1,10*%
%TO.N,Net-(DSP1-Pad10)*%
X124777500Y-65405000D03*
%TO.P,DSP1,11*%
%TO.N,Net-(DSP1-Pad11)*%
X122237500Y-65405000D03*
%TO.P,DSP1,12*%
%TO.N,DIG1*%
X119697500Y-65405000D03*
%TD*%
D13*
%TO.P,Q1,1*%
%TO.N,Net-(BZ1-Pad2)*%
X143192500Y-93345000D03*
D14*
%TO.P,Q1,3*%
%TO.N,GND*%
X140652500Y-93345000D03*
%TO.P,Q1,2*%
%TO.N,Net-(Q1-Pad2)*%
X141922500Y-94615000D03*
%TD*%
D10*
%TO.P,SW1,1*%
%TO.N,Net-(CI1-Pad17)*%
X173672500Y-67310000D03*
%TO.P,SW1,2*%
%TO.N,GND*%
X178752500Y-67310000D03*
%TO.P,SW1,1*%
%TO.N,Net-(CI1-Pad17)*%
X173672500Y-74930000D03*
%TO.P,SW1,2*%
%TO.N,GND*%
X178752500Y-74930000D03*
%TD*%
D15*
%TO.P,X1,1*%
%TO.N,Net-(CI1-Pad9)*%
X130175000Y-92392500D03*
%TO.P,X1,2*%
%TO.N,Net-(CI1-Pad10)*%
X135255000Y-92392500D03*
%TD*%
D16*
%TO.P,BZ1,1*%
%TO.N,+5V*%
X105410000Y-108902500D03*
D17*
%TO.P,BZ1,2*%
%TO.N,Net-(BZ1-Pad2)*%
X107950000Y-108902500D03*
%TD*%
D12*
%TO.P,C1,1*%
%TO.N,Net-(C1-Pad1)*%
X144462500Y-72072500D03*
%TO.P,C1,2*%
%TO.N,GND*%
X144462500Y-69532500D03*
%TD*%
D18*
%TO.P,C2,1*%
%TO.N,Net-(C2-Pad1)*%
X128270000Y-59372500D03*
%TO.P,C2,2*%
%TO.N,GND*%
X128270000Y-61372500D03*
%TD*%
D12*
%TO.P,C3,2*%
%TO.N,GND*%
X108902500Y-59055000D03*
%TO.P,C3,1*%
%TO.N,+5V*%
X108902500Y-61595000D03*
%TD*%
%TO.P,C7,1*%
%TO.N,Net-(C7-Pad1)*%
X169545000Y-60007500D03*
%TO.P,C7,2*%
%TO.N,Net-(C7-Pad2)*%
X169545000Y-62547500D03*
%TD*%
D19*
%TO.P,CI1,1*%
%TO.N,Net-(C7-Pad2)*%
X109537500Y-87630000D03*
D20*
%TO.P,CI1,15*%
%TO.N,DP*%
X142557500Y-80010000D03*
%TO.P,CI1,2*%
%TO.N,Net-(CI1-Pad2)*%
X112077500Y-87630000D03*
%TO.P,CI1,16*%
%TO.N,G*%
X140017500Y-80010000D03*
%TO.P,CI1,3*%
%TO.N,Net-(CI1-Pad3)*%
X114617500Y-87630000D03*
%TO.P,CI1,17*%
%TO.N,Net-(CI1-Pad17)*%
X137477500Y-80010000D03*
%TO.P,CI1,4*%
%TO.N,DIG3*%
X117157500Y-87630000D03*
%TO.P,CI1,18*%
%TO.N,Net-(CI1-Pad18)*%
X134937500Y-80010000D03*
%TO.P,CI1,5*%
%TO.N,DIG4*%
X119697500Y-87630000D03*
%TO.P,CI1,19*%
%TO.N,Net-(CI1-Pad19)*%
X132397500Y-80010000D03*
%TO.P,CI1,6*%
%TO.N,DIG1*%
X122237500Y-87630000D03*
%TO.P,CI1,20*%
%TO.N,+5V*%
X129857500Y-80010000D03*
%TO.P,CI1,7*%
X124777500Y-87630000D03*
%TO.P,CI1,21*%
%TO.N,Net-(C1-Pad1)*%
X127317500Y-80010000D03*
%TO.P,CI1,8*%
%TO.N,GND*%
X127317500Y-87630000D03*
%TO.P,CI1,22*%
X124777500Y-80010000D03*
%TO.P,CI1,9*%
%TO.N,Net-(CI1-Pad9)*%
X129857500Y-87630000D03*
%TO.P,CI1,23*%
%TO.N,F*%
X122237500Y-80010000D03*
%TO.P,CI1,10*%
%TO.N,Net-(CI1-Pad10)*%
X132397500Y-87630000D03*
%TO.P,CI1,24*%
%TO.N,E*%
X119697500Y-80010000D03*
%TO.P,CI1,11*%
%TO.N,DIG2*%
X134937500Y-87630000D03*
%TO.P,CI1,25*%
%TO.N,D*%
X117157500Y-80010000D03*
%TO.P,CI1,12*%
%TO.N,B*%
X137477500Y-87630000D03*
%TO.P,CI1,26*%
%TO.N,C*%
X114617500Y-80010000D03*
%TO.P,CI1,13*%
%TO.N,A*%
X140017500Y-87630000D03*
%TO.P,CI1,27*%
%TO.N,/i2C_SDA*%
X112077500Y-80010000D03*
%TO.P,CI1,14*%
%TO.N,Net-(CI1-Pad14)*%
X142557500Y-87630000D03*
%TO.P,CI1,28*%
%TO.N,/i2C_SCL*%
X109537500Y-80010000D03*
%TD*%
D19*
%TO.P,CI2,1*%
%TO.N,Net-(CI2-Pad1)*%
X109537500Y-105727500D03*
D20*
%TO.P,CI2,5*%
%TO.N,/i2C_SDA*%
X117157500Y-98107500D03*
%TO.P,CI2,2*%
%TO.N,Net-(CI2-Pad2)*%
X112077500Y-105727500D03*
%TO.P,CI2,6*%
%TO.N,/i2C_SCL*%
X114617500Y-98107500D03*
%TO.P,CI2,3*%
%TO.N,Net-(BAT1-Pad1)*%
X114617500Y-105727500D03*
%TO.P,CI2,7*%
%TO.N,Net-(CI2-Pad7)*%
X112077500Y-98107500D03*
%TO.P,CI2,4*%
%TO.N,GND*%
X117157500Y-105727500D03*
%TO.P,CI2,8*%
%TO.N,+5V*%
X109537500Y-98107500D03*
%TD*%
D16*
%TO.P,P1,1*%
%TO.N,GND*%
X152717500Y-60642500D03*
D17*
%TO.P,P1,2*%
%TO.N,Net-(P1-Pad2)*%
X155257500Y-60642500D03*
%TO.P,P1,3*%
%TO.N,+5V*%
X157797500Y-60642500D03*
%TO.P,P1,4*%
%TO.N,Net-(CI1-Pad2)*%
X160337500Y-60642500D03*
%TO.P,P1,5*%
%TO.N,Net-(CI1-Pad3)*%
X162877500Y-60642500D03*
%TO.P,P1,6*%
%TO.N,Net-(C7-Pad1)*%
X165417500Y-60642500D03*
%TD*%
%TO.P,P2,2*%
%TO.N,GND*%
X122872500Y-60642500D03*
D16*
%TO.P,P2,1*%
%TO.N,Net-(C2-Pad1)*%
X120332500Y-60642500D03*
%TD*%
D21*
%TO.P,R3,2*%
%TO.N,Net-(CI1-Pad14)*%
X104140000Y-96520000D03*
%TO.P,R3,1*%
%TO.N,Net-(Q1-Pad2)*%
X99060000Y-96520000D03*
%TD*%
%TO.P,R7,2*%
%TO.N,B*%
X99060000Y-71755000D03*
%TO.P,R7,1*%
%TO.N,Net-(DSP1-Pad7)*%
X104140000Y-71755000D03*
%TD*%
%TO.P,R8,2*%
%TO.N,D*%
X99060000Y-85725000D03*
%TO.P,R8,1*%
%TO.N,Net-(DSP1-Pad2)*%
X104140000Y-85725000D03*
%TD*%
%TO.P,R9,2*%
%TO.N,F*%
X99060000Y-68262500D03*
%TO.P,R9,1*%
%TO.N,Net-(DSP1-Pad10)*%
X104140000Y-68262500D03*
%TD*%
%TO.P,R10,2*%
%TO.N,DP*%
X99060000Y-82232500D03*
%TO.P,R10,1*%
%TO.N,Net-(DSP1-Pad3)*%
X104140000Y-82232500D03*
%TD*%
%TO.P,R11,1*%
%TO.N,Net-(DSP1-Pad11)*%
X104140000Y-64770000D03*
%TO.P,R11,2*%
%TO.N,A*%
X99060000Y-64770000D03*
%TD*%
%TO.P,R12,1*%
%TO.N,Net-(DSP1-Pad4)*%
X104140000Y-78740000D03*
%TO.P,R12,2*%
%TO.N,C*%
X99060000Y-78740000D03*
%TD*%
%TO.P,R13,1*%
%TO.N,Net-(DSP1-Pad1)*%
X104140000Y-89217500D03*
%TO.P,R13,2*%
%TO.N,E*%
X99060000Y-89217500D03*
%TD*%
%TO.P,R14,1*%
%TO.N,Net-(DSP1-Pad5)*%
X104140000Y-75247500D03*
%TO.P,R14,2*%
%TO.N,G*%
X99060000Y-75247500D03*
%TD*%
D10*
%TO.P,SW2,2*%
%TO.N,GND*%
X178752500Y-88265000D03*
%TO.P,SW2,1*%
%TO.N,Net-(CI1-Pad18)*%
X173672500Y-88265000D03*
%TO.P,SW2,2*%
%TO.N,GND*%
X178752500Y-80645000D03*
%TO.P,SW2,1*%
%TO.N,Net-(CI1-Pad18)*%
X173672500Y-80645000D03*
%TD*%
%TO.P,SW3,1*%
%TO.N,Net-(CI1-Pad19)*%
X173672500Y-93662500D03*
%TO.P,SW3,2*%
%TO.N,GND*%
X178752500Y-93662500D03*
%TO.P,SW3,1*%
%TO.N,Net-(CI1-Pad19)*%
X173672500Y-101282500D03*
%TO.P,SW3,2*%
%TO.N,GND*%
X178752500Y-101282500D03*
%TD*%
D22*
%TO.P,X2,1*%
%TO.N,Net-(CI2-Pad2)*%
X120332500Y-108585000D03*
%TO.P,X2,2*%
%TO.N,Net-(CI2-Pad1)*%
X122872500Y-108585000D03*
%TD*%
D21*
%TO.P,R5,1*%
%TO.N,+5V*%
X99060000Y-92710000D03*
%TO.P,R5,2*%
%TO.N,Net-(C7-Pad2)*%
X104140000Y-92710000D03*
%TD*%
D14*
%TO.P,CI3,2*%
%TO.N,GND*%
X114935000Y-59372500D03*
%TO.P,CI3,3*%
%TO.N,Net-(C2-Pad1)*%
X116205000Y-60642500D03*
D13*
%TO.P,CI3,1*%
%TO.N,+5V*%
X113665000Y-60642500D03*
%TD*%
D21*
%TO.P,R15,2*%
%TO.N,+5V*%
X99060000Y-100012500D03*
%TO.P,R15,1*%
%TO.N,/i2C_SCL*%
X104140000Y-100012500D03*
%TD*%
%TO.P,R16,1*%
%TO.N,/i2C_SDA*%
X104140000Y-103505000D03*
%TO.P,R16,2*%
%TO.N,+5V*%
X99060000Y-103505000D03*
%TD*%
D23*
%TO.P,BAT1,1*%
%TO.N,Net-(BAT1-Pad1)*%
X126702500Y-104140000D03*
X141902500Y-104140000D03*
D24*
%TO.P,BAT1,2*%
%TO.N,GND*%
X134302500Y-104140000D03*
%TD*%
D25*
%TO.P,Z1,1*%
%TO.N,Net-(Z1-Pad1)*%
X99060000Y-60960000D03*
%TD*%
%TO.P,Z2,1*%
%TO.N,Net-(Z2-Pad1)*%
X99060000Y-107315000D03*
%TD*%
%TO.P,Z3,1*%
%TO.N,Net-(Z3-Pad1)*%
X176847500Y-60960000D03*
%TD*%
%TO.P,Z4,1*%
%TO.N,Net-(Z4-Pad1)*%
X176847500Y-107315000D03*
%TD*%
D26*
%TO.N,GND*%
X131127500Y-108902500D03*
X127635000Y-95567500D03*
X120967500Y-95567500D03*
%TO.N,+5V*%
X124777500Y-99377500D03*
X129222500Y-89852500D03*
X131127500Y-62547500D03*
%TO.N,Net-(BZ1-Pad2)*%
X144462500Y-109537500D03*
%TO.N,Net-(C7-Pad2)*%
X109537500Y-93980000D03*
X169862500Y-88900000D03*
%TO.N,Net-(CI1-Pad2)*%
X112077500Y-92392500D03*
X167005000Y-88900000D03*
%TO.N,G*%
X140017500Y-82867500D03*
%TO.N,Net-(CI1-Pad3)*%
X114935000Y-92392500D03*
X168275000Y-87630000D03*
%TO.N,Net-(CI1-Pad17)*%
X137477500Y-74295000D03*
%TO.N,DIG3*%
X116522500Y-64135000D03*
%TO.N,DIG4*%
X131127500Y-85407500D03*
%TO.N,F*%
X122237500Y-78105000D03*
X114300000Y-75882500D03*
X113347500Y-66675000D03*
%TO.N,E*%
X119697500Y-85407500D03*
%TO.N,DIG2*%
X136207500Y-65405000D03*
%TO.N,D*%
X117157500Y-84772500D03*
%TO.N,B*%
X137477500Y-83820000D03*
%TO.N,A*%
X145732500Y-64452500D03*
%TO.N,Net-(CI1-Pad14)*%
X144462500Y-97790000D03*
%TO.N,Net-(DSP1-Pad1)*%
X118427500Y-89852500D03*
%TO.N,Net-(DSP1-Pad2)*%
X102552500Y-90805000D03*
X123190000Y-89852500D03*
%TO.N,Net-(DSP1-Pad3)*%
X106045000Y-77152500D03*
X124460000Y-73025000D03*
%TO.N,Net-(DSP1-Pad4)*%
X127317500Y-72072500D03*
%TO.N,Net-(DSP1-Pad5)*%
X129540000Y-70802500D03*
X129540000Y-70802500D03*
%TO.N,Net-(DSP1-Pad7)*%
X132397500Y-69532500D03*
%TO.N,Net-(DSP1-Pad10)*%
X124777500Y-67945000D03*
%TD*%
D27*
%TO.N,Net-(BAT1-Pad1)*%
X114617500Y-105727500D02*
X114617500Y-104775000D01*
X114617500Y-104775000D02*
X115252500Y-104140000D01*
X115252500Y-104140000D02*
X126702500Y-104140000D01*
D28*
X126702500Y-104140000D02*
X126702500Y-100310000D01*
X126702500Y-100310000D02*
X128587500Y-98425000D01*
X128587500Y-98425000D02*
X140017500Y-98425000D01*
X140017500Y-98425000D02*
X141922500Y-100330000D01*
X141902500Y-100350000D02*
X141902500Y-104140000D01*
X141922500Y-100330000D02*
X141902500Y-100350000D01*
D27*
%TO.N,GND*%
X152717500Y-58737500D02*
X152717500Y-60642500D01*
X153352500Y-58102500D02*
X152717500Y-58737500D01*
X177165000Y-67310000D02*
X173672500Y-63817500D01*
X178752500Y-67310000D02*
X177165000Y-67310000D01*
X173672500Y-63817500D02*
X173672500Y-59372500D01*
X173672500Y-59372500D02*
X172402500Y-58102500D01*
X154940000Y-58102500D02*
X153352500Y-58102500D01*
X172402500Y-58102500D02*
X154940000Y-58102500D01*
X130492500Y-60960000D02*
X130080000Y-61372500D01*
X130492500Y-59055000D02*
X130492500Y-60960000D01*
X130080000Y-61372500D02*
X128270000Y-61372500D01*
X131445000Y-58102500D02*
X130492500Y-59055000D01*
X131762500Y-58102500D02*
X131445000Y-58102500D01*
X154940000Y-58102500D02*
X131762500Y-58102500D01*
X115570000Y-58102500D02*
X114935000Y-58737500D01*
X114935000Y-58737500D02*
X114935000Y-59372500D01*
X122872500Y-60642500D02*
X122872500Y-59055000D01*
X131762500Y-58102500D02*
X123825000Y-58102500D01*
X122872500Y-59055000D02*
X123825000Y-58102500D01*
X123825000Y-58102500D02*
X115570000Y-58102500D01*
X109855000Y-58102500D02*
X108902500Y-59055000D01*
X115570000Y-58102500D02*
X109855000Y-58102500D01*
X131127500Y-107315000D02*
X134302500Y-104140000D01*
X131127500Y-108902500D02*
X131127500Y-107315000D01*
D29*
X120967500Y-95567500D02*
X127635000Y-95567500D01*
X138430000Y-95567500D02*
X140652500Y-93345000D01*
X127635000Y-95567500D02*
X138430000Y-95567500D01*
D27*
%TO.N,+5V*%
X99060000Y-100012500D02*
X100965000Y-98107500D01*
X100965000Y-98107500D02*
X109537500Y-98107500D01*
X109537500Y-98107500D02*
X109537500Y-99377500D01*
X109537500Y-99377500D02*
X110172500Y-100012500D01*
X110172500Y-100012500D02*
X124142500Y-100012500D01*
X124142500Y-100012500D02*
X124777500Y-99377500D01*
X124777500Y-99377500D02*
X124777500Y-99377500D01*
X112712500Y-61595000D02*
X113665000Y-60642500D01*
X108902500Y-61595000D02*
X112712500Y-61595000D01*
X131127500Y-62865000D02*
X131127500Y-62865000D01*
X127000000Y-89852500D02*
X124777500Y-87630000D01*
X129222500Y-89852500D02*
X127000000Y-89852500D01*
X157797500Y-62230000D02*
X157797500Y-60642500D01*
X131057301Y-62477301D02*
X131127500Y-62547500D01*
X127739695Y-62477301D02*
X131057301Y-62477301D01*
X114935000Y-61912500D02*
X118745000Y-61912500D01*
X113665000Y-60642500D02*
X114935000Y-61912500D01*
X118745000Y-61912500D02*
X119062500Y-62230000D01*
X119062500Y-62230000D02*
X127492394Y-62230000D01*
X127492394Y-62230000D02*
X127739695Y-62477301D01*
X157480000Y-62547500D02*
X157797500Y-62230000D01*
X131127500Y-62547500D02*
X157480000Y-62547500D01*
%TO.N,Net-(BZ1-Pad2)*%
X144462500Y-109537500D02*
X143827500Y-110172500D01*
X143827500Y-110172500D02*
X111760000Y-110172500D01*
X111760000Y-110172500D02*
X110490000Y-108902500D01*
X110490000Y-108902500D02*
X107950000Y-108902500D01*
D28*
%TO.N,Net-(C1-Pad1)*%
X136525000Y-72072500D02*
X144462500Y-72072500D01*
X135255000Y-73342500D02*
X136525000Y-72072500D01*
X127317500Y-78422500D02*
X128270000Y-77470000D01*
X127317500Y-80010000D02*
X127317500Y-78422500D01*
X128270000Y-77470000D02*
X133032500Y-77470000D01*
X133032500Y-77470000D02*
X135255000Y-75247500D01*
X135255000Y-75247500D02*
X135255000Y-73342500D01*
D27*
%TO.N,Net-(C2-Pad1)*%
X116205000Y-60642500D02*
X120332500Y-60642500D01*
D28*
%TO.N,Net-(C7-Pad1)*%
X165417500Y-60642500D02*
X166370000Y-60642500D01*
X166370000Y-60642500D02*
X167005000Y-60007500D01*
X167005000Y-60007500D02*
X169545000Y-60007500D01*
%TO.N,Net-(C7-Pad2)*%
X109537500Y-93980000D02*
X111125000Y-93980000D01*
X111125000Y-93980000D02*
X111760000Y-94615000D01*
X120421054Y-94615000D02*
X121056054Y-93980000D01*
X111760000Y-94615000D02*
X120421054Y-94615000D01*
X121056054Y-93980000D02*
X121285000Y-93980000D01*
X121285000Y-93980000D02*
X127952500Y-93980000D01*
X127952500Y-93980000D02*
X128587500Y-94615000D01*
X128587500Y-94615000D02*
X135255000Y-94615000D01*
X135918590Y-94586410D02*
X137506090Y-94586410D01*
X135255000Y-94615000D02*
X135890000Y-94615000D01*
X135890000Y-94615000D02*
X135918590Y-94586410D01*
X137506090Y-94586410D02*
X138430000Y-93662500D01*
X138430000Y-93662500D02*
X138430000Y-92710000D01*
X138430000Y-92710000D02*
X138430000Y-92075000D01*
X138430000Y-92075000D02*
X138747500Y-91757500D01*
X146200484Y-90084290D02*
X168678210Y-90084290D01*
X138747500Y-91757500D02*
X144527274Y-91757500D01*
X144527274Y-91757500D02*
X146200484Y-90084290D01*
X168678210Y-90084290D02*
X169862500Y-88900000D01*
X169862500Y-88900000D02*
X169862500Y-88900000D01*
%TO.N,DP*%
X142557500Y-81280000D02*
X142557500Y-80010000D01*
X142240000Y-81597500D02*
X142557500Y-81280000D01*
X108267500Y-81597500D02*
X142240000Y-81597500D01*
X100330000Y-82232500D02*
X101600000Y-80962500D01*
X99060000Y-82232500D02*
X100330000Y-82232500D01*
X101641299Y-81003799D02*
X107673799Y-81003799D01*
X101600000Y-80962500D02*
X101641299Y-81003799D01*
X107673799Y-81003799D02*
X108267500Y-81597500D01*
%TO.N,Net-(CI1-Pad2)*%
X112077500Y-92392500D02*
X112077500Y-93027500D01*
X112077500Y-93027500D02*
X112395000Y-93345000D01*
X112395000Y-93345000D02*
X112712500Y-93662500D01*
X112712500Y-93662500D02*
X114935000Y-93662500D01*
X114935000Y-93662500D02*
X120015000Y-93662500D01*
X120015000Y-93662500D02*
X120967500Y-92710000D01*
X120967500Y-92710000D02*
X127952500Y-92710000D01*
X127952500Y-92710000D02*
X128270000Y-92710000D01*
X128270000Y-92710000D02*
X129222500Y-93662500D01*
X129540000Y-93980000D02*
X136207500Y-93980000D01*
X129222500Y-93662500D02*
X129540000Y-93980000D01*
X136207500Y-93980000D02*
X137477500Y-92710000D01*
X137477500Y-92710000D02*
X137477500Y-91122500D01*
X137477500Y-91122500D02*
X137795000Y-90805000D01*
X137795000Y-90805000D02*
X143510000Y-90805000D01*
X143510000Y-90805000D02*
X145415000Y-88900000D01*
X145415000Y-88900000D02*
X165100000Y-88900000D01*
X165100000Y-88900000D02*
X167005000Y-88900000D01*
X167005000Y-88900000D02*
X167005000Y-88900000D01*
%TO.N,G*%
X99060000Y-75247500D02*
X97790000Y-75247500D01*
X97790000Y-75247500D02*
X97472500Y-75565000D01*
X97472500Y-75565000D02*
X97472500Y-77152500D01*
X97472500Y-77152500D02*
X97472500Y-82463478D01*
X97472500Y-82463478D02*
X97472500Y-82867500D01*
X97472500Y-82867500D02*
X98107500Y-83502500D01*
X98107500Y-83502500D02*
X106045000Y-83502500D01*
X106045000Y-83502500D02*
X106997500Y-82550000D01*
X106997500Y-82550000D02*
X110490000Y-82550000D01*
X110490000Y-82550000D02*
X139700000Y-82550000D01*
X139700000Y-82550000D02*
X140017500Y-82867500D01*
X140017500Y-82867500D02*
X140017500Y-82867500D01*
%TO.N,Net-(CI1-Pad3)*%
X114935000Y-92392500D02*
X120015000Y-92392500D01*
X120015000Y-92392500D02*
X120650000Y-91757500D01*
X120650000Y-91757500D02*
X120967500Y-91440000D01*
X120967500Y-91440000D02*
X127952500Y-91440000D01*
X127952500Y-91440000D02*
X128270000Y-91440000D01*
X129133946Y-91440000D02*
X130721446Y-89852500D01*
X128270000Y-91440000D02*
X129133946Y-91440000D01*
X130721446Y-89852500D02*
X131762500Y-89852500D01*
X131762500Y-89852500D02*
X142875000Y-89852500D01*
X142875000Y-89852500D02*
X145097500Y-87630000D01*
X145097500Y-87630000D02*
X168275000Y-87630000D01*
X168275000Y-87630000D02*
X168275000Y-87630000D01*
%TO.N,Net-(CI1-Pad17)*%
X173672500Y-67310000D02*
X173672500Y-74930000D01*
X173672500Y-74930000D02*
X138112500Y-74930000D01*
X138112500Y-74930000D02*
X137477500Y-74295000D01*
X137477500Y-74295000D02*
X137477500Y-74295000D01*
%TO.N,DIG3*%
X116522500Y-64135000D02*
X117157500Y-64135000D01*
X129857500Y-64452500D02*
X129857500Y-65405000D01*
X129540000Y-64135000D02*
X129857500Y-64452500D01*
X117157500Y-64135000D02*
X117475000Y-63817500D01*
X117475000Y-63817500D02*
X126047500Y-63817500D01*
X126047500Y-63817500D02*
X126365000Y-64135000D01*
X126365000Y-64135000D02*
X129540000Y-64135000D01*
%TO.N,Net-(CI1-Pad18)*%
X134937500Y-78740000D02*
X134937500Y-80010000D01*
X135255000Y-78422500D02*
X134937500Y-78740000D01*
X173672500Y-80645000D02*
X171450000Y-78422500D01*
X171450000Y-78422500D02*
X135255000Y-78422500D01*
X173672500Y-88265000D02*
X173672500Y-80645000D01*
%TO.N,DIG4*%
X119697500Y-87630000D02*
X121602500Y-85725000D01*
X121602500Y-85725000D02*
X122555000Y-85725000D01*
X122555000Y-85725000D02*
X130810000Y-85725000D01*
X130810000Y-85725000D02*
X131127500Y-85407500D01*
X131127500Y-85407500D02*
X131127500Y-85407500D01*
%TO.N,Net-(CI1-Pad19)*%
X173672500Y-101282500D02*
X173672500Y-93345000D01*
X175577500Y-91757500D02*
X173672500Y-93662500D01*
X175577500Y-78105000D02*
X175577500Y-91757500D01*
X174625000Y-77152500D02*
X175577500Y-78105000D01*
X132397500Y-80010000D02*
X135255000Y-77152500D01*
X135255000Y-77152500D02*
X174625000Y-77152500D01*
%TO.N,F*%
X122237500Y-78105000D02*
X118427500Y-78105000D01*
X118427500Y-78105000D02*
X116522500Y-76200000D01*
X116522500Y-76200000D02*
X114617500Y-76200000D01*
X114617500Y-76200000D02*
X114300000Y-75882500D01*
X114300000Y-75882500D02*
X114300000Y-75882500D01*
X103187500Y-66675000D02*
X113347500Y-66675000D01*
X99060000Y-68262500D02*
X101600000Y-68262500D01*
X101600000Y-68262500D02*
X103187500Y-66675000D01*
%TO.N,E*%
X99060000Y-89217500D02*
X100330000Y-87947500D01*
X100330000Y-87947500D02*
X101282500Y-87947500D01*
X101282500Y-87947500D02*
X105727500Y-87947500D01*
X105727500Y-87947500D02*
X107632500Y-86042500D01*
X107632500Y-86042500D02*
X107950000Y-85725000D01*
X107950000Y-85725000D02*
X115887500Y-85725000D01*
X115887500Y-85725000D02*
X116205000Y-86042500D01*
X116205000Y-86042500D02*
X119062500Y-86042500D01*
X119062500Y-86042500D02*
X119697500Y-85407500D01*
X119697500Y-85407500D02*
X119697500Y-85407500D01*
%TO.N,DIG2*%
X127317500Y-66357500D02*
X127317500Y-65405000D01*
X127952500Y-66992500D02*
X127317500Y-66357500D01*
X135572500Y-66992500D02*
X127952500Y-66992500D01*
X136207500Y-65405000D02*
X136207500Y-66357500D01*
X136207500Y-66357500D02*
X135572500Y-66992500D01*
%TO.N,D*%
X99060000Y-85725000D02*
X100330000Y-86995000D01*
X100330000Y-86995000D02*
X103187500Y-86995000D01*
X103187500Y-86995000D02*
X105092500Y-86995000D01*
X105092500Y-86995000D02*
X107632500Y-84455000D01*
X107632500Y-84455000D02*
X115570000Y-84455000D01*
X115570000Y-84455000D02*
X116840000Y-84455000D01*
X116840000Y-84455000D02*
X117157500Y-84772500D01*
X117157500Y-84772500D02*
X117157500Y-84772500D01*
%TO.N,B*%
X117792500Y-83502500D02*
X135890000Y-83502500D01*
X107315000Y-83502500D02*
X117792500Y-83502500D01*
X96520000Y-74295000D02*
X96520000Y-83185000D01*
X99060000Y-71755000D02*
X96520000Y-74295000D01*
X96520000Y-83185000D02*
X97790000Y-84455000D01*
X97790000Y-84455000D02*
X106362500Y-84455000D01*
X106362500Y-84455000D02*
X107315000Y-83502500D01*
X135890000Y-83502500D02*
X137160000Y-83502500D01*
X137160000Y-83502500D02*
X137477500Y-83820000D01*
X137477500Y-83820000D02*
X137477500Y-83820000D01*
%TO.N,C*%
X114617500Y-78422500D02*
X114617500Y-80010000D01*
X113665000Y-77470000D02*
X114617500Y-78422500D01*
X101282500Y-78740000D02*
X102552500Y-80010000D01*
X105410000Y-80010000D02*
X107950000Y-77470000D01*
X107950000Y-77470000D02*
X113665000Y-77470000D01*
X99060000Y-78740000D02*
X101282500Y-78740000D01*
X102552500Y-80010000D02*
X105410000Y-80010000D01*
%TO.N,A*%
X99060000Y-64770000D02*
X101282500Y-64770000D01*
X101282500Y-64770000D02*
X102870000Y-63182500D01*
X102870000Y-63182500D02*
X103187500Y-62865000D01*
X118696223Y-62865000D02*
X119013723Y-63182500D01*
X103187500Y-62865000D02*
X118696223Y-62865000D01*
X119013723Y-63182500D02*
X119697500Y-63182500D01*
X119697500Y-63182500D02*
X126365000Y-63182500D01*
X126365000Y-63182500D02*
X126682500Y-63500000D01*
X126682500Y-63500000D02*
X130175000Y-63500000D01*
X130175000Y-63500000D02*
X130492500Y-63817500D01*
X130492500Y-63817500D02*
X145097500Y-63817500D01*
X145097500Y-63817500D02*
X145732500Y-64452500D01*
X145732500Y-64452500D02*
X145732500Y-64452500D01*
%TO.N,Net-(CI1-Pad14)*%
X144145000Y-97790000D02*
X143827500Y-97790000D01*
X119697500Y-97790000D02*
X144145000Y-97790000D01*
X104140000Y-96520000D02*
X118427500Y-96520000D01*
X118427500Y-96520000D02*
X119697500Y-97790000D01*
X144145000Y-97790000D02*
X144462500Y-97790000D01*
X144462500Y-97790000D02*
X144462500Y-97790000D01*
%TO.N,Net-(DSP1-Pad1)*%
X118427500Y-89852500D02*
X106045000Y-89852500D01*
X106045000Y-89852500D02*
X105410000Y-89217500D01*
X105410000Y-89217500D02*
X104140000Y-89217500D01*
%TO.N,Net-(DSP1-Pad2)*%
X102552500Y-90805000D02*
X102870000Y-91122500D01*
X120650000Y-89852500D02*
X123190000Y-89852500D01*
X119380000Y-91122500D02*
X120650000Y-89852500D01*
X103505000Y-91122500D02*
X119380000Y-91122500D01*
X102552500Y-90805000D02*
X103187500Y-90805000D01*
X103187500Y-90805000D02*
X103505000Y-91122500D01*
%TO.N,Net-(DSP1-Pad3)*%
X106045000Y-77152500D02*
X110490000Y-72707500D01*
X110490000Y-72707500D02*
X123825000Y-72707500D01*
X123825000Y-72707500D02*
X124142500Y-72707500D01*
X124142500Y-72707500D02*
X124460000Y-73025000D01*
X124460000Y-73025000D02*
X124460000Y-73025000D01*
%TO.N,Net-(DSP1-Pad4)*%
X104140000Y-78740000D02*
X104140000Y-77470000D01*
X104140000Y-77470000D02*
X105092500Y-76517500D01*
X105092500Y-76517500D02*
X109855000Y-71755000D01*
X109855000Y-71755000D02*
X110172500Y-71755000D01*
X110172500Y-71755000D02*
X127000000Y-71755000D01*
X127000000Y-71755000D02*
X127317500Y-72072500D01*
X127317500Y-72072500D02*
X127317500Y-72072500D01*
%TO.N,Net-(DSP1-Pad5)*%
X104140000Y-75247500D02*
X108902500Y-70485000D01*
X108902500Y-70485000D02*
X109220000Y-70485000D01*
X109220000Y-70485000D02*
X129222500Y-70485000D01*
X129222500Y-70485000D02*
X129540000Y-70802500D01*
X129540000Y-70802500D02*
X129540000Y-70802500D01*
X129540000Y-70802500D02*
X129540000Y-70802500D01*
%TO.N,Net-(DSP1-Pad7)*%
X105727500Y-71755000D02*
X104140000Y-71755000D01*
X108267500Y-69215000D02*
X105727500Y-71755000D01*
X132397500Y-69532500D02*
X132080000Y-69215000D01*
X132080000Y-69215000D02*
X108267500Y-69215000D01*
%TO.N,Net-(DSP1-Pad10)*%
X124460000Y-67945000D02*
X124460000Y-67945000D01*
X124777500Y-67945000D02*
X124142500Y-68262500D01*
X124142500Y-68262500D02*
X123190000Y-68262500D01*
X123190000Y-68262500D02*
X104140000Y-68262500D01*
%TO.N,Net-(DSP1-Pad11)*%
X117157500Y-66675000D02*
X115252500Y-64770000D01*
X115252500Y-64770000D02*
X104140000Y-64770000D01*
X122237500Y-65405000D02*
X120967500Y-66675000D01*
X120967500Y-66675000D02*
X117157500Y-66675000D01*
%TO.N,Net-(Q1-Pad2)*%
X100647500Y-94932500D02*
X106045000Y-94932500D01*
X99060000Y-96520000D02*
X100647500Y-94932500D01*
X141922500Y-95885000D02*
X141922500Y-94615000D01*
X140970000Y-96837500D02*
X141922500Y-95885000D01*
X120332500Y-96837500D02*
X140970000Y-96837500D01*
X106045000Y-94932500D02*
X106680000Y-95567500D01*
X106680000Y-95567500D02*
X119062500Y-95567500D01*
X119062500Y-95567500D02*
X120332500Y-96837500D01*
%TD*%
M02*
